Aleo-Light.ufo
<glyph name="exclam" format="1">
  <advance width="269"/>
  <unicode hex="0021"/>
  <note>
    exclam
  </note>
  <outline>
    <contour>
      <point x="159" y="422" type="line"/>
      <point x="159" y="708" type="line"/>
      <point x="113" y="708" type="line"/>
      <point x="113" y="422" type="line"/>
      <point x="119" y="244" type="line"/>
      <point x="152" y="244" type="line"/>
    </contour>
    <contour>
      <point x="136" y="-8" type="curve" smooth="yes"/>
      <point x="161" y="-8"/>
      <point x="182" y="13"/>
      <point x="182" y="39" type="curve" smooth="yes"/>
      <point x="182" y="64"/>
      <point x="161" y="85"/>
      <point x="136" y="85" type="curve" smooth="yes"/>
      <point x="110" y="85"/>
      <point x="89" y="64"/>
      <point x="89" y="39" type="curve" smooth="yes"/>
      <point x="89" y="13"/>
      <point x="110" y="-8"/>
    </contour>
  </outline>
</glyph>
<glyph name="numbersign" format="1">
  <advance width="575"/>
  <unicode hex="0023"/>
  <note>
    numbersign
  </note>
  <outline>
    <contour>
      <point x="327" y="0" type="line"/>
      <point x="374" y="222" type="line"/>
      <point x="505" y="222" type="line"/>
      <point x="507" y="244" type="line"/>
      <point x="507" y="253"/>
      <point x="501" y="256"/>
      <point x="491" y="256" type="curve" smooth="yes"/>
      <point x="379" y="256" type="line"/>
      <point x="420" y="451" type="line"/>
      <point x="512" y="451" type="line" smooth="yes"/>
      <point x="525" y="451"/>
      <point x="533" y="457"/>
      <point x="535" y="468" type="curve"/>
      <point x="537" y="486" type="line"/>
      <point x="425" y="486" type="line"/>
      <point x="469" y="686" type="line"/>
      <point x="472" y="699"/>
      <point x="467" y="708"/>
      <point x="453" y="708" type="curve" smooth="yes"/>
      <point x="433" y="708" type="line"/>
      <point x="385" y="486" type="line"/>
      <point x="236" y="486" type="line"/>
      <point x="283" y="708" type="line"/>
      <point x="263" y="708" type="line" smooth="yes"/>
      <point x="251" y="708"/>
      <point x="241" y="699"/>
      <point x="239" y="688" type="curve"/>
      <point x="196" y="486" type="line"/>
      <point x="89" y="486" type="line" smooth="yes"/>
      <point x="76" y="486"/>
      <point x="68" y="481"/>
      <point x="67" y="470" type="curve" smooth="yes"/>
      <point x="65" y="451" type="line"/>
      <point x="191" y="451" type="line"/>
      <point x="150" y="256" type="line"/>
      <point x="41" y="256" type="line"/>
      <point x="39" y="248" type="line"/>
      <point x="35" y="232"/>
      <point x="39" y="222"/>
      <point x="53" y="222" type="curve" smooth="yes"/>
      <point x="145" y="222" type="line"/>
      <point x="98" y="0" type="line"/>
      <point x="119" y="0" type="line" smooth="yes"/>
      <point x="129" y="0"/>
      <point x="137" y="3"/>
      <point x="142" y="20" type="curve"/>
      <point x="185" y="222" type="line"/>
      <point x="334" y="222" type="line"/>
      <point x="291" y="22" type="line"/>
      <point x="289" y="12"/>
      <point x="290" y="0"/>
      <point x="307" y="0" type="curve" smooth="yes"/>
    </contour>
    <contour>
      <point x="339" y="256" type="line"/>
      <point x="190" y="256" type="line"/>
      <point x="231" y="451" type="line"/>
      <point x="380" y="451" type="line"/>
    </contour>
  </outline>
</glyph>
<glyph name="dollar" format="1">
  <advance width="546"/>
  <unicode hex="0024"/>
  <note>
    dollar
  </note>
  <outline>
    <contour>
      <point x="250" y="-8" type="curve"/>
      <point x="244" y="-128" type="line"/>
      <point x="262" y="-128" type="line" smooth="yes"/>
      <point x="272" y="-128"/>
      <point x="276" y="-121"/>
      <point x="277" y="-113" type="curve"/>
      <point x="282" y="-8" type="line"/>
      <point x="411" y="0"/>
      <point x="496" y="83"/>
      <point x="496" y="206" type="curve" smooth="yes"/>
      <point x="496" y="315"/>
      <point x="421" y="349"/>
      <point x="302" y="387" type="curve"/>
      <point x="316" y="673" type="line"/>
      <point x="357" y="669"/>
      <point x="413" y="648"/>
      <point x="437" y="624" type="curve" smooth="yes"/>
      <point x="448" y="613"/>
      <point x="457" y="613"/>
      <point x="465" y="624" type="curve"/>
      <point x="476" y="641" type="line"/>
      <point x="432" y="685"/>
      <point x="380" y="709"/>
      <point x="318" y="713" type="curve"/>
      <point x="324" y="814" type="line"/>
      <point x="306" y="814" type="line" smooth="yes"/>
      <point x="296" y="814"/>
      <point x="291" y="805"/>
      <point x="291" y="798" type="curve"/>
      <point x="286" y="714" type="line"/>
      <point x="179" y="710"/>
      <point x="89" y="644"/>
      <point x="89" y="532" type="curve" smooth="yes"/>
      <point x="89" y="427"/>
      <point x="156" y="384"/>
      <point x="269" y="350" type="curve"/>
      <point x="253" y="32" type="line"/>
      <point x="194" y="36"/>
      <point x="134" y="66"/>
      <point x="94" y="106" type="curve" smooth="yes"/>
      <point x="86" y="114"/>
      <point x="77" y="114"/>
      <point x="69" y="104" type="curve"/>
      <point x="55" y="84" type="line"/>
      <point x="103" y="30"/>
      <point x="171" y="-4"/>
    </contour>
    <contour>
      <point x="451" y="199" type="curve" smooth="yes"/>
      <point x="451" y="102"/>
      <point x="384" y="39"/>
      <point x="285" y="32" type="curve"/>
      <point x="300" y="341" type="line"/>
      <point x="388" y="315"/>
      <point x="451" y="282"/>
    </contour>
    <contour>
      <point x="133" y="536" type="curve" smooth="yes"/>
      <point x="133" y="614"/>
      <point x="195" y="670"/>
      <point x="285" y="674" type="curve"/>
      <point x="271" y="398" type="line"/>
      <point x="185" y="425"/>
      <point x="133" y="461"/>
    </contour>
  </outline>
</glyph>
<glyph name="percent" format="1">
  <advance width="775"/>
  <unicode hex="0025"/>
  <note>
    percent
  </note>
  <outline>
    <contour>
      <point x="345" y="538" type="curve" smooth="yes"/>
      <point x="345" y="641"/>
      <point x="291" y="716"/>
      <point x="197" y="716" type="curve" smooth="yes"/>
      <point x="104" y="716"/>
      <point x="48" y="644"/>
      <point x="48" y="538" type="curve" smooth="yes"/>
      <point x="48" y="434"/>
      <point x="102" y="361"/>
      <point x="197" y="361" type="curve" smooth="yes"/>
      <point x="288" y="361"/>
      <point x="345" y="437"/>
    </contour>
    <contour>
      <point x="307" y="538" type="curve" smooth="yes"/>
      <point x="307" y="456"/>
      <point x="275" y="393"/>
      <point x="197" y="393" type="curve" smooth="yes"/>
      <point x="123" y="393"/>
      <point x="87" y="450"/>
      <point x="87" y="538" type="curve" smooth="yes"/>
      <point x="87" y="620"/>
      <point x="119" y="683"/>
      <point x="197" y="683" type="curve" smooth="yes"/>
      <point x="270" y="683"/>
      <point x="307" y="627"/>
    </contour>
    <contour>
      <point x="614" y="698" type="curve"/>
      <point x="107" y="0" type="line"/>
      <point x="141" y="0" type="line" smooth="yes"/>
      <point x="148" y="0"/>
      <point x="154" y="3"/>
      <point x="158" y="9" type="curve"/>
      <point x="666" y="708" type="line"/>
      <point x="633" y="708" type="line" smooth="yes"/>
      <point x="625" y="708"/>
      <point x="618" y="704"/>
    </contour>
    <contour>
      <point x="727" y="168" type="curve" smooth="yes"/>
      <point x="727" y="272"/>
      <point x="674" y="346"/>
      <point x="579" y="346" type="curve" smooth="yes"/>
      <point x="482" y="346"/>
      <point x="430" y="270"/>
      <point x="430" y="168" type="curve" smooth="yes"/>
      <point x="430" y="67"/>
      <point x="483" y="-8"/>
      <point x="579" y="-8" type="curve" smooth="yes"/>
      <point x="672" y="-8"/>
      <point x="727" y="65"/>
    </contour>
    <contour>
      <point x="689" y="168" type="curve" smooth="yes"/>
      <point x="689" y="87"/>
      <point x="657" y="24"/>
      <point x="579" y="24" type="curve" smooth="yes"/>
      <point x="506" y="24"/>
      <point x="468" y="82"/>
      <point x="468" y="168" type="curve" smooth="yes"/>
      <point x="468" y="251"/>
      <point x="503" y="314"/>
      <point x="579" y="314" type="curve" smooth="yes"/>
      <point x="652" y="314"/>
      <point x="689" y="257"/>
    </contour>
  </outline>
</glyph>
<glyph name="ampersand" format="1">
  <advance width="691"/>
  <unicode hex="0026"/>
  <note>
    ampersand
  </note>
  <outline>
    <contour>
      <point x="317" y="716" type="curve" smooth="yes"/>
      <point x="219" y="716"/>
      <point x="139" y="654"/>
      <point x="139" y="552" type="curve" smooth="yes"/>
      <point x="139" y="493"/>
      <point x="162" y="447"/>
      <point x="209" y="394" type="curve"/>
      <point x="119" y="360"/>
      <point x="41" y="280"/>
      <point x="41" y="181" type="curve" smooth="yes"/>
      <point x="41" y="68"/>
      <point x="133" y="-8"/>
      <point x="244" y="-8" type="curve" smooth="yes"/>
      <point x="341" y="-8"/>
      <point x="430" y="37"/>
      <point x="495" y="112" type="curve"/>
      <point x="597" y="11" type="line" smooth="yes"/>
      <point x="602" y="6"/>
      <point x="606" y="3"/>
      <point x="610" y="2" type="curve" smooth="yes"/>
      <point x="614" y="1"/>
      <point x="619" y="0"/>
      <point x="625" y="0" type="curve" smooth="yes"/>
      <point x="669" y="0" type="line"/>
      <point x="521" y="146" type="line"/>
      <point x="558" y="199"/>
      <point x="584" y="274"/>
      <point x="586" y="338" type="curve"/>
      <point x="559" y="338" type="line" smooth="yes"/>
      <point x="550" y="338"/>
      <point x="547" y="332"/>
      <point x="545" y="324" type="curve"/>
      <point x="538" y="270"/>
      <point x="520" y="220"/>
      <point x="492" y="174" type="curve"/>
      <point x="269" y="394" type="line" smooth="yes"/>
      <point x="220" y="443"/>
      <point x="183" y="489"/>
      <point x="183" y="553" type="curve" smooth="yes"/>
      <point x="183" y="625"/>
      <point x="236" y="678"/>
      <point x="317" y="678" type="curve" smooth="yes"/>
      <point x="377" y="678"/>
      <point x="427" y="635"/>
      <point x="439" y="580" type="curve" smooth="yes"/>
      <point x="440" y="577"/>
      <point x="444" y="568"/>
      <point x="456" y="570" type="curve"/>
      <point x="482" y="574" type="line"/>
      <point x="478" y="657"/>
      <point x="399" y="716"/>
    </contour>
    <contour>
      <point x="89" y="184" type="curve" smooth="yes"/>
      <point x="89" y="266"/>
      <point x="150" y="336"/>
      <point x="232" y="369" type="curve"/>
      <point x="467" y="138" type="line"/>
      <point x="412" y="71"/>
      <point x="342" y="31"/>
      <point x="251" y="31" type="curve" smooth="yes"/>
      <point x="165" y="31"/>
      <point x="89" y="91"/>
    </contour>
  </outline>
</glyph>
<glyph name="parenleft" format="1">
  <advance width="250"/>
  <unicode hex="0028"/>
  <note>
    parenleft
  </note>
  <outline>
    <contour>
      <point x="92" y="315" type="curve" smooth="yes"/>
      <point x="92" y="463"/>
      <point x="133" y="603"/>
      <point x="212" y="729" type="curve"/>
      <point x="216" y="737"/>
      <point x="216" y="744"/>
      <point x="209" y="750" type="curve"/>
      <point x="188" y="763" type="line"/>
      <point x="97" y="625"/>
      <point x="50" y="484"/>
      <point x="50" y="315" type="curve" smooth="yes"/>
      <point x="50" y="153"/>
      <point x="97" y="3"/>
      <point x="188" y="-133" type="curve"/>
      <point x="209" y="-120" type="line"/>
      <point x="217" y="-115"/>
      <point x="217" y="-107"/>
      <point x="212" y="-98" type="curve"/>
      <point x="134" y="27"/>
      <point x="92" y="163"/>
    </contour>
  </outline>
</glyph>
<glyph name="parenright" format="1">
  <advance width="249"/>
  <unicode hex="0029"/>
  <note>
    parenright
  </note>
  <outline>
    <contour>
      <point x="157" y="315" type="curve" smooth="yes"/>
      <point x="157" y="166"/>
      <point x="116" y="29"/>
      <point x="37" y="-98" type="curve"/>
      <point x="34" y="-104"/>
      <point x="34" y="-114"/>
      <point x="41" y="-120" type="curve"/>
      <point x="61" y="-132" type="line"/>
      <point x="155" y="14"/>
      <point x="199" y="140"/>
      <point x="199" y="315" type="curve" smooth="yes"/>
      <point x="199" y="485"/>
      <point x="155" y="617"/>
      <point x="61" y="763" type="curve"/>
      <point x="41" y="750" type="line"/>
      <point x="35" y="746"/>
      <point x="33" y="738"/>
      <point x="37" y="729" type="curve"/>
      <point x="116" y="602"/>
      <point x="157" y="463"/>
    </contour>
  </outline>
</glyph>
<glyph name="asterisk" format="1">
  <advance width="412"/>
  <unicode hex="002A"/>
  <note>
    asterisk
  </note>
  <outline>
    <contour>
      <point x="193" y="555" type="curve" smooth="yes"/>
      <point x="193" y="448" type="line"/>
      <point x="219" y="448" type="line"/>
      <point x="219" y="556" type="line" smooth="yes"/>
      <point x="219" y="563"/>
      <point x="216" y="575"/>
      <point x="212" y="586" type="curve"/>
      <point x="215" y="581"/>
      <point x="228" y="570"/>
      <point x="236" y="565" type="curve" smooth="yes"/>
      <point x="331" y="510" type="line"/>
      <point x="344" y="532" type="line"/>
      <point x="249" y="588" type="line" smooth="yes"/>
      <point x="242" y="592"/>
      <point x="231" y="595"/>
      <point x="220" y="597" type="curve"/>
      <point x="235" y="601"/>
      <point x="238" y="602"/>
      <point x="249" y="608" type="curve" smooth="yes"/>
      <point x="343" y="662" type="line"/>
      <point x="330" y="684" type="line"/>
      <point x="236" y="630" type="line" smooth="yes"/>
      <point x="226" y="624"/>
      <point x="219" y="618"/>
      <point x="212" y="608" type="curve"/>
      <point x="215" y="615"/>
      <point x="219" y="632"/>
      <point x="219" y="640" type="curve" smooth="yes"/>
      <point x="219" y="746" type="line"/>
      <point x="193" y="746" type="line"/>
      <point x="193" y="639" type="line" smooth="yes"/>
      <point x="193" y="631"/>
      <point x="194" y="619"/>
      <point x="200" y="607" type="curve"/>
      <point x="195" y="613"/>
      <point x="184" y="625"/>
      <point x="175" y="630" type="curve" smooth="yes"/>
      <point x="81" y="685" type="line"/>
      <point x="68" y="662" type="line"/>
      <point x="163" y="607" type="line" smooth="yes"/>
      <point x="170" y="603"/>
      <point x="183" y="598"/>
      <point x="192" y="597" type="curve"/>
      <point x="188" y="596"/>
      <point x="170" y="591"/>
      <point x="163" y="587" type="curve" smooth="yes"/>
      <point x="69" y="532" type="line"/>
      <point x="81" y="510" type="line"/>
      <point x="175" y="565" type="line" smooth="yes"/>
      <point x="185" y="571"/>
      <point x="189" y="572"/>
      <point x="199" y="585" type="curve"/>
      <point x="195" y="576"/>
      <point x="193" y="566"/>
    </contour>
  </outline>
</glyph>
<glyph name="plus" format="1">
  <advance width="581"/>
  <unicode hex="002B"/>
  <note>
    plus
  </note>
  <outline>
    <contour>
      <point x="310" y="354" type="line"/>
      <point x="310" y="579" type="line"/>
      <point x="270" y="579" type="line"/>
      <point x="270" y="354" type="line"/>
      <point x="56" y="354" type="line"/>
      <point x="56" y="317" type="line"/>
      <point x="270" y="317" type="line"/>
      <point x="270" y="90" type="line"/>
      <point x="310" y="90" type="line"/>
      <point x="310" y="317" type="line"/>
      <point x="525" y="317" type="line"/>
      <point x="525" y="354" type="line"/>
    </contour>
  </outline>
</glyph>
<glyph name="comma" format="1">
  <advance width="199"/>
  <unicode hex="002C"/>
  <note>
    comma
  </note>
  <outline>
    <contour>
      <point x="144" y="62"/>
      <point x="127" y="85"/>
      <point x="99" y="85" type="curve" smooth="yes"/>
      <point x="75" y="85"/>
      <point x="55" y="66"/>
      <point x="55" y="42" type="curve" smooth="yes"/>
      <point x="55" y="18"/>
      <point x="75" y="-2"/>
      <point x="99" y="-2" type="curve" smooth="yes"/>
      <point x="104" y="-2"/>
      <point x="109" y="-1"/>
      <point x="113" y="0" type="curve"/>
      <point x="112" y="-25"/>
      <point x="86" y="-77"/>
      <point x="62" y="-101" type="curve" smooth="yes"/>
      <point x="56" y="-107"/>
      <point x="55" y="-113"/>
      <point x="61" y="-119" type="curve"/>
      <point x="69" y="-126" type="line"/>
      <point x="112" y="-83"/>
      <point x="144" y="-31"/>
      <point x="144" y="32" type="curve" smooth="yes"/>
    </contour>
  </outline>
</glyph>
<glyph name="hyphen" format="1">
  <advance width="370"/>
  <unicode hex="002D"/>
  <note>
    hyphen
  </note>
  <outline>
    <contour>
      <point x="301" y="317" type="line"/>
      <point x="69" y="317" type="line"/>
      <point x="69" y="276" type="line"/>
      <point x="301" y="276" type="line"/>
    </contour>
  </outline>
</glyph>
<glyph name="period" format="1">
  <advance width="202"/>
  <unicode hex="002E"/>
  <note>
    period
  </note>
  <outline>
    <contour>
      <point x="101" y="-8" type="curve" smooth="yes"/>
      <point x="127" y="-8"/>
      <point x="147" y="13"/>
      <point x="147" y="39" type="curve" smooth="yes"/>
      <point x="147" y="64"/>
      <point x="127" y="85"/>
      <point x="101" y="85" type="curve" smooth="yes"/>
      <point x="75" y="85"/>
      <point x="55" y="64"/>
      <point x="55" y="39" type="curve" smooth="yes"/>
      <point x="55" y="13"/>
      <point x="75" y="-8"/>
    </contour>
  </outline>
</glyph>
<glyph name="slash" format="1">
  <advance width="413"/>
  <unicode hex="002F"/>
  <note>
    slash
  </note>
  <outline>
    <contour>
      <point x="75" y="-22" type="curve" smooth="yes"/>
      <point x="385" y="728" type="line"/>
      <point x="365" y="728" type="line" smooth="yes"/>
      <point x="352" y="728"/>
      <point x="343" y="721"/>
      <point x="338" y="709" type="curve" smooth="yes"/>
      <point x="27" y="-42" type="line"/>
      <point x="47" y="-42" type="line" smooth="yes"/>
      <point x="56" y="-42"/>
      <point x="69" y="-37"/>
    </contour>
  </outline>
</glyph>
<glyph name="zero" format="1">
  <advance width="590"/>
  <unicode hex="0030"/>
  <note>
    zero
  </note>
  <outline>
    <contour>
      <point x="549" y="354" type="curve" smooth="yes"/>
      <point x="549" y="553"/>
      <point x="468" y="716"/>
      <point x="295" y="716" type="curve" smooth="yes"/>
      <point x="119" y="716"/>
      <point x="41" y="550"/>
      <point x="41" y="354" type="curve" smooth="yes"/>
      <point x="41" y="153"/>
      <point x="122" y="-8"/>
      <point x="295" y="-8" type="curve" smooth="yes"/>
      <point x="469" y="-8"/>
      <point x="549" y="159"/>
    </contour>
    <contour>
      <point x="499" y="354" type="curve" smooth="yes"/>
      <point x="499" y="191"/>
      <point x="446" y="32"/>
      <point x="295" y="32" type="curve" smooth="yes"/>
      <point x="148" y="32"/>
      <point x="91" y="181"/>
      <point x="91" y="354" type="curve" smooth="yes"/>
      <point x="91" y="518"/>
      <point x="144" y="676"/>
      <point x="294" y="676" type="curve" smooth="yes"/>
      <point x="440" y="676"/>
      <point x="499" y="527"/>
    </contour>
  </outline>
</glyph>
<glyph name="one" format="1">
  <advance width="603"/>
  <unicode hex="0031"/>
  <note>
    one
  </note>
  <outline>
    <contour>
      <point x="134" y="0" type="line"/>
      <point x="499" y="0" type="line"/>
      <point x="499" y="16" type="line" smooth="yes"/>
      <point x="499" y="25"/>
      <point x="493" y="30"/>
      <point x="482" y="31" type="curve"/>
      <point x="344" y="38" type="line"/>
      <point x="344" y="710" type="line"/>
      <point x="307" y="710" type="line"/>
      <point x="103" y="530" type="line"/>
      <point x="117" y="510" type="line" smooth="yes"/>
      <point x="123" y="502"/>
      <point x="136" y="502"/>
      <point x="142" y="508" type="curve"/>
      <point x="298" y="647" type="line"/>
      <point x="296" y="38" type="line"/>
      <point x="150" y="31" type="line"/>
      <point x="139" y="30"/>
      <point x="134" y="25"/>
      <point x="134" y="16" type="curve" smooth="yes"/>
    </contour>
  </outline>
</glyph>
<glyph name="two" format="1">
  <advance width="600"/>
  <unicode hex="0032"/>
  <note>
    two
  </note>
  <outline>
    <contour>
      <point x="526" y="134" type="line"/>
      <point x="502" y="134" type="line" smooth="yes"/>
      <point x="488" y="134"/>
      <point x="482" y="126"/>
      <point x="481" y="110" type="curve"/>
      <point x="475" y="45" type="line"/>
      <point x="204" y="45" type="line" smooth="yes"/>
      <point x="187" y="45"/>
      <point x="155" y="42"/>
      <point x="136" y="37" type="curve"/>
      <point x="357" y="263" type="line" smooth="yes"/>
      <point x="446" y="356"/>
      <point x="510" y="422"/>
      <point x="510" y="525" type="curve" smooth="yes"/>
      <point x="510" y="640"/>
      <point x="431" y="715"/>
      <point x="307" y="715" type="curve" smooth="yes"/>
      <point x="189" y="715"/>
      <point x="104" y="647"/>
      <point x="88" y="524" type="curve"/>
      <point x="113" y="521" type="line" smooth="yes"/>
      <point x="127" y="519"/>
      <point x="134" y="525"/>
      <point x="137" y="537" type="curve"/>
      <point x="155" y="625"/>
      <point x="218" y="675"/>
      <point x="304" y="675" type="curve" smooth="yes"/>
      <point x="398" y="675"/>
      <point x="461" y="616"/>
      <point x="461" y="523" type="curve" smooth="yes"/>
      <point x="461" y="440"/>
      <point x="406" y="367"/>
      <point x="321" y="282" type="curve" smooth="yes"/>
      <point x="79" y="38" type="line" smooth="yes"/>
      <point x="74" y="32"/>
      <point x="70" y="24"/>
      <point x="70" y="16" type="curve" smooth="yes"/>
      <point x="70" y="0" type="line"/>
      <point x="526" y="0" type="line"/>
    </contour>
  </outline>
</glyph>
<glyph name="three" format="1">
  <advance width="628"/>
  <unicode hex="0033"/>
  <note>
    three
  </note>
  <outline>
    <contour>
      <point x="322" y="716" type="curve" smooth="yes"/>
      <point x="202" y="716"/>
      <point x="118" y="642"/>
      <point x="102" y="524" type="curve"/>
      <point x="132" y="520" type="line" smooth="yes"/>
      <point x="142" y="520"/>
      <point x="148" y="526"/>
      <point x="151" y="538" type="curve" smooth="yes"/>
      <point x="172" y="624"/>
      <point x="232" y="675"/>
      <point x="320" y="675" type="curve" smooth="yes"/>
      <point x="412" y="675"/>
      <point x="473" y="619"/>
      <point x="473" y="529" type="curve" smooth="yes"/>
      <point x="473" y="429"/>
      <point x="393" y="383"/>
      <point x="286" y="380" type="curve"/>
      <point x="286" y="346" type="line"/>
      <point x="405" y="346"/>
      <point x="490" y="307"/>
      <point x="490" y="193" type="curve" smooth="yes"/>
      <point x="490" y="103"/>
      <point x="411" y="32"/>
      <point x="310" y="32" type="curve" smooth="yes"/>
      <point x="215" y="32"/>
      <point x="160" y="77"/>
      <point x="128" y="171" type="curve" smooth="yes"/>
      <point x="123" y="184"/>
      <point x="108" y="185"/>
      <point x="98" y="181" type="curve"/>
      <point x="80" y="173" type="line"/>
      <point x="115" y="51"/>
      <point x="177" y="-8"/>
      <point x="310" y="-8" type="curve" smooth="yes"/>
      <point x="436" y="-8"/>
      <point x="538" y="76"/>
      <point x="538" y="194" type="curve" smooth="yes"/>
      <point x="538" y="292"/>
      <point x="479" y="350"/>
      <point x="380" y="369" type="curve"/>
      <point x="466" y="390"/>
      <point x="520" y="451"/>
      <point x="520" y="537" type="curve" smooth="yes"/>
      <point x="520" y="648"/>
      <point x="433" y="716"/>
    </contour>
  </outline>
</glyph>
<glyph name="four" format="1">
  <advance width="603"/>
  <unicode hex="0034"/>
  <note>
    four
  </note>
  <outline>
    <contour>
      <point x="560" y="241" type="line"/>
      <point x="431" y="241" type="line"/>
      <point x="431" y="708" type="line"/>
      <point x="388" y="708" type="line"/>
      <point x="33" y="238" type="line"/>
      <point x="37" y="215" type="line"/>
      <point x="39" y="206"/>
      <point x="46" y="203"/>
      <point x="54" y="203" type="curve" smooth="yes"/>
      <point x="387" y="203" type="line"/>
      <point x="387" y="0" type="line"/>
      <point x="431" y="0" type="line"/>
      <point x="431" y="203" type="line"/>
      <point x="547" y="203" type="line" smooth="yes"/>
      <point x="552" y="203"/>
      <point x="560" y="204"/>
      <point x="560" y="215" type="curve" smooth="yes"/>
    </contour>
    <contour>
      <point x="387" y="612" type="curve" smooth="yes"/>
      <point x="387" y="241" type="line"/>
      <point x="85" y="241" type="line"/>
      <point x="390" y="649" type="line"/>
      <point x="389" y="641"/>
      <point x="387" y="620"/>
    </contour>
  </outline>
</glyph>
<glyph name="five" format="1">
  <advance width="599"/>
  <unicode hex="0035"/>
  <note>
    five
  </note>
  <outline>
    <contour>
      <point x="490" y="687" type="curve" smooth="yes"/>
      <point x="490" y="708" type="line"/>
      <point x="172" y="708" type="line"/>
      <point x="116" y="394" type="line"/>
      <point x="147" y="384" type="line"/>
      <point x="185" y="395"/>
      <point x="239" y="404"/>
      <point x="275" y="404" type="curve" smooth="yes"/>
      <point x="390" y="404"/>
      <point x="460" y="343"/>
      <point x="460" y="230" type="curve" smooth="yes"/>
      <point x="460" y="114"/>
      <point x="382" y="34"/>
      <point x="266" y="34" type="curve" smooth="yes"/>
      <point x="223" y="34"/>
      <point x="164" y="51"/>
      <point x="128" y="74" type="curve" smooth="yes"/>
      <point x="114" y="83"/>
      <point x="101" y="86"/>
      <point x="92" y="73" type="curve"/>
      <point x="80" y="55" type="line"/>
      <point x="127" y="17"/>
      <point x="195" y="-8"/>
      <point x="264" y="-8" type="curve" smooth="yes"/>
      <point x="406" y="-8"/>
      <point x="508" y="91"/>
      <point x="508" y="232" type="curve" smooth="yes"/>
      <point x="508" y="362"/>
      <point x="422" y="444"/>
      <point x="284" y="444" type="curve" smooth="yes"/>
      <point x="249" y="444"/>
      <point x="196" y="437"/>
      <point x="163" y="428" type="curve"/>
      <point x="206" y="664" type="line"/>
      <point x="462" y="664" type="line" smooth="yes"/>
      <point x="478" y="664"/>
      <point x="490" y="671"/>
    </contour>
  </outline>
</glyph>
<glyph name="six" format="1">
  <advance width="594"/>
  <unicode hex="0036"/>
  <note>
    six
  </note>
  <outline>
    <contour>
      <point x="319" y="423" type="curve" smooth="yes"/>
      <point x="257" y="423"/>
      <point x="204" y="402"/>
      <point x="160" y="358" type="curve"/>
      <point x="184" y="399"/>
      <point x="193" y="407"/>
      <point x="212" y="432" type="curve" smooth="yes"/>
      <point x="423" y="708" type="line"/>
      <point x="381" y="708" type="line" smooth="yes"/>
      <point x="370" y="708"/>
      <point x="361" y="704"/>
      <point x="355" y="696" type="curve" smooth="yes"/>
      <point x="163" y="436" type="line" smooth="yes"/>
      <point x="114" y="370"/>
      <point x="73" y="300"/>
      <point x="73" y="225" type="curve" smooth="yes"/>
      <point x="73" y="85"/>
      <point x="157" y="-8"/>
      <point x="295" y="-8" type="curve" smooth="yes"/>
      <point x="429" y="-8"/>
      <point x="528" y="80"/>
      <point x="528" y="213" type="curve" smooth="yes"/>
      <point x="528" y="337"/>
      <point x="443" y="423"/>
    </contour>
    <contour>
      <point x="119" y="214" type="curve" smooth="yes"/>
      <point x="119" y="313"/>
      <point x="204" y="386"/>
      <point x="305" y="386" type="curve" smooth="yes"/>
      <point x="412" y="386"/>
      <point x="481" y="316"/>
      <point x="481" y="210" type="curve" smooth="yes"/>
      <point x="481" y="107"/>
      <point x="407" y="32"/>
      <point x="294" y="32" type="curve" smooth="yes"/>
      <point x="186" y="32"/>
      <point x="119" y="106"/>
    </contour>
  </outline>
</glyph>
<glyph name="seven" format="1">
  <advance width="598"/>
  <unicode hex="0037"/>
  <note>
    seven
  </note>
  <outline>
    <contour>
      <point x="554" y="708" type="line"/>
      <point x="84" y="707" type="line"/>
      <point x="84" y="573" type="line"/>
      <point x="108" y="573" type="line" smooth="yes"/>
      <point x="122" y="573"/>
      <point x="128" y="581"/>
      <point x="129" y="597" type="curve"/>
      <point x="133" y="664" type="line"/>
      <point x="504" y="664" type="line"/>
      <point x="163" y="0" type="line"/>
      <point x="195" y="0" type="line" smooth="yes"/>
      <point x="209" y="0"/>
      <point x="217" y="6"/>
      <point x="224" y="18" type="curve"/>
      <point x="548" y="661" type="line"/>
      <point x="551" y="666"/>
      <point x="554" y="679"/>
      <point x="554" y="686" type="curve" smooth="yes"/>
    </contour>
  </outline>
</glyph>
<glyph name="eight" format="1">
  <advance width="595"/>
  <unicode hex="0038"/>
  <note>
    eight
  </note>
  <outline>
    <contour>
      <point x="297" y="-8" type="curve" smooth="yes"/>
      <point x="427" y="-8"/>
      <point x="527" y="62"/>
      <point x="527" y="187" type="curve" smooth="yes"/>
      <point x="527" y="286"/>
      <point x="468" y="349"/>
      <point x="373" y="370" type="curve"/>
      <point x="452" y="391"/>
      <point x="502" y="454"/>
      <point x="502" y="535" type="curve" smooth="yes"/>
      <point x="502" y="646"/>
      <point x="412" y="716"/>
      <point x="298" y="716" type="curve" smooth="yes"/>
      <point x="180" y="716"/>
      <point x="93" y="645"/>
      <point x="93" y="535" type="curve" smooth="yes"/>
      <point x="93" y="455"/>
      <point x="137" y="394"/>
      <point x="222" y="370" type="curve"/>
      <point x="126" y="350"/>
      <point x="68" y="286"/>
      <point x="68" y="187" type="curve" smooth="yes"/>
      <point x="68" y="63"/>
      <point x="167" y="-8"/>
    </contour>
    <contour>
      <point x="298" y="30" type="curve" smooth="yes"/>
      <point x="192" y="30"/>
      <point x="116" y="89"/>
      <point x="116" y="188" type="curve" smooth="yes"/>
      <point x="116" y="292"/>
      <point x="191" y="348"/>
      <point x="297" y="348" type="curve" smooth="yes"/>
      <point x="404" y="348"/>
      <point x="478" y="291"/>
      <point x="478" y="188" type="curve" smooth="yes"/>
      <point x="478" y="89"/>
      <point x="401" y="30"/>
    </contour>
    <contour>
      <point x="297" y="387" type="curve" smooth="yes"/>
      <point x="203" y="387"/>
      <point x="139" y="445"/>
      <point x="139" y="534" type="curve" smooth="yes"/>
      <point x="139" y="619"/>
      <point x="202" y="678"/>
      <point x="297" y="678" type="curve" smooth="yes"/>
      <point x="390" y="678"/>
      <point x="455" y="622"/>
      <point x="455" y="534" type="curve" smooth="yes"/>
      <point x="455" y="442"/>
      <point x="390" y="387"/>
    </contour>
  </outline>
</glyph>
<glyph name="nine" format="1">
  <advance width="578"/>
  <unicode hex="0039"/>
  <note>
    nine
  </note>
  <outline>
    <contour>
      <point x="266" y="301" type="curve" smooth="yes"/>
      <point x="327" y="301"/>
      <point x="385" y="324"/>
      <point x="425" y="368" type="curve"/>
      <point x="421" y="361"/>
      <point x="392" y="319"/>
      <point x="373" y="292" type="curve" smooth="yes"/>
      <point x="165" y="0" type="line"/>
      <point x="207" y="0" type="line" smooth="yes"/>
      <point x="218" y="0"/>
      <point x="227" y="4"/>
      <point x="232" y="12" type="curve"/>
      <point x="417" y="284" type="line" smooth="yes"/>
      <point x="467" y="355"/>
      <point x="504" y="421"/>
      <point x="504" y="494" type="curve" smooth="yes"/>
      <point x="504" y="622"/>
      <point x="417" y="716"/>
      <point x="291" y="716" type="curve" smooth="yes"/>
      <point x="166" y="716"/>
      <point x="65" y="626"/>
      <point x="65" y="503" type="curve" smooth="yes"/>
      <point x="65" y="388"/>
      <point x="143" y="301"/>
    </contour>
    <contour>
      <point x="458" y="502" type="curve" smooth="yes"/>
      <point x="458" y="411"/>
      <point x="381" y="338"/>
      <point x="279" y="338" type="curve" smooth="yes"/>
      <point x="178" y="338"/>
      <point x="113" y="405"/>
      <point x="113" y="506" type="curve" smooth="yes"/>
      <point x="113" y="604"/>
      <point x="183" y="676"/>
      <point x="290" y="676" type="curve" smooth="yes"/>
      <point x="390" y="676"/>
      <point x="458" y="602"/>
    </contour>
  </outline>
</glyph>
<glyph name="colon" format="1">
  <advance width="203"/>
  <unicode hex="003A"/>
  <note>
    colon
  </note>
  <outline>
    <contour>
      <point x="102" y="391" type="curve" smooth="yes"/>
      <point x="127" y="391"/>
      <point x="148" y="412"/>
      <point x="148" y="438" type="curve" smooth="yes"/>
      <point x="148" y="463"/>
      <point x="127" y="484"/>
      <point x="102" y="484" type="curve" smooth="yes"/>
      <point x="76" y="484"/>
      <point x="55" y="463"/>
      <point x="55" y="438" type="curve" smooth="yes"/>
      <point x="55" y="412"/>
      <point x="76" y="391"/>
    </contour>
    <contour>
      <point x="102" y="-8" type="curve" smooth="yes"/>
      <point x="127" y="-8"/>
      <point x="148" y="13"/>
      <point x="148" y="39" type="curve" smooth="yes"/>
      <point x="148" y="64"/>
      <point x="127" y="85"/>
      <point x="102" y="85" type="curve" smooth="yes"/>
      <point x="76" y="85"/>
      <point x="55" y="64"/>
      <point x="55" y="39" type="curve" smooth="yes"/>
      <point x="55" y="13"/>
      <point x="76" y="-8"/>
    </contour>
  </outline>
</glyph>
<glyph name="semicolon" format="1">
  <advance width="203"/>
  <unicode hex="003B"/>
  <note>
    semicolon
  </note>
  <outline>
    <contour>
      <point x="102" y="390" type="curve" smooth="yes"/>
      <point x="127" y="390"/>
      <point x="148" y="411"/>
      <point x="148" y="437" type="curve" smooth="yes"/>
      <point x="148" y="462"/>
      <point x="127" y="483"/>
      <point x="102" y="483" type="curve" smooth="yes"/>
      <point x="76" y="483"/>
      <point x="55" y="462"/>
      <point x="55" y="437" type="curve" smooth="yes"/>
      <point x="55" y="411"/>
      <point x="76" y="390"/>
    </contour>
    <contour>
      <point x="148" y="62"/>
      <point x="131" y="85"/>
      <point x="103" y="85" type="curve" smooth="yes"/>
      <point x="79" y="85"/>
      <point x="59" y="66"/>
      <point x="59" y="42" type="curve" smooth="yes"/>
      <point x="59" y="18"/>
      <point x="79" y="-2"/>
      <point x="103" y="-2" type="curve" smooth="yes"/>
      <point x="108" y="-2"/>
      <point x="113" y="-1"/>
      <point x="117" y="0" type="curve"/>
      <point x="116" y="-25"/>
      <point x="90" y="-77"/>
      <point x="66" y="-101" type="curve" smooth="yes"/>
      <point x="60" y="-107"/>
      <point x="59" y="-113"/>
      <point x="65" y="-119" type="curve"/>
      <point x="73" y="-126" type="line"/>
      <point x="116" y="-83"/>
      <point x="148" y="-31"/>
      <point x="148" y="32" type="curve" smooth="yes"/>
    </contour>
  </outline>
</glyph>
<glyph name="less" format="1">
  <advance width="512"/>
  <unicode hex="003C"/>
  <note>
    less
  </note>
  <outline>
    <contour>
      <point x="410" y="538" type="line"/>
      <point x="34" y="346" type="line"/>
      <point x="34" y="326" type="line"/>
      <point x="410" y="132" type="line"/>
      <point x="410" y="165" type="line" smooth="yes"/>
      <point x="410" y="169"/>
      <point x="407" y="175"/>
      <point x="396" y="182" type="curve"/>
      <point x="120" y="323" type="line" smooth="yes"/>
      <point x="110" y="328"/>
      <point x="98" y="332"/>
      <point x="84" y="335" type="curve"/>
      <point x="97" y="338"/>
      <point x="109" y="342"/>
      <point x="120" y="348" type="curve" smooth="yes"/>
      <point x="396" y="488" type="line"/>
      <point x="400" y="490"/>
      <point x="410" y="496"/>
      <point x="410" y="506" type="curve" smooth="yes"/>
    </contour>
  </outline>
</glyph>
<glyph name="greater" format="1">
  <advance width="459"/>
  <unicode hex="003E"/>
  <note>
    greater
  </note>
  <outline>
    <contour>
      <point x="51" y="165" type="curve" smooth="yes"/>
      <point x="51" y="132" type="line"/>
      <point x="425" y="326" type="line"/>
      <point x="425" y="346" type="line"/>
      <point x="51" y="538" type="line"/>
      <point x="51" y="506" type="line" smooth="yes"/>
      <point x="51" y="499"/>
      <point x="54" y="493"/>
      <point x="63" y="488" type="curve"/>
      <point x="341" y="348" type="line" smooth="yes"/>
      <point x="352" y="342"/>
      <point x="364" y="339"/>
      <point x="376" y="336" type="curve"/>
      <point x="363" y="333"/>
      <point x="351" y="328"/>
      <point x="341" y="323" type="curve" smooth="yes"/>
      <point x="63" y="183" type="line"/>
      <point x="56" y="179"/>
      <point x="51" y="174"/>
    </contour>
  </outline>
</glyph>
<glyph name="question" format="1">
  <advance width="408"/>
  <unicode hex="003F"/>
  <note>
    question
  </note>
  <outline>
    <contour>
      <point x="35" y="646" type="curve"/>
      <point x="45" y="632" type="line"/>
      <point x="52" y="622"/>
      <point x="63" y="624"/>
      <point x="71" y="629" type="curve" smooth="yes"/>
      <point x="104" y="650"/>
      <point x="146" y="676"/>
      <point x="195" y="676" type="curve" smooth="yes"/>
      <point x="264" y="676"/>
      <point x="325" y="635"/>
      <point x="325" y="562" type="curve" smooth="yes"/>
      <point x="325" y="507"/>
      <point x="293" y="461"/>
      <point x="245" y="427" type="curve" smooth="yes"/>
      <point x="202" y="397"/>
      <point x="165" y="368"/>
      <point x="165" y="331" type="curve" smooth="yes"/>
      <point x="167" y="243" type="line"/>
      <point x="199" y="243" type="line"/>
      <point x="205" y="325" type="line" smooth="yes"/>
      <point x="208" y="355"/>
      <point x="236" y="372"/>
      <point x="289" y="414" type="curve"/>
      <point x="341" y="451"/>
      <point x="370" y="502"/>
      <point x="370" y="564" type="curve" smooth="yes"/>
      <point x="370" y="654"/>
      <point x="292" y="716"/>
      <point x="199" y="716" type="curve" smooth="yes"/>
      <point x="141" y="716"/>
      <point x="81" y="692"/>
    </contour>
    <contour>
      <point x="182" y="-8" type="curve" smooth="yes"/>
      <point x="208" y="-8"/>
      <point x="228" y="13"/>
      <point x="228" y="39" type="curve" smooth="yes"/>
      <point x="228" y="64"/>
      <point x="208" y="85"/>
      <point x="182" y="85" type="curve" smooth="yes"/>
      <point x="156" y="85"/>
      <point x="136" y="64"/>
      <point x="136" y="39" type="curve" smooth="yes"/>
      <point x="136" y="13"/>
      <point x="156" y="-8"/>
    </contour>
  </outline>
</glyph>
<glyph name="A" format="1">
  <advance width="741"/>
  <unicode hex="0041"/>
  <note>
    A
  </note>
  <outline>
    <contour>
      <point x="52" y="0" type="line"/>
      <point x="108" y="0" type="line"/>
      <point x="198" y="232" type="line"/>
      <point x="540" y="232" type="line"/>
      <point x="630" y="0" type="line"/>
      <point x="686" y="0" type="line"/>
      <point x="396" y="708" type="line"/>
      <point x="369" y="708" type="line"/>
      <point x="342" y="708" type="line"/>
    </contour>
    <contour>
      <point x="214" y="270" type="line"/>
      <point x="353" y="614" type="line"/>
      <point x="369" y="659" type="line"/>
      <point x="385" y="614" type="line"/>
      <point x="524" y="270" type="line"/>
    </contour>
    <component base="SerfiBottomSymmetrical" xOffset="73"/>
    <component base="SerfiBottomSymmetrical" xOffset="621"/>
    <contour>
      <point x="368" y="0" type="move" name="bottom"/>
    </contour>
    <contour>
      <point x="741" y="10" type="move" name="ogonek"/>
    </contour>
    <contour>
      <point x="368" y="708" type="move" name="top"/>
    </contour>
  </outline>
</glyph>
<glyph name="B" format="1">
  <advance width="655"/>
  <unicode hex="0042"/>
  <note>
    B
  </note>
  <outline>
    <contour>
      <point x="143" y="0" type="line"/>
      <point x="372" y="0" type="line" smooth="yes"/>
      <point x="472" y="0"/>
      <point x="559" y="32"/>
      <point x="595" y="112" type="curve" smooth="yes"/>
      <point x="606" y="136"/>
      <point x="611" y="163"/>
      <point x="611" y="193" type="curve" smooth="yes"/>
      <point x="611" y="293"/>
      <point x="542" y="347"/>
      <point x="437" y="362" type="curve"/>
      <point x="521" y="384"/>
      <point x="582" y="446"/>
      <point x="582" y="528" type="curve" smooth="yes"/>
      <point x="582" y="611"/>
      <point x="539" y="673"/>
      <point x="451" y="696" type="curve" smooth="yes"/>
      <point x="421" y="704"/>
      <point x="386" y="708"/>
      <point x="346" y="708" type="curve" smooth="yes"/>
      <point x="143" y="708" type="line"/>
    </contour>
    <contour>
      <point x="194" y="41" type="line"/>
      <point x="194" y="339" type="line"/>
      <point x="372" y="339" type="line" smooth="yes"/>
      <point x="477" y="339"/>
      <point x="560" y="292"/>
      <point x="560" y="194" type="curve" smooth="yes"/>
      <point x="560" y="91"/>
      <point x="488" y="41"/>
      <point x="371" y="41" type="curve" smooth="yes"/>
    </contour>
    <contour>
      <point x="194" y="376" type="line"/>
      <point x="194" y="668" type="line"/>
      <point x="346" y="668" type="line" smooth="yes"/>
      <point x="459" y="668"/>
      <point x="531" y="628"/>
      <point x="531" y="523" type="curve" smooth="yes"/>
      <point x="531" y="430"/>
      <point x="453" y="376"/>
      <point x="347" y="376" type="curve" smooth="yes"/>
    </contour>
    <component base="SerfiBottomSymmetrical" xScale="-1" yScale="-1" xOffset="177" yOffset="708"/>
    <component base="SerfiBottomSymmetrical" xOffset="131"/>
    <contour>
      <point x="327" y="708" type="move" name="top"/>
    </contour>
  </outline>
</glyph>
<glyph name="C" format="1">
  <advance width="675"/>
  <unicode hex="0043"/>
  <note>
    C
  </note>
  <outline>
    <contour>
      <point x="620" y="665" type="line"/>
      <point x="536" y="699"/>
      <point x="460" y="715"/>
      <point x="394" y="715" type="curve" smooth="yes"/>
      <point x="188" y="715"/>
      <point x="48" y="569"/>
      <point x="48" y="354" type="curve" smooth="yes"/>
      <point x="48" y="146"/>
      <point x="177" y="-8"/>
      <point x="380" y="-8" type="curve" smooth="yes"/>
      <point x="479" y="-8"/>
      <point x="566" y="24"/>
      <point x="633" y="94" type="curve"/>
      <point x="613" y="115" type="line" smooth="yes"/>
      <point x="607" y="121"/>
      <point x="601" y="119"/>
      <point x="595" y="114" type="curve"/>
      <point x="534" y="58"/>
      <point x="469" y="36"/>
      <point x="384" y="36" type="curve" smooth="yes"/>
      <point x="211" y="36"/>
      <point x="101" y="166"/>
      <point x="101" y="354" type="curve" smooth="yes"/>
      <point x="101" y="539"/>
      <point x="213" y="671"/>
      <point x="394" y="671" type="curve" smooth="yes"/>
      <point x="460" y="671"/>
      <point x="523" y="657"/>
      <point x="603" y="624" type="curve"/>
    </contour>
    <component base="SerifUpLeft" xScale="-1" yScale="-1" xOffset="620" yOffset="665"/>
    <contour>
      <point x="333" y="0" type="move" name="bottom"/>
    </contour>
    <contour>
      <point x="394" y="708" type="move" name="top"/>
    </contour>
  </outline>
</glyph>
<glyph name="D" format="1">
  <advance width="774"/>
  <unicode hex="0044"/>
  <note>
    D
  </note>
  <outline>
    <contour>
      <point x="726" y="354" type="curve" smooth="yes"/>
      <point x="726" y="560"/>
      <point x="598" y="708"/>
      <point x="388" y="708" type="curve" smooth="yes"/>
      <point x="58" y="708" type="line"/>
      <point x="58" y="689" type="line" smooth="yes"/>
      <point x="58" y="678"/>
      <point x="65" y="672"/>
      <point x="78" y="671" type="curve"/>
      <point x="143" y="669" type="line"/>
      <point x="143" y="40" type="line"/>
      <point x="78" y="38" type="line"/>
      <point x="65" y="37"/>
      <point x="58" y="31"/>
      <point x="58" y="20" type="curve" smooth="yes"/>
      <point x="58" y="0" type="line"/>
      <point x="143" y="0" type="line"/>
      <point x="388" y="0" type="line" smooth="yes"/>
      <point x="598" y="0"/>
      <point x="726" y="145"/>
    </contour>
    <contour>
      <point x="673" y="354" type="curve" smooth="yes"/>
      <point x="673" y="171"/>
      <point x="573" y="41"/>
      <point x="388" y="41" type="curve" smooth="yes"/>
      <point x="194" y="41" type="line"/>
      <point x="194" y="667" type="line"/>
      <point x="388" y="667" type="line" smooth="yes"/>
      <point x="570" y="667"/>
      <point x="673" y="539"/>
    </contour>
    <contour>
      <point x="388" y="0" type="move" name="bottom"/>
    </contour>
    <contour>
      <point x="388" y="354" type="move" name="center"/>
    </contour>
    <contour>
      <point x="388" y="708" type="move" name="top"/>
    </contour>
  </outline>
</glyph>
<glyph name="E" format="1">
  <advance width="615"/>
  <unicode hex="0045"/>
  <note>
    E
  </note>
  <outline>
    <contour>
      <point x="567" y="708" type="line"/>
      <point x="58" y="708" type="line"/>
      <point x="58" y="689" type="line" smooth="yes"/>
      <point x="58" y="678"/>
      <point x="65" y="672"/>
      <point x="78" y="671" type="curve"/>
      <point x="143" y="669" type="line"/>
      <point x="143" y="40" type="line"/>
      <point x="78" y="38" type="line"/>
      <point x="65" y="37"/>
      <point x="59" y="31"/>
      <point x="59" y="20" type="curve" smooth="yes"/>
      <point x="59" y="0" type="line"/>
      <point x="567" y="0" type="line"/>
      <point x="567" y="147" type="line"/>
      <point x="542" y="147" type="line" smooth="yes"/>
      <point x="528" y="147"/>
      <point x="522" y="138"/>
      <point x="521" y="122" type="curve"/>
      <point x="517" y="43" type="line"/>
      <point x="194" y="43" type="line"/>
      <point x="194" y="338" type="line"/>
      <point x="476" y="338" type="line"/>
      <point x="476" y="379" type="line"/>
      <point x="194" y="379" type="line"/>
      <point x="194" y="666" type="line"/>
      <point x="517" y="666" type="line"/>
      <point x="521" y="586" type="line"/>
      <point x="522" y="570"/>
      <point x="528" y="562"/>
      <point x="542" y="562" type="curve" smooth="yes"/>
      <point x="567" y="562" type="line"/>
    </contour>
    <contour>
      <point x="319" y="0" type="move" name="bottom"/>
    </contour>
    <contour>
      <point x="568" y="10" type="move" name="ogonek"/>
    </contour>
    <contour>
      <point x="319" y="708" type="move" name="top"/>
    </contour>
  </outline>
</glyph>
<glyph name="F" format="1">
  <advance width="606"/>
  <unicode hex="0046"/>
  <note>
    F
  </note>
  <outline>
    <contour>
      <point x="573" y="708" type="line"/>
      <point x="58" y="708" type="line"/>
      <point x="58" y="689" type="line" smooth="yes"/>
      <point x="58" y="678"/>
      <point x="65" y="672"/>
      <point x="78" y="671" type="curve"/>
      <point x="143" y="669" type="line"/>
      <point x="143" y="40" type="line"/>
      <point x="78" y="38" type="line"/>
      <point x="65" y="37"/>
      <point x="58" y="31"/>
      <point x="58" y="20" type="curve" smooth="yes"/>
      <point x="58" y="0" type="line"/>
      <point x="278" y="0" type="line"/>
      <point x="278" y="20" type="line" smooth="yes"/>
      <point x="278" y="31"/>
      <point x="272" y="37"/>
      <point x="259" y="38" type="curve"/>
      <point x="194" y="40" type="line"/>
      <point x="194" y="325" type="line"/>
      <point x="458" y="325" type="line"/>
      <point x="458" y="368" type="line"/>
      <point x="194" y="368" type="line"/>
      <point x="194" y="666" type="line"/>
      <point x="523" y="666" type="line"/>
      <point x="527" y="586" type="line"/>
      <point x="528" y="570"/>
      <point x="535" y="562"/>
      <point x="549" y="562" type="curve" smooth="yes"/>
      <point x="573" y="562" type="line"/>
    </contour>
    <contour>
      <point x="306" y="0" type="move" name="bottom"/>
    </contour>
    <contour>
      <point x="306" y="708" type="move" name="top"/>
    </contour>
  </outline>
</glyph>
<glyph name="G" format="1">
  <advance width="736"/>
  <unicode hex="0047"/>
  <note>
    G
  </note>
  <outline>
    <contour>
      <point x="659" y="321" type="line"/>
      <point x="464" y="321" type="line"/>
      <point x="464" y="293" type="line" smooth="yes"/>
      <point x="464" y="290"/>
      <point x="467" y="282"/>
      <point x="477" y="282" type="curve" smooth="yes"/>
      <point x="613" y="282" type="line"/>
      <point x="613" y="91" type="line"/>
      <point x="537" y="48"/>
      <point x="482" y="34"/>
      <point x="395" y="34" type="curve" smooth="yes"/>
      <point x="210" y="34"/>
      <point x="100" y="166"/>
      <point x="100" y="354" type="curve" smooth="yes"/>
      <point x="100" y="540"/>
      <point x="211" y="671"/>
      <point x="401" y="671" type="curve" smooth="yes"/>
      <point x="485" y="671"/>
      <point x="552" y="660"/>
      <point x="601" y="637" type="curve"/>
      <point x="606" y="529" type="line"/>
      <point x="607" y="513"/>
      <point x="614" y="505"/>
      <point x="628" y="505" type="curve" smooth="yes"/>
      <point x="652" y="505" type="line"/>
      <point x="652" y="665" type="line"/>
      <point x="591" y="693"/>
      <point x="479" y="715"/>
      <point x="403" y="715" type="curve" smooth="yes"/>
      <point x="184" y="715"/>
      <point x="48" y="573"/>
      <point x="48" y="354" type="curve" smooth="yes"/>
      <point x="48" y="140"/>
      <point x="183" y="-8"/>
      <point x="391" y="-8" type="curve" smooth="yes"/>
      <point x="499" y="-8"/>
      <point x="573" y="13"/>
      <point x="659" y="70" type="curve"/>
    </contour>
    <contour>
      <point x="360" y="0" type="move" name="bottom"/>
    </contour>
    <contour>
      <point x="386" y="708" type="move" name="top"/>
    </contour>
  </outline>
</glyph>
<glyph name="H" format="1">
  <advance width="831"/>
  <unicode hex="0048"/>
  <note>
    H
  </note>
  <outline>
    <contour>
      <point x="689" y="669" type="line"/>
      <point x="753" y="671" type="line"/>
      <point x="766" y="672"/>
      <point x="773" y="678"/>
      <point x="773" y="689" type="curve" smooth="yes"/>
      <point x="773" y="708" type="line"/>
      <point x="553" y="708" type="line"/>
      <point x="553" y="689" type="line" smooth="yes"/>
      <point x="553" y="678"/>
      <point x="560" y="672"/>
      <point x="573" y="671" type="curve"/>
      <point x="637" y="669" type="line"/>
      <point x="637" y="378" type="line"/>
      <point x="194" y="378" type="line"/>
      <point x="194" y="669" type="line"/>
      <point x="259" y="671" type="line"/>
      <point x="272" y="672"/>
      <point x="278" y="678"/>
      <point x="278" y="689" type="curve" smooth="yes"/>
      <point x="278" y="708" type="line"/>
      <point x="58" y="708" type="line"/>
      <point x="58" y="689" type="line" smooth="yes"/>
      <point x="58" y="678"/>
      <point x="65" y="672"/>
      <point x="78" y="671" type="curve"/>
      <point x="143" y="669" type="line"/>
      <point x="143" y="40" type="line"/>
      <point x="78" y="38" type="line"/>
      <point x="65" y="37"/>
      <point x="58" y="31"/>
      <point x="58" y="20" type="curve" smooth="yes"/>
      <point x="58" y="0" type="line"/>
      <point x="278" y="0" type="line"/>
      <point x="278" y="20" type="line" smooth="yes"/>
      <point x="278" y="31"/>
      <point x="272" y="37"/>
      <point x="259" y="38" type="curve"/>
      <point x="194" y="40" type="line"/>
      <point x="194" y="339" type="line"/>
      <point x="637" y="339" type="line"/>
      <point x="637" y="40" type="line"/>
      <point x="573" y="38" type="line"/>
      <point x="560" y="37"/>
      <point x="553" y="31"/>
      <point x="553" y="20" type="curve" smooth="yes"/>
      <point x="553" y="0" type="line"/>
      <point x="773" y="0" type="line"/>
      <point x="773" y="20" type="line" smooth="yes"/>
      <point x="773" y="31"/>
      <point x="766" y="37"/>
      <point x="753" y="38" type="curve"/>
      <point x="689" y="40" type="line"/>
    </contour>
    <contour>
      <point x="414" y="0" type="move" name="bottom"/>
    </contour>
    <contour>
      <point x="414" y="354" type="move" name="center"/>
    </contour>
    <contour>
      <point x="414" y="708" type="move" name="top"/>
    </contour>
  </outline>
</glyph>
<glyph name="I" format="1">
  <advance width="336"/>
  <unicode hex="0049"/>
  <note>
    I
  </note>
  <outline>
    <contour>
      <point x="194" y="668" type="line"/>
      <point x="259" y="670" type="line"/>
      <point x="272" y="671"/>
      <point x="278" y="677"/>
      <point x="278" y="688" type="curve" smooth="yes"/>
      <point x="278" y="708" type="line"/>
      <point x="58" y="708" type="line"/>
      <point x="58" y="688" type="line" smooth="yes"/>
      <point x="58" y="677"/>
      <point x="65" y="671"/>
      <point x="78" y="670" type="curve"/>
      <point x="143" y="668" type="line"/>
      <point x="143" y="40" type="line"/>
      <point x="78" y="38" type="line"/>
      <point x="65" y="37"/>
      <point x="58" y="31"/>
      <point x="58" y="20" type="curve" smooth="yes"/>
      <point x="58" y="0" type="line"/>
      <point x="278" y="0" type="line"/>
      <point x="278" y="20" type="line" smooth="yes"/>
      <point x="278" y="31"/>
      <point x="272" y="37"/>
      <point x="259" y="38" type="curve"/>
      <point x="194" y="40" type="line"/>
    </contour>
    <contour>
      <point x="166" y="0" type="move" name="bottom"/>
    </contour>
    <contour>
      <point x="259" y="10" type="move" name="ogonek"/>
    </contour>
    <contour>
      <point x="166" y="708" type="move" name="top"/>
    </contour>
  </outline>
</glyph>
<glyph name="J" format="1">
  <advance width="416"/>
  <unicode hex="004A"/>
  <note>
    J
  </note>
  <outline>
    <contour>
      <point x="390" y="708" type="line"/>
      <point x="162" y="708" type="line"/>
      <point x="162" y="688" type="line" smooth="yes"/>
      <point x="162" y="677"/>
      <point x="169" y="671"/>
      <point x="182" y="670" type="curve"/>
      <point x="254" y="668" type="line"/>
      <point x="254" y="235" type="line" smooth="yes"/>
      <point x="254" y="112"/>
      <point x="202" y="35"/>
      <point x="90" y="35" type="curve" smooth="yes"/>
      <point x="74" y="35"/>
      <point x="49" y="39"/>
      <point x="28" y="44" type="curve" smooth="yes"/>
      <point x="13" y="47"/>
      <point x="10" y="45"/>
      <point x="6" y="29" type="curve"/>
      <point x="1" y="7" type="line"/>
      <point x="28" y="-1"/>
      <point x="67" y="-8"/>
      <point x="94" y="-8" type="curve" smooth="yes"/>
      <point x="231" y="-8"/>
      <point x="305" y="85"/>
      <point x="305" y="236" type="curve" smooth="yes"/>
      <point x="305" y="668" type="line"/>
      <point x="370" y="670" type="line"/>
      <point x="383" y="671"/>
      <point x="390" y="677"/>
      <point x="390" y="688" type="curve" smooth="yes"/>
    </contour>
    <contour>
      <point x="188" y="0" type="move" name="bottom"/>
    </contour>
    <contour>
      <point x="279" y="708" type="move" name="top"/>
    </contour>
  </outline>
</glyph>
<glyph name="K" format="1">
  <advance width="686"/>
  <unicode hex="004B"/>
  <note>
    K
  </note>
  <outline>
    <contour>
      <point x="665" y="38" type="curve"/>
      <point x="626" y="39" type="line"/>
      <point x="338" y="340" type="line"/>
      <point x="329" y="350"/>
      <point x="318" y="360"/>
      <point x="302" y="365" type="curve"/>
      <point x="309" y="367"/>
      <point x="324" y="377"/>
      <point x="335" y="390" type="curve"/>
      <point x="606" y="669" type="line"/>
      <point x="644" y="670" type="line"/>
      <point x="657" y="671"/>
      <point x="664" y="677"/>
      <point x="664" y="688" type="curve" smooth="yes"/>
      <point x="664" y="708" type="line"/>
      <point x="456" y="708" type="line"/>
      <point x="456" y="688" type="line" smooth="yes"/>
      <point x="456" y="677"/>
      <point x="463" y="671"/>
      <point x="476" y="670" type="curve"/>
      <point x="548" y="669" type="line"/>
      <point x="286" y="400" type="line" smooth="yes"/>
      <point x="272" y="386"/>
      <point x="262" y="381"/>
      <point x="235" y="381" type="curve" smooth="yes"/>
      <point x="193" y="381" type="line"/>
      <point x="193" y="669" type="line"/>
      <point x="258" y="671" type="line"/>
      <point x="271" y="672"/>
      <point x="277" y="678"/>
      <point x="277" y="689" type="curve" smooth="yes"/>
      <point x="277" y="708" type="line"/>
      <point x="58" y="708" type="line"/>
      <point x="58" y="689" type="line" smooth="yes"/>
      <point x="58" y="678"/>
      <point x="65" y="672"/>
      <point x="78" y="671" type="curve"/>
      <point x="142" y="669" type="line"/>
      <point x="142" y="40" type="line"/>
      <point x="78" y="38" type="line"/>
      <point x="65" y="37"/>
      <point x="58" y="31"/>
      <point x="58" y="20" type="curve" smooth="yes"/>
      <point x="58" y="0" type="line"/>
      <point x="277" y="0" type="line"/>
      <point x="277" y="20" type="line" smooth="yes"/>
      <point x="277" y="31"/>
      <point x="271" y="37"/>
      <point x="258" y="38" type="curve"/>
      <point x="193" y="40" type="line"/>
      <point x="193" y="341" type="line"/>
      <point x="239" y="341" type="line" smooth="yes"/>
      <point x="260" y="341"/>
      <point x="274" y="339"/>
      <point x="293" y="320" type="curve" smooth="yes"/>
      <point x="568" y="39" type="line"/>
      <point x="492" y="38" type="line"/>
      <point x="479" y="37"/>
      <point x="472" y="31"/>
      <point x="472" y="20" type="curve" smooth="yes"/>
      <point x="472" y="0" type="line"/>
      <point x="685" y="0" type="line"/>
      <point x="685" y="20" type="line" smooth="yes"/>
      <point x="685" y="31"/>
      <point x="678" y="37"/>
    </contour>
    <contour>
      <point x="367" y="0" type="move" name="bottom"/>
    </contour>
    <contour>
      <point x="367" y="708" type="move" name="top"/>
    </contour>
  </outline>
</glyph>
<glyph name="L" format="1">
  <advance width="556"/>
  <unicode hex="004C"/>
  <note>
    L
  </note>
  <outline>
    <contour>
      <point x="143" y="0" type="line"/>
      <point x="538" y="0" type="line"/>
      <point x="538" y="44" type="line"/>
      <point x="194" y="44" type="line"/>
      <point x="194" y="708" type="line"/>
      <point x="143" y="708" type="line"/>
    </contour>
    <contour>
      <point x="538" y="0" type="line"/>
      <point x="538" y="131" type="line"/>
      <point x="514" y="131" type="line" smooth="yes"/>
      <point x="500" y="131"/>
      <point x="494" y="122"/>
      <point x="493" y="106" type="curve"/>
      <point x="486" y="21" type="line"/>
    </contour>
    <contour>
      <point x="156" y="668" type="line"/>
      <point x="183" y="668" type="line"/>
      <point x="259" y="670" type="line"/>
      <point x="271" y="671"/>
      <point x="278" y="675"/>
      <point x="278" y="688" type="curve" smooth="yes"/>
      <point x="278" y="708" type="line" smooth="yes"/>
      <point x="58" y="708" type="line"/>
      <point x="58" y="688" type="line" smooth="yes"/>
      <point x="58" y="675"/>
      <point x="65" y="671"/>
      <point x="77" y="670" type="curve"/>
    </contour>
    <component base="SerfiBottomSymmetrical" xOffset="130"/>
    <contour>
      <point x="299" y="0" type="move" name="bottom"/>
    </contour>
    <contour>
      <point x="299" y="354" type="move" name="center"/>
    </contour>
    <contour>
      <point x="171" y="708" type="move" name="top"/>
    </contour>
    <contour>
      <point x="299" y="498" type="move" name="topright"/>
    </contour>
  </outline>
</glyph>
<glyph name="M" format="1">
  <advance width="984"/>
  <unicode hex="004D"/>
  <note>
    M
  </note>
  <outline>
    <contour>
      <point x="842" y="669" type="line"/>
      <point x="906" y="671" type="line"/>
      <point x="919" y="672"/>
      <point x="926" y="678"/>
      <point x="926" y="689" type="curve" smooth="yes"/>
      <point x="926" y="708" type="line"/>
      <point x="842" y="708" type="line"/>
      <point x="806" y="708" type="line" smooth="yes"/>
      <point x="795" y="708"/>
      <point x="793" y="707"/>
      <point x="787" y="699" type="curve"/>
      <point x="509" y="207" type="line" smooth="yes"/>
      <point x="509" y="207"/>
      <point x="500" y="187"/>
      <point x="496" y="176" type="curve"/>
      <point x="492" y="187"/>
      <point x="488" y="197"/>
      <point x="483" y="206" type="curve" smooth="yes"/>
      <point x="197" y="699" type="line"/>
      <point x="191" y="708"/>
      <point x="189" y="708"/>
      <point x="178" y="708" type="curve" smooth="yes"/>
      <point x="143" y="708" type="line"/>
      <point x="58" y="708" type="line"/>
      <point x="58" y="689" type="line" smooth="yes"/>
      <point x="58" y="678"/>
      <point x="65" y="672"/>
      <point x="78" y="671" type="curve"/>
      <point x="143" y="669" type="line"/>
      <point x="143" y="40" type="line"/>
      <point x="78" y="38" type="line"/>
      <point x="65" y="37"/>
      <point x="58" y="31"/>
      <point x="58" y="20" type="curve" smooth="yes"/>
      <point x="58" y="0" type="line"/>
      <point x="274" y="0" type="line"/>
      <point x="274" y="20" type="line" smooth="yes"/>
      <point x="274" y="31"/>
      <point x="267" y="37"/>
      <point x="254" y="38" type="curve"/>
      <point x="187" y="40" type="line"/>
      <point x="187" y="604" type="line" smooth="yes"/>
      <point x="187" y="613"/>
      <point x="187" y="622"/>
      <point x="186" y="632" type="curve"/>
      <point x="472" y="136" type="line" smooth="yes"/>
      <point x="477" y="127"/>
      <point x="484" y="123"/>
      <point x="492" y="123" type="curve" smooth="yes"/>
      <point x="500" y="123" type="line" smooth="yes"/>
      <point x="509" y="123"/>
      <point x="515" y="127"/>
      <point x="520" y="136" type="curve" smooth="yes"/>
      <point x="798" y="632" type="line"/>
      <point x="797" y="622"/>
      <point x="797" y="613"/>
      <point x="797" y="604" type="curve" smooth="yes"/>
      <point x="797" y="40" type="line"/>
      <point x="730" y="38" type="line"/>
      <point x="717" y="37"/>
      <point x="710" y="31"/>
      <point x="710" y="20" type="curve" smooth="yes"/>
      <point x="710" y="0" type="line"/>
      <point x="926" y="0" type="line"/>
      <point x="926" y="20" type="line" smooth="yes"/>
      <point x="926" y="31"/>
      <point x="919" y="37"/>
      <point x="906" y="38" type="curve"/>
      <point x="842" y="40" type="line"/>
    </contour>
    <contour>
      <point x="490" y="0" type="move" name="bottom"/>
    </contour>
    <contour>
      <point x="490" y="708" type="move" name="top"/>
    </contour>
  </outline>
</glyph>
<glyph name="N" format="1">
  <advance width="812"/>
  <unicode hex="004E"/>
  <note>
    N
  </note>
  <outline>
    <contour>
      <point x="773" y="708" type="line"/>
      <point x="557" y="708" type="line"/>
      <point x="557" y="689" type="line" smooth="yes"/>
      <point x="557" y="678"/>
      <point x="564" y="672"/>
      <point x="577" y="671" type="curve"/>
      <point x="644" y="669" type="line"/>
      <point x="644" y="114" type="line" smooth="yes"/>
      <point x="644" y="105"/>
      <point x="644" y="95"/>
      <point x="645" y="85" type="curve"/>
      <point x="187" y="698" type="line" smooth="yes"/>
      <point x="183" y="703"/>
      <point x="180" y="708"/>
      <point x="168" y="708" type="curve" smooth="yes"/>
      <point x="58" y="708" type="line"/>
      <point x="58" y="688" type="line" smooth="yes"/>
      <point x="58" y="677"/>
      <point x="65" y="671"/>
      <point x="78" y="670" type="curve"/>
      <point x="143" y="668" type="line"/>
      <point x="143" y="40" type="line"/>
      <point x="78" y="38" type="line"/>
      <point x="65" y="37"/>
      <point x="58" y="31"/>
      <point x="58" y="20" type="curve" smooth="yes"/>
      <point x="58" y="0" type="line"/>
      <point x="274" y="0" type="line"/>
      <point x="274" y="20" type="line" smooth="yes"/>
      <point x="274" y="31"/>
      <point x="267" y="37"/>
      <point x="254" y="38" type="curve"/>
      <point x="187" y="40" type="line"/>
      <point x="187" y="595" type="line" smooth="yes"/>
      <point x="187" y="604"/>
      <point x="187" y="614"/>
      <point x="186" y="624" type="curve"/>
      <point x="646" y="10" type="line" smooth="yes"/>
      <point x="651" y="3"/>
      <point x="656" y="0"/>
      <point x="664" y="0" type="curve" smooth="yes"/>
      <point x="689" y="0" type="line"/>
      <point x="689" y="669" type="line"/>
      <point x="753" y="671" type="line"/>
      <point x="766" y="672"/>
      <point x="773" y="678"/>
      <point x="773" y="689" type="curve" smooth="yes"/>
    </contour>
    <contour>
      <point x="403" y="0" type="move" name="bottom"/>
    </contour>
    <contour>
      <point x="403" y="708" type="move" name="top"/>
    </contour>
  </outline>
</glyph>
<glyph name="O" format="1">
  <advance width="771"/>
  <unicode hex="004F"/>
  <note>
    O
  </note>
  <outline>
    <contour>
      <point x="723" y="354" type="curve" smooth="yes"/>
      <point x="723" y="560"/>
      <point x="594" y="716"/>
      <point x="385" y="716" type="curve" smooth="yes"/>
      <point x="180" y="716"/>
      <point x="48" y="563"/>
      <point x="48" y="354" type="curve" smooth="yes"/>
      <point x="48" y="144"/>
      <point x="180" y="-8"/>
      <point x="385" y="-8" type="curve" smooth="yes"/>
      <point x="592" y="-8"/>
      <point x="723" y="143"/>
    </contour>
    <contour>
      <point x="669" y="354" type="curve" smooth="yes"/>
      <point x="669" y="165"/>
      <point x="565" y="37"/>
      <point x="385" y="37" type="curve" smooth="yes"/>
      <point x="204" y="37"/>
      <point x="101" y="169"/>
      <point x="101" y="354" type="curve" smooth="yes"/>
      <point x="101" y="541"/>
      <point x="208" y="672"/>
      <point x="385" y="672" type="curve" smooth="yes"/>
      <point x="562" y="672"/>
      <point x="669" y="544"/>
    </contour>
    <contour>
      <point x="388" y="0" type="move" name="bottom"/>
    </contour>
    <contour>
      <point x="388" y="354" type="move" name="center"/>
    </contour>
    <contour>
      <point x="689" y="10" type="move" name="ogonek"/>
    </contour>
    <contour>
      <point x="388" y="708" type="move" name="top"/>
    </contour>
    <contour>
      <point x="744" y="708" type="move" name="topright"/>
    </contour>
  </outline>
</glyph>
<glyph name="P" format="1">
  <advance width="599"/>
  <unicode hex="0050"/>
  <note>
    P
  </note>
  <outline>
    <contour>
      <point x="566" y="641"/>
      <point x="472" y="708"/>
      <point x="315" y="708" type="curve" smooth="yes"/>
      <point x="58" y="708" type="line"/>
      <point x="58" y="689" type="line" smooth="yes"/>
      <point x="58" y="678"/>
      <point x="65" y="672"/>
      <point x="78" y="671" type="curve"/>
      <point x="143" y="669" type="line"/>
      <point x="143" y="40" type="line"/>
      <point x="78" y="38" type="line"/>
      <point x="65" y="37"/>
      <point x="58" y="31"/>
      <point x="58" y="20" type="curve" smooth="yes"/>
      <point x="58" y="0" type="line"/>
      <point x="278" y="0" type="line"/>
      <point x="278" y="20" type="line" smooth="yes"/>
      <point x="278" y="31"/>
      <point x="271" y="37"/>
      <point x="258" y="38" type="curve"/>
      <point x="194" y="40" type="line"/>
      <point x="194" y="285" type="line"/>
      <point x="315" y="285" type="line" smooth="yes"/>
      <point x="457" y="285"/>
      <point x="566" y="363"/>
      <point x="566" y="497" type="curve" smooth="yes"/>
    </contour>
    <contour>
      <point x="515" y="392"/>
      <point x="432" y="326"/>
      <point x="315" y="326" type="curve" smooth="yes"/>
      <point x="194" y="326" type="line"/>
      <point x="194" y="668" type="line"/>
      <point x="315" y="668" type="line" smooth="yes"/>
      <point x="438" y="668"/>
      <point x="515" y="614"/>
      <point x="515" y="498" type="curve" smooth="yes"/>
    </contour>
    <contour>
      <point x="305" y="0" type="move" name="bottom"/>
    </contour>
    <contour>
      <point x="305" y="708" type="move" name="top"/>
    </contour>
  </outline>
</glyph>
<glyph name="Q" format="1">
  <advance width="805"/>
  <unicode hex="0051"/>
  <note>
    Q
  </note>
  <outline>
    <contour>
      <point x="723" y="354" type="curve" smooth="yes"/>
      <point x="723" y="560"/>
      <point x="594" y="716"/>
      <point x="386" y="716" type="curve" smooth="yes"/>
      <point x="180" y="716"/>
      <point x="48" y="563"/>
      <point x="48" y="354" type="curve" smooth="yes"/>
      <point x="48" y="143"/>
      <point x="180" y="-8"/>
      <point x="386" y="-8" type="curve" smooth="yes"/>
      <point x="427" y="-8"/>
      <point x="491" y="4"/>
      <point x="526" y="19" type="curve"/>
      <point x="677" y="-144" type="line"/>
      <point x="682" y="-150"/>
      <point x="693" y="-156"/>
      <point x="709" y="-156" type="curve" smooth="yes"/>
      <point x="752" y="-156" type="line"/>
      <point x="568" y="41" type="line"/>
      <point x="673" y="107"/>
      <point x="723" y="223"/>
    </contour>
    <contour>
      <point x="670" y="354" type="curve" smooth="yes"/>
      <point x="670" y="165"/>
      <point x="566" y="37"/>
      <point x="386" y="37" type="curve" smooth="yes"/>
      <point x="205" y="37"/>
      <point x="101" y="168"/>
      <point x="101" y="354" type="curve" smooth="yes"/>
      <point x="101" y="539"/>
      <point x="207" y="672"/>
      <point x="386" y="672" type="curve" smooth="yes"/>
      <point x="563" y="672"/>
      <point x="670" y="545"/>
    </contour>
    <contour>
      <point x="392" y="0" type="move" name="bottom"/>
    </contour>
    <contour>
      <point x="392" y="708" type="move" name="top"/>
    </contour>
  </outline>
</glyph>
<glyph name="R" format="1">
  <advance width="649"/>
  <unicode hex="0052"/>
  <note>
    R
  </note>
  <outline>
    <contour>
      <point x="629" y="38" type="curve"/>
      <point x="591" y="39" type="line"/>
      <point x="379" y="306" type="line" smooth="yes"/>
      <point x="373" y="314"/>
      <point x="365" y="321"/>
      <point x="357" y="326" type="curve"/>
      <point x="473" y="337"/>
      <point x="558" y="411"/>
      <point x="558" y="522" type="curve" smooth="yes"/>
      <point x="558" y="656"/>
      <point x="461" y="708"/>
      <point x="315" y="708" type="curve" smooth="yes"/>
      <point x="59" y="708" type="line"/>
      <point x="59" y="689" type="line" smooth="yes"/>
      <point x="59" y="678"/>
      <point x="65" y="672"/>
      <point x="78" y="671" type="curve"/>
      <point x="143" y="669" type="line"/>
      <point x="143" y="40" type="line"/>
      <point x="78" y="38" type="line"/>
      <point x="65" y="37"/>
      <point x="58" y="31"/>
      <point x="58" y="20" type="curve" smooth="yes"/>
      <point x="58" y="0" type="line"/>
      <point x="278" y="0" type="line"/>
      <point x="278" y="20" type="line" smooth="yes"/>
      <point x="278" y="31"/>
      <point x="271" y="37"/>
      <point x="258" y="38" type="curve"/>
      <point x="194" y="40" type="line"/>
      <point x="194" y="320" type="line"/>
      <point x="278" y="320" type="line" smooth="yes"/>
      <point x="303" y="320"/>
      <point x="311" y="318"/>
      <point x="326" y="300" type="curve"/>
      <point x="553" y="13" type="line" smooth="yes"/>
      <point x="558" y="7"/>
      <point x="564" y="0"/>
      <point x="578" y="0" type="curve"/>
      <point x="648" y="0" type="line"/>
      <point x="648" y="20" type="line" smooth="yes"/>
      <point x="648" y="31"/>
      <point x="642" y="37"/>
    </contour>
    <contour>
      <point x="308" y="358" type="curve" smooth="yes"/>
      <point x="194" y="358" type="line"/>
      <point x="194" y="668" type="line"/>
      <point x="315" y="668" type="line" smooth="yes"/>
      <point x="427" y="668"/>
      <point x="508" y="629"/>
      <point x="508" y="518" type="curve" smooth="yes"/>
      <point x="508" y="414"/>
      <point x="426" y="358"/>
    </contour>
    <contour>
      <point x="346" y="0" type="move" name="bottom"/>
    </contour>
    <contour>
      <point x="303" y="707" type="move" name="top"/>
    </contour>
  </outline>
</glyph>
<glyph name="S" format="1">
  <advance width="522"/>
  <unicode hex="0053"/>
  <note>
    S
  </note>
  <outline>
    <contour>
      <point x="245" y="-8" type="curve" smooth="yes"/>
      <point x="373" y="-8"/>
      <point x="472" y="74"/>
      <point x="472" y="207" type="curve" smooth="yes"/>
      <point x="472" y="311"/>
      <point x="403" y="351"/>
      <point x="294" y="386" type="curve" smooth="yes"/>
      <point x="188" y="420"/>
      <point x="116" y="449"/>
      <point x="116" y="536" type="curve" smooth="yes"/>
      <point x="116" y="617"/>
      <point x="182" y="673"/>
      <point x="274" y="673" type="curve" smooth="yes"/>
      <point x="322" y="673"/>
      <point x="366" y="665"/>
      <point x="406" y="648" type="curve"/>
      <point x="438" y="636" type="line"/>
      <point x="456" y="674" type="line"/>
      <point x="393" y="701"/>
      <point x="333" y="715"/>
      <point x="274" y="715" type="curve" smooth="yes"/>
      <point x="158" y="715"/>
      <point x="69" y="644"/>
      <point x="69" y="533" type="curve" smooth="yes"/>
      <point x="69" y="428"/>
      <point x="132" y="386"/>
      <point x="247" y="350" type="curve" smooth="yes"/>
      <point x="354" y="316"/>
      <point x="424" y="293"/>
      <point x="424" y="199" type="curve" smooth="yes"/>
      <point x="424" y="100"/>
      <point x="356" y="35"/>
      <point x="247" y="35" type="curve" smooth="yes"/>
      <point x="174" y="35"/>
      <point x="141" y="46"/>
      <point x="75" y="76" type="curve"/>
      <point x="55" y="31" type="line"/>
      <point x="116" y="5"/>
      <point x="179" y="-8"/>
    </contour>
    <component base="SerifUpLeft" xOffset="55" yOffset="31"/>
    <component base="SerifUpLeft" xScale="-1" yScale="-1" xOffset="456" yOffset="674"/>
    <contour>
      <point x="217" y="0" type="move" name="bottom"/>
    </contour>
    <contour>
      <point x="255" y="708" type="move" name="top"/>
    </contour>
  </outline>
</glyph>
<glyph name="T" format="1">
  <advance width="604"/>
  <unicode hex="0054"/>
  <note>
    T
  </note>
  <outline>
    <contour>
      <point x="584" y="708" type="line"/>
      <point x="20" y="708" type="line"/>
      <point x="20" y="562" type="line"/>
      <point x="45" y="562" type="line" smooth="yes"/>
      <point x="59" y="562"/>
      <point x="65" y="570"/>
      <point x="66" y="586" type="curve"/>
      <point x="70" y="665" type="line"/>
      <point x="277" y="665" type="line"/>
      <point x="277" y="40" type="line"/>
      <point x="213" y="38" type="line"/>
      <point x="200" y="37"/>
      <point x="193" y="31"/>
      <point x="193" y="20" type="curve" smooth="yes"/>
      <point x="193" y="0" type="line"/>
      <point x="413" y="0" type="line"/>
      <point x="413" y="20" type="line" smooth="yes"/>
      <point x="413" y="31"/>
      <point x="406" y="37"/>
      <point x="393" y="38" type="curve"/>
      <point x="328" y="40" type="line"/>
      <point x="328" y="665" type="line"/>
      <point x="534" y="665" type="line"/>
      <point x="538" y="586" type="line"/>
      <point x="539" y="570"/>
      <point x="546" y="562"/>
      <point x="560" y="562" type="curve" smooth="yes"/>
      <point x="584" y="562" type="line"/>
    </contour>
    <contour>
      <point x="258" y="0" type="move" name="bottom"/>
    </contour>
    <contour>
      <point x="302" y="354" type="move" name="center"/>
    </contour>
    <contour>
      <point x="302" y="708" type="move" name="top"/>
    </contour>
  </outline>
</glyph>
<glyph name="U" format="1">
  <advance width="756"/>
  <unicode hex="0055"/>
  <note>
    U
  </note>
  <outline>
    <contour>
      <point x="730" y="708" type="line"/>
      <point x="498" y="708" type="line"/>
      <point x="498" y="689" type="line" smooth="yes"/>
      <point x="498" y="678"/>
      <point x="505" y="672"/>
      <point x="518" y="671" type="curve"/>
      <point x="595" y="669" type="line"/>
      <point x="595" y="270" type="line" smooth="yes"/>
      <point x="595" y="138"/>
      <point x="513" y="36"/>
      <point x="378" y="36" type="curve" smooth="yes"/>
      <point x="244" y="36"/>
      <point x="161" y="137"/>
      <point x="161" y="270" type="curve" smooth="yes"/>
      <point x="161" y="669" type="line"/>
      <point x="238" y="671" type="line"/>
      <point x="251" y="672"/>
      <point x="258" y="678"/>
      <point x="258" y="689" type="curve" smooth="yes"/>
      <point x="258" y="708" type="line"/>
      <point x="26" y="708" type="line"/>
      <point x="26" y="689" type="line" smooth="yes"/>
      <point x="26" y="678"/>
      <point x="32" y="672"/>
      <point x="45" y="671" type="curve"/>
      <point x="110" y="669" type="line"/>
      <point x="110" y="270" type="line" smooth="yes"/>
      <point x="110" y="110"/>
      <point x="213" y="-8"/>
      <point x="378" y="-8" type="curve" smooth="yes"/>
      <point x="540" y="-8"/>
      <point x="646" y="110"/>
      <point x="646" y="270" type="curve" smooth="yes"/>
      <point x="646" y="669" type="line"/>
      <point x="710" y="671" type="line"/>
      <point x="723" y="672"/>
      <point x="730" y="678"/>
      <point x="730" y="689" type="curve" smooth="yes"/>
    </contour>
    <contour>
      <point x="378" y="0" type="move" name="bottom"/>
    </contour>
    <contour>
      <point x="471" y="10" type="move" name="ogonek"/>
    </contour>
    <contour>
      <point x="378" y="708" type="move" name="top"/>
    </contour>
    <contour>
      <point x="733" y="708" type="move" name="topright"/>
    </contour>
  </outline>
</glyph>
<glyph name="V" format="1">
  <advance width="716"/>
  <unicode hex="0056"/>
  <note>
    V
  </note>
  <outline>
    <contour>
      <point x="715" y="708" type="line"/>
      <point x="526" y="708" type="line"/>
      <point x="526" y="689" type="line" smooth="yes"/>
      <point x="526" y="678"/>
      <point x="532" y="672"/>
      <point x="545" y="671" type="curve"/>
      <point x="603" y="669" type="line"/>
      <point x="374" y="107" type="line" smooth="yes"/>
      <point x="368" y="92"/>
      <point x="363" y="76"/>
      <point x="359" y="58" type="curve"/>
      <point x="355" y="75"/>
      <point x="350" y="92"/>
      <point x="344" y="107" type="curve" smooth="yes"/>
      <point x="113" y="669" type="line"/>
      <point x="171" y="671" type="line"/>
      <point x="184" y="672"/>
      <point x="191" y="678"/>
      <point x="191" y="689" type="curve" smooth="yes"/>
      <point x="191" y="708" type="line"/>
      <point x="1" y="708" type="line"/>
      <point x="1" y="689" type="line" smooth="yes"/>
      <point x="1" y="678"/>
      <point x="8" y="672"/>
      <point x="21" y="671" type="curve"/>
      <point x="60" y="669" type="line"/>
      <point x="336" y="0" type="line"/>
      <point x="381" y="0" type="line"/>
      <point x="657" y="669" type="line"/>
      <point x="695" y="671" type="line"/>
      <point x="708" y="672"/>
      <point x="715" y="678"/>
      <point x="715" y="689" type="curve" smooth="yes"/>
    </contour>
    <contour>
      <point x="359" y="0" type="move" name="bottom"/>
    </contour>
    <contour>
      <point x="359" y="708" type="move" name="top"/>
    </contour>
  </outline>
</glyph>
<glyph name="W" format="1">
  <advance width="1056"/>
  <unicode hex="0057"/>
  <note>
    W
  </note>
  <outline>
    <contour>
      <point x="1055" y="708" type="line"/>
      <point x="866" y="708" type="line"/>
      <point x="866" y="689" type="line" smooth="yes"/>
      <point x="866" y="678"/>
      <point x="872" y="672"/>
      <point x="885" y="671" type="curve"/>
      <point x="947" y="669" type="line"/>
      <point x="777" y="113" type="line" smooth="yes"/>
      <point x="773" y="100"/>
      <point x="770" y="83"/>
      <point x="767" y="68" type="curve"/>
      <point x="764" y="83"/>
      <point x="760" y="100"/>
      <point x="756" y="113" type="curve"/>
      <point x="556" y="695" type="line"/>
      <point x="553" y="702"/>
      <point x="550" y="708"/>
      <point x="537" y="708" type="curve" smooth="yes"/>
      <point x="523" y="708" type="line" smooth="yes"/>
      <point x="513" y="708"/>
      <point x="505" y="701"/>
      <point x="504" y="695" type="curve"/>
      <point x="304" y="112" type="line"/>
      <point x="301" y="102"/>
      <point x="297" y="82"/>
      <point x="293" y="67" type="curve"/>
      <point x="290" y="82"/>
      <point x="286" y="102"/>
      <point x="283" y="113" type="curve" smooth="yes"/>
      <point x="113" y="669" type="line"/>
      <point x="171" y="671" type="line"/>
      <point x="184" y="672"/>
      <point x="191" y="678"/>
      <point x="191" y="689" type="curve" smooth="yes"/>
      <point x="191" y="708" type="line"/>
      <point x="1" y="708" type="line"/>
      <point x="1" y="689" type="line" smooth="yes"/>
      <point x="1" y="678"/>
      <point x="8" y="672"/>
      <point x="21" y="671" type="curve"/>
      <point x="56" y="669" type="line"/>
      <point x="267" y="0" type="line"/>
      <point x="312" y="0" type="line"/>
      <point x="522" y="614" type="line" smooth="yes"/>
      <point x="525" y="622"/>
      <point x="527" y="630"/>
      <point x="529" y="639" type="curve"/>
      <point x="531" y="630"/>
      <point x="533" y="622"/>
      <point x="536" y="614" type="curve" smooth="yes"/>
      <point x="745" y="0" type="line"/>
      <point x="791" y="0" type="line"/>
      <point x="1001" y="669" type="line"/>
      <point x="1036" y="671" type="line"/>
      <point x="1049" y="672"/>
      <point x="1055" y="678"/>
      <point x="1055" y="689" type="curve" smooth="yes"/>
    </contour>
    <contour>
      <point x="529" y="0" type="move" name="bottom"/>
    </contour>
    <contour>
      <point x="529" y="708" type="move" name="top"/>
    </contour>
  </outline>
</glyph>
<glyph name="X" format="1">
  <advance width="646"/>
  <unicode hex="0058"/>
  <note>
    X
  </note>
  <outline>
    <contour>
      <point x="625" y="38" type="curve"/>
      <point x="619" y="38" type="line" smooth="yes"/>
      <point x="616" y="38"/>
      <point x="611" y="39"/>
      <point x="606" y="39" type="curve" smooth="yes"/>
      <point x="601" y="39"/>
      <point x="595" y="40"/>
      <point x="588" y="40" type="curve"/>
      <point x="361" y="366" type="line"/>
      <point x="578" y="669" type="line"/>
      <point x="618" y="671" type="line"/>
      <point x="631" y="672"/>
      <point x="638" y="678"/>
      <point x="638" y="689" type="curve" smooth="yes"/>
      <point x="638" y="708" type="line"/>
      <point x="440" y="708" type="line"/>
      <point x="440" y="689" type="line" smooth="yes"/>
      <point x="440" y="678"/>
      <point x="447" y="672"/>
      <point x="460" y="671" type="curve"/>
      <point x="521" y="669" type="line"/>
      <point x="334" y="403" type="line" smooth="yes"/>
      <point x="332" y="400"/>
      <point x="329" y="393"/>
      <point x="327" y="387" type="curve"/>
      <point x="133" y="669" type="line"/>
      <point x="188" y="671" type="line"/>
      <point x="201" y="672"/>
      <point x="207" y="678"/>
      <point x="207" y="689" type="curve" smooth="yes"/>
      <point x="207" y="708" type="line"/>
      <point x="13" y="708" type="line"/>
      <point x="13" y="689" type="line" smooth="yes"/>
      <point x="13" y="678"/>
      <point x="20" y="672"/>
      <point x="33" y="671" type="curve"/>
      <point x="74" y="669" type="line"/>
      <point x="289" y="363" type="line"/>
      <point x="62" y="40" type="line"/>
      <point x="21" y="38" type="line"/>
      <point x="8" y="37"/>
      <point x="1" y="31"/>
      <point x="1" y="20" type="curve" smooth="yes"/>
      <point x="1" y="0" type="line"/>
      <point x="200" y="0" type="line"/>
      <point x="200" y="20" type="line" smooth="yes"/>
      <point x="200" y="31"/>
      <point x="193" y="37"/>
      <point x="180" y="38" type="curve"/>
      <point x="118" y="40" type="line"/>
      <point x="318" y="324" type="line"/>
      <point x="321" y="329"/>
      <point x="324" y="333"/>
      <point x="325" y="338" type="curve"/>
      <point x="529" y="40" type="line"/>
      <point x="518" y="40"/>
      <point x="508" y="39"/>
      <point x="499" y="39" type="curve" smooth="yes"/>
      <point x="490" y="39"/>
      <point x="483" y="38"/>
      <point x="480" y="38" type="curve" smooth="yes"/>
      <point x="473" y="38" type="line"/>
      <point x="460" y="37"/>
      <point x="453" y="31"/>
      <point x="453" y="20" type="curve" smooth="yes"/>
      <point x="453" y="0" type="line"/>
      <point x="561" y="0" type="line"/>
      <point x="565" y="0" type="line"/>
      <point x="601" y="0" type="line"/>
      <point x="616" y="0" type="line"/>
      <point x="645" y="0" type="line"/>
      <point x="645" y="20" type="line" smooth="yes"/>
      <point x="645" y="31"/>
      <point x="638" y="37"/>
    </contour>
  </outline>
</glyph>
<glyph name="Y" format="1">
  <advance width="641"/>
  <unicode hex="0059"/>
  <note>
    Y
  </note>
  <outline>
    <contour>
      <point x="640" y="708" type="line"/>
      <point x="455" y="708" type="line"/>
      <point x="455" y="689" type="line" smooth="yes"/>
      <point x="455" y="678"/>
      <point x="462" y="672"/>
      <point x="475" y="671" type="curve"/>
      <point x="527" y="669" type="line"/>
      <point x="342" y="370" type="line" smooth="yes"/>
      <point x="333" y="356"/>
      <point x="331" y="349"/>
      <point x="321" y="326" type="curve"/>
      <point x="313" y="345"/>
      <point x="310" y="354"/>
      <point x="300" y="370" type="curve" smooth="yes"/>
      <point x="114" y="669" type="line"/>
      <point x="166" y="671" type="line"/>
      <point x="179" y="672"/>
      <point x="186" y="678"/>
      <point x="186" y="689" type="curve" smooth="yes"/>
      <point x="186" y="708" type="line"/>
      <point x="1" y="708" type="line"/>
      <point x="1" y="689" type="line" smooth="yes"/>
      <point x="1" y="678"/>
      <point x="8" y="672"/>
      <point x="21" y="671" type="curve"/>
      <point x="58" y="669" type="line"/>
      <point x="295" y="292" type="line"/>
      <point x="295" y="40" type="line"/>
      <point x="231" y="38" type="line"/>
      <point x="218" y="37"/>
      <point x="211" y="31"/>
      <point x="211" y="20" type="curve" smooth="yes"/>
      <point x="211" y="0" type="line"/>
      <point x="430" y="0" type="line"/>
      <point x="430" y="20" type="line" smooth="yes"/>
      <point x="430" y="31"/>
      <point x="424" y="37"/>
      <point x="411" y="38" type="curve"/>
      <point x="346" y="40" type="line"/>
      <point x="346" y="292" type="line"/>
      <point x="583" y="669" type="line"/>
      <point x="620" y="671" type="line"/>
      <point x="633" y="672"/>
      <point x="640" y="678"/>
      <point x="640" y="689" type="curve" smooth="yes"/>
    </contour>
    <contour>
      <point x="321" y="0" type="move" name="bottom"/>
    </contour>
    <contour>
      <point x="321" y="708" type="move" name="top"/>
    </contour>
  </outline>
</glyph>
<glyph name="Z" format="1">
  <advance width="593"/>
  <unicode hex="005A"/>
  <note>
    Z
  </note>
  <outline>
    <contour>
      <point x="35" y="0" type="line"/>
      <point x="554" y="0" type="line"/>
      <point x="554" y="42" type="line"/>
      <point x="102" y="42" type="line"/>
      <point x="551" y="670" type="line" smooth="yes"/>
      <point x="556" y="677"/>
      <point x="558" y="684"/>
      <point x="558" y="691" type="curve" smooth="yes"/>
      <point x="558" y="708" type="line"/>
      <point x="47" y="708" type="line"/>
      <point x="47" y="666" type="line"/>
      <point x="490" y="666" type="line"/>
      <point x="40" y="36" type="line" smooth="yes"/>
      <point x="36" y="30"/>
      <point x="35" y="25"/>
      <point x="35" y="19" type="curve" smooth="yes"/>
    </contour>
    <component base="SerifUpRight" xOffset="502"/>
    <component base="SerifUpRight" xScale="-1" yScale="-1" xOffset="99" yOffset="708"/>
    <contour>
      <point x="300" y="0" type="move" name="bottom"/>
    </contour>
    <contour>
      <point x="300" y="708" type="move" name="top"/>
    </contour>
  </outline>
</glyph>
<glyph name="bracketleft" format="1">
  <advance width="317"/>
  <unicode hex="005B"/>
  <note>
    bracketleft
  </note>
  <outline>
    <contour>
      <point x="97" y="758" type="line"/>
      <point x="97" y="-132" type="line"/>
      <point x="256" y="-132" type="line"/>
      <point x="256" y="-114" type="line" smooth="yes"/>
      <point x="256" y="-102"/>
      <point x="249" y="-100"/>
      <point x="240" y="-100" type="curve" smooth="yes"/>
      <point x="138" y="-100" type="line"/>
      <point x="138" y="726" type="line"/>
      <point x="240" y="726" type="line" smooth="yes"/>
      <point x="250" y="726"/>
      <point x="256" y="731"/>
      <point x="256" y="740" type="curve" smooth="yes"/>
      <point x="256" y="758" type="line"/>
    </contour>
  </outline>
</glyph>
<glyph name="backslash" format="1">
  <advance width="412"/>
  <unicode hex="005C"/>
  <note>
    backslash
  </note>
  <outline>
    <contour>
      <point x="48" y="728" type="curve" smooth="yes"/>
      <point x="27" y="728" type="line"/>
      <point x="338" y="-22" type="line" smooth="yes"/>
      <point x="343" y="-35"/>
      <point x="354" y="-42"/>
      <point x="367" y="-42" type="curve" smooth="yes"/>
      <point x="386" y="-42" type="line"/>
      <point x="75" y="709" type="line" smooth="yes"/>
      <point x="70" y="721"/>
      <point x="61" y="728"/>
    </contour>
  </outline>
</glyph>
<glyph name="bracketright" format="1">
  <advance width="317"/>
  <unicode hex="005D"/>
  <note>
    bracketright
  </note>
  <outline>
    <contour>
      <point x="61" y="-114" type="curve" smooth="yes"/>
      <point x="61" y="-132" type="line"/>
      <point x="220" y="-132" type="line"/>
      <point x="220" y="758" type="line"/>
      <point x="61" y="758" type="line"/>
      <point x="61" y="740" type="line" smooth="yes"/>
      <point x="61" y="732"/>
      <point x="67" y="726"/>
      <point x="76" y="726" type="curve" smooth="yes"/>
      <point x="179" y="726" type="line"/>
      <point x="179" y="-100" type="line"/>
      <point x="76" y="-100" type="line" smooth="yes"/>
      <point x="67" y="-100"/>
      <point x="61" y="-106"/>
    </contour>
  </outline>
</glyph>
<glyph name="asciicircum" format="1">
  <advance width="463"/>
  <unicode hex="005E"/>
  <note>
    asciicircum
  </note>
  <outline>
    <contour>
      <point x="246" y="708" type="line"/>
      <point x="216" y="708" type="line"/>
      <point x="46" y="400" type="line"/>
      <point x="82" y="400" type="line" smooth="yes"/>
      <point x="90" y="400"/>
      <point x="94" y="406"/>
      <point x="98" y="412" type="curve"/>
      <point x="218" y="630" type="line"/>
      <point x="224" y="640"/>
      <point x="226" y="646"/>
      <point x="232" y="661" type="curve"/>
      <point x="237" y="646"/>
      <point x="241" y="640"/>
      <point x="246" y="630" type="curve"/>
      <point x="366" y="412" type="line"/>
      <point x="369" y="408"/>
      <point x="372" y="400"/>
      <point x="383" y="400" type="curve" smooth="yes"/>
      <point x="417" y="400" type="line"/>
    </contour>
  </outline>
</glyph>
<glyph name="underscore" format="1">
  <advance width="394"/>
  <unicode hex="005F"/>
  <note>
    underscore
  </note>
  <outline>
    <contour>
      <point x="394" y="-136" type="line"/>
      <point x="394" y="-102" type="line"/>
      <point x="0" y="-102" type="line"/>
      <point x="0" y="-136" type="line"/>
    </contour>
  </outline>
</glyph>
<glyph name="grave" format="1">
  <advance width="254"/>
  <unicode hex="0060"/>
  <note>
    grave
  </note>
  <outline>
    <contour>
      <point x="96" y="716" type="curve" smooth="yes"/>
      <point x="50" y="716" type="line"/>
      <point x="159" y="589" type="line"/>
      <point x="163" y="585"/>
      <point x="166" y="580"/>
      <point x="178" y="580" type="curve" smooth="yes"/>
      <point x="204" y="580" type="line"/>
      <point x="126" y="700" type="line" smooth="yes"/>
      <point x="120" y="709"/>
      <point x="112" y="716"/>
    </contour>
    <contour>
      <point x="199" y="499" type="move" name="_top"/>
    </contour>
  </outline>
</glyph>
<glyph name="a" format="1">
  <advance width="495"/>
  <unicode hex="0061"/>
  <note>
    a
  </note>
  <outline>
    <contour>
      <point x="453" y="38" type="curve"/>
      <point x="407" y="39" type="line"/>
      <point x="407" y="324" type="line" smooth="yes"/>
      <point x="407" y="431"/>
      <point x="356" y="506"/>
      <point x="247" y="506" type="curve" smooth="yes"/>
      <point x="176" y="506"/>
      <point x="120" y="479"/>
      <point x="68" y="427" type="curve"/>
      <point x="76" y="412" type="line" smooth="yes"/>
      <point x="82" y="400"/>
      <point x="95" y="399"/>
      <point x="110" y="414" type="curve" smooth="yes"/>
      <point x="138" y="442"/>
      <point x="193" y="467"/>
      <point x="242" y="467" type="curve" smooth="yes"/>
      <point x="322" y="467"/>
      <point x="360" y="416"/>
      <point x="360" y="324" type="curve" smooth="yes"/>
      <point x="360" y="272" type="line"/>
      <point x="227" y="271"/>
      <point x="43" y="240"/>
      <point x="43" y="121" type="curve" smooth="yes"/>
      <point x="43" y="40"/>
      <point x="98" y="-8"/>
      <point x="176" y="-8" type="curve" smooth="yes"/>
      <point x="257" y="-8"/>
      <point x="301" y="21"/>
      <point x="362" y="78" type="curve"/>
      <point x="369" y="14" type="line"/>
      <point x="371" y="5"/>
      <point x="378" y="0"/>
      <point x="388" y="0" type="curve" smooth="yes"/>
      <point x="389" y="0" type="line"/>
      <point x="473" y="0" type="line"/>
      <point x="473" y="20" type="line" smooth="yes"/>
      <point x="473" y="31"/>
      <point x="466" y="37"/>
    </contour>
    <contour>
      <point x="360" y="240" type="curve"/>
      <point x="360" y="111" type="line"/>
      <point x="306" y="57"/>
      <point x="266" y="27"/>
      <point x="188" y="27" type="curve" smooth="yes"/>
      <point x="127" y="27"/>
      <point x="89" y="61"/>
      <point x="89" y="122" type="curve" smooth="yes"/>
      <point x="89" y="218"/>
      <point x="249" y="239"/>
    </contour>
    <contour>
      <point x="260" y="0" type="move" name="bottom"/>
    </contour>
    <contour>
      <point x="465" y="10" type="move" name="ogonek"/>
    </contour>
    <contour>
      <point x="249" y="498" type="move" name="top"/>
    </contour>
  </outline>
</glyph>
<glyph name="b" format="1">
  <advance width="538"/>
  <unicode hex="0062"/>
  <note>
    b
  </note>
  <outline>
    <contour>
      <point x="497" y="402"/>
      <point x="439" y="506"/>
      <point x="303" y="506" type="curve" smooth="yes"/>
      <point x="235" y="506"/>
      <point x="176" y="473"/>
      <point x="129" y="411" type="curve"/>
      <point x="128" y="728" type="line"/>
      <point x="81" y="728" type="line"/>
      <point x="9" y="728" type="line"/>
      <point x="9" y="708" type="line" smooth="yes"/>
      <point x="9" y="697"/>
      <point x="15" y="691"/>
      <point x="28" y="690" type="curve"/>
      <point x="81" y="688" type="line"/>
      <point x="81" y="47" type="line"/>
      <point x="81" y="22" type="line"/>
      <point x="169" y="3"/>
      <point x="235" y="-6"/>
      <point x="280" y="-6" type="curve" smooth="yes"/>
      <point x="417" y="-6"/>
      <point x="497" y="103"/>
      <point x="497" y="252" type="curve" smooth="yes"/>
    </contour>
    <contour>
      <point x="448" y="126"/>
      <point x="393" y="31"/>
      <point x="271" y="31" type="curve" smooth="yes"/>
      <point x="245" y="31"/>
      <point x="197" y="38"/>
      <point x="128" y="52" type="curve"/>
      <point x="128" y="371" type="line"/>
      <point x="169" y="429"/>
      <point x="223" y="468"/>
      <point x="289" y="468" type="curve" smooth="yes"/>
      <point x="403" y="468"/>
      <point x="448" y="383"/>
      <point x="448" y="252" type="curve" smooth="yes"/>
    </contour>
  </outline>
</glyph>
<glyph name="c" format="1">
  <advance width="458"/>
  <unicode hex="0063"/>
  <note>
    c
  </note>
  <outline>
    <contour>
      <point x="425" y="64" type="curve"/>
      <point x="412" y="80" type="line"/>
      <point x="408" y="86"/>
      <point x="399" y="88"/>
      <point x="388" y="77" type="curve" smooth="yes"/>
      <point x="361" y="50"/>
      <point x="311" y="31"/>
      <point x="262" y="31" type="curve" smooth="yes"/>
      <point x="149" y="31"/>
      <point x="90" y="122"/>
      <point x="90" y="249" type="curve" smooth="yes"/>
      <point x="90" y="376"/>
      <point x="150" y="468"/>
      <point x="269" y="468" type="curve" smooth="yes"/>
      <point x="294" y="468"/>
      <point x="322" y="462"/>
      <point x="354" y="451" type="curve"/>
      <point x="355" y="430"/>
      <point x="360" y="374"/>
      <point x="360" y="373" type="curve"/>
      <point x="361" y="357"/>
      <point x="368" y="349"/>
      <point x="382" y="349" type="curve" smooth="yes"/>
      <point x="406" y="349" type="line"/>
      <point x="406" y="474" type="line"/>
      <point x="354" y="495"/>
      <point x="303" y="505"/>
      <point x="266" y="505" type="curve" smooth="yes"/>
      <point x="120" y="505"/>
      <point x="41" y="397"/>
      <point x="41" y="249" type="curve" smooth="yes"/>
      <point x="41" y="104"/>
      <point x="119" y="-7"/>
      <point x="255" y="-7" type="curve" smooth="yes"/>
      <point x="315" y="-7"/>
      <point x="385" y="14"/>
    </contour>
    <contour>
      <point x="222" y="0" type="move" name="bottom"/>
    </contour>
    <contour>
      <point x="254" y="498" type="move" name="top"/>
    </contour>
  </outline>
</glyph>
<glyph name="d" format="1">
  <advance width="546"/>
  <unicode hex="0064"/>
  <note>
    d
  </note>
  <outline>
    <contour>
      <point x="524" y="0" type="line"/>
      <point x="524" y="20" type="line" smooth="yes"/>
      <point x="524" y="31"/>
      <point x="518" y="37"/>
      <point x="505" y="38" type="curve"/>
      <point x="457" y="39" type="line"/>
      <point x="457" y="728" type="line"/>
      <point x="338" y="728" type="line"/>
      <point x="338" y="708" type="line" smooth="yes"/>
      <point x="338" y="697"/>
      <point x="345" y="691"/>
      <point x="358" y="690" type="curve"/>
      <point x="410" y="688" type="line"/>
      <point x="410" y="433" type="line"/>
      <point x="373" y="483"/>
      <point x="321" y="506"/>
      <point x="258" y="506" type="curve" smooth="yes"/>
      <point x="119" y="506"/>
      <point x="41" y="393"/>
      <point x="41" y="248" type="curve" smooth="yes"/>
      <point x="41" y="97"/>
      <point x="98" y="-6"/>
      <point x="235" y="-6" type="curve" smooth="yes"/>
      <point x="309" y="-6"/>
      <point x="366" y="29"/>
      <point x="412" y="92" type="curve"/>
      <point x="417" y="13" type="line"/>
      <point x="418" y="4"/>
      <point x="423" y="0"/>
      <point x="431" y="0" type="curve" smooth="yes"/>
    </contour>
    <contour>
      <point x="410" y="391" type="curve"/>
      <point x="410" y="129" type="line"/>
      <point x="369" y="71"/>
      <point x="315" y="32"/>
      <point x="249" y="32" type="curve" smooth="yes"/>
      <point x="135" y="32"/>
      <point x="90" y="115"/>
      <point x="90" y="248" type="curve" smooth="yes"/>
      <point x="90" y="371"/>
      <point x="144" y="469"/>
      <point x="267" y="469" type="curve" smooth="yes"/>
      <point x="329" y="469"/>
      <point x="375" y="443"/>
    </contour>
    <contour>
      <point x="283" y="0" type="move" name="bottom"/>
    </contour>
    <contour>
      <point x="283" y="249" type="move" name="center"/>
    </contour>
    <contour>
      <point x="283" y="498" type="move" name="top"/>
    </contour>
    <contour>
      <point x="482" y="498" type="move" name="topright"/>
    </contour>
  </outline>
</glyph>
<glyph name="e" format="1">
  <advance width="503"/>
  <unicode hex="0065"/>
  <note>
    e
  </note>
  <outline>
    <contour>
      <point x="266" y="506" type="curve" smooth="yes"/>
      <point x="126" y="506"/>
      <point x="41" y="400"/>
      <point x="41" y="259" type="curve" smooth="yes"/>
      <point x="41" y="109"/>
      <point x="116" y="-6"/>
      <point x="269" y="-6" type="curve" smooth="yes"/>
      <point x="332" y="-6"/>
      <point x="417" y="19"/>
      <point x="453" y="64" type="curve"/>
      <point x="440" y="80" type="line"/>
      <point x="436" y="86"/>
      <point x="426" y="88"/>
      <point x="414" y="77" type="curve" smooth="yes"/>
      <point x="383" y="51"/>
      <point x="323" y="31"/>
      <point x="273" y="31" type="curve" smooth="yes"/>
      <point x="146" y="31"/>
      <point x="89" y="125"/>
      <point x="89" y="268" type="curve"/>
      <point x="448" y="268" type="line" smooth="yes"/>
      <point x="455" y="268"/>
      <point x="462" y="272"/>
      <point x="462" y="287" type="curve" smooth="yes"/>
      <point x="462" y="414"/>
      <point x="389" y="506"/>
    </contour>
    <contour>
      <point x="267" y="470" type="curve" smooth="yes"/>
      <point x="360" y="470"/>
      <point x="419" y="402"/>
      <point x="419" y="299" type="curve"/>
      <point x="91" y="299" type="line"/>
      <point x="103" y="403"/>
      <point x="164" y="470"/>
    </contour>
    <contour>
      <point x="252" y="0" type="move" name="bottom"/>
    </contour>
    <contour>
      <point x="359" y="10" type="move" name="ogonek"/>
    </contour>
    <contour>
      <point x="266" y="498" type="move" name="top"/>
    </contour>
  </outline>
</glyph>
<glyph name="f" format="1">
  <advance width="287"/>
  <unicode hex="0066"/>
  <note>
    f
  </note>
  <outline>
    <contour>
      <point x="33" y="0" type="line"/>
      <point x="247" y="0" type="line"/>
      <point x="247" y="20" type="line" smooth="yes"/>
      <point x="247" y="31"/>
      <point x="240" y="37"/>
      <point x="227" y="38" type="curve"/>
      <point x="163" y="40" type="line"/>
      <point x="163" y="446" type="line"/>
      <point x="323" y="446" type="line"/>
      <point x="323" y="482" type="line"/>
      <point x="162" y="482" type="line"/>
      <point x="162" y="543" type="line" smooth="yes"/>
      <point x="162" y="622"/>
      <point x="190" y="679"/>
      <point x="274" y="679" type="curve" smooth="yes"/>
      <point x="280" y="679"/>
      <point x="304" y="677"/>
      <point x="311" y="676" type="curve" smooth="yes"/>
      <point x="317" y="675"/>
      <point x="326" y="678"/>
      <point x="326" y="683" type="curve"/>
      <point x="327" y="706" type="line"/>
      <point x="307" y="713"/>
      <point x="289" y="716"/>
      <point x="268" y="716" type="curve" smooth="yes"/>
      <point x="166" y="716"/>
      <point x="116" y="646"/>
      <point x="116" y="545" type="curve" smooth="yes"/>
      <point x="116" y="482" type="line"/>
      <point x="31" y="482" type="line"/>
      <point x="31" y="462" type="line" smooth="yes"/>
      <point x="31" y="454"/>
      <point x="35" y="451"/>
      <point x="45" y="450" type="curve" smooth="yes"/>
      <point x="116" y="445" type="line"/>
      <point x="116" y="40" type="line"/>
      <point x="53" y="38" type="line"/>
      <point x="40" y="37"/>
      <point x="33" y="31"/>
      <point x="33" y="20" type="curve" smooth="yes"/>
    </contour>
  </outline>
</glyph>
<glyph name="g" format="1">
  <advance width="489"/>
  <unicode hex="0067"/>
  <note>
    g
  </note>
  <outline>
    <contour>
      <point x="223" y="506" type="curve" smooth="yes"/>
      <point x="125" y="506"/>
      <point x="45" y="448"/>
      <point x="45" y="346" type="curve" smooth="yes"/>
      <point x="45" y="289"/>
      <point x="72" y="240"/>
      <point x="120" y="212" type="curve"/>
      <point x="93" y="198"/>
      <point x="59" y="164"/>
      <point x="59" y="128" type="curve" smooth="yes"/>
      <point x="59" y="94"/>
      <point x="73" y="74"/>
      <point x="113" y="60" type="curve"/>
      <point x="59" y="42"/>
      <point x="15" y="6"/>
      <point x="15" y="-52" type="curve" smooth="yes"/>
      <point x="15" y="-143"/>
      <point x="121" y="-186"/>
      <point x="227" y="-186" type="curve" smooth="yes"/>
      <point x="340" y="-186"/>
      <point x="451" y="-126"/>
      <point x="451" y="-27" type="curve" smooth="yes"/>
      <point x="451" y="58"/>
      <point x="377" y="75"/>
      <point x="276" y="80" type="curve" smooth="yes"/>
      <point x="166" y="85"/>
      <point x="100" y="87"/>
      <point x="100" y="140" type="curve" smooth="yes"/>
      <point x="100" y="164"/>
      <point x="121" y="186"/>
      <point x="145" y="200" type="curve"/>
      <point x="168" y="191"/>
      <point x="194" y="188"/>
      <point x="223" y="188" type="curve" smooth="yes"/>
      <point x="325" y="188"/>
      <point x="400" y="247"/>
      <point x="400" y="346" type="curve" smooth="yes"/>
      <point x="400" y="382"/>
      <point x="392" y="410"/>
      <point x="371" y="440" type="curve"/>
      <point x="447" y="446" type="line" smooth="yes"/>
      <point x="456" y="447"/>
      <point x="461" y="451"/>
      <point x="461" y="459" type="curve" smooth="yes"/>
      <point x="461" y="476" type="line"/>
      <point x="333" y="476" type="line"/>
      <point x="304" y="495"/>
      <point x="262" y="506"/>
    </contour>
    <contour>
      <point x="408" y="-34" type="curve" smooth="yes"/>
      <point x="408" y="-107"/>
      <point x="322" y="-150"/>
      <point x="228" y="-150" type="curve" smooth="yes"/>
      <point x="154" y="-150"/>
      <point x="58" y="-124"/>
      <point x="58" y="-47" type="curve" smooth="yes"/>
      <point x="58" y="-3"/>
      <point x="92" y="30"/>
      <point x="146" y="51" type="curve"/>
      <point x="170" y="47"/>
      <point x="211" y="44"/>
      <point x="259" y="42" type="curve" smooth="yes"/>
      <point x="327" y="38"/>
      <point x="408" y="32"/>
    </contour>
    <contour>
      <point x="223" y="220" type="curve" smooth="yes"/>
      <point x="143" y="220"/>
      <point x="89" y="267"/>
      <point x="89" y="345" type="curve" smooth="yes"/>
      <point x="89" y="425"/>
      <point x="142" y="471"/>
      <point x="223" y="471" type="curve" smooth="yes"/>
      <point x="302" y="471"/>
      <point x="357" y="423"/>
      <point x="357" y="346" type="curve" smooth="yes"/>
      <point x="357" y="267"/>
      <point x="303" y="220"/>
    </contour>
    <contour>
      <point x="231" y="-197" type="move" name="bottom"/>
    </contour>
    <contour>
      <point x="243" y="498" type="move" name="top"/>
    </contour>
  </outline>
</glyph>
<glyph name="h" format="1">
  <advance width="588"/>
  <unicode hex="0068"/>
  <note>
    h
  </note>
  <outline>
    <contour>
      <point x="547" y="38" type="curve"/>
      <point x="494" y="40" type="line"/>
      <point x="494" y="318" type="line" smooth="yes"/>
      <point x="494" y="433"/>
      <point x="440" y="505"/>
      <point x="329" y="505" type="curve" smooth="yes"/>
      <point x="258" y="505"/>
      <point x="202" y="474"/>
      <point x="151" y="412" type="curve"/>
      <point x="151" y="727" type="line"/>
      <point x="31" y="727" type="line"/>
      <point x="31" y="708" type="line" smooth="yes"/>
      <point x="31" y="697"/>
      <point x="38" y="691"/>
      <point x="51" y="690" type="curve"/>
      <point x="103" y="688" type="line"/>
      <point x="103" y="40" type="line"/>
      <point x="51" y="38" type="line"/>
      <point x="38" y="37"/>
      <point x="31" y="31"/>
      <point x="31" y="20" type="curve" smooth="yes"/>
      <point x="31" y="0" type="line"/>
      <point x="223" y="0" type="line"/>
      <point x="223" y="20" type="line" smooth="yes"/>
      <point x="223" y="31"/>
      <point x="216" y="37"/>
      <point x="203" y="38" type="curve"/>
      <point x="151" y="40" type="line"/>
      <point x="151" y="373" type="line"/>
      <point x="192" y="428"/>
      <point x="247" y="467"/>
      <point x="317" y="467" type="curve" smooth="yes"/>
      <point x="407" y="467"/>
      <point x="447" y="411"/>
      <point x="447" y="318" type="curve" smooth="yes"/>
      <point x="447" y="0" type="line"/>
      <point x="566" y="0" type="line"/>
      <point x="566" y="20" type="line" smooth="yes"/>
      <point x="566" y="31"/>
      <point x="560" y="37"/>
    </contour>
  </outline>
</glyph>
<glyph name="i" format="1">
  <advance width="245"/>
  <unicode hex="0069"/>
  <note>
    i
  </note>
  <outline>
    <contour>
      <point x="203" y="38" type="curve"/>
      <point x="151" y="40" type="line"/>
      <point x="151" y="498" type="line"/>
      <point x="31" y="498" type="line"/>
      <point x="31" y="478" type="line" smooth="yes"/>
      <point x="31" y="467"/>
      <point x="38" y="461"/>
      <point x="51" y="460" type="curve"/>
      <point x="103" y="458" type="line"/>
      <point x="103" y="40" type="line"/>
      <point x="51" y="38" type="line"/>
      <point x="38" y="37"/>
      <point x="31" y="31"/>
      <point x="31" y="20" type="curve" smooth="yes"/>
      <point x="31" y="0" type="line"/>
      <point x="223" y="0" type="line"/>
      <point x="223" y="20" type="line" smooth="yes"/>
      <point x="223" y="31"/>
      <point x="216" y="37"/>
    </contour>
    <contour>
      <point x="127" y="625" type="curve" smooth="yes"/>
      <point x="151" y="625"/>
      <point x="170" y="645"/>
      <point x="170" y="670" type="curve" smooth="yes"/>
      <point x="170" y="694"/>
      <point x="151" y="713"/>
      <point x="127" y="713" type="curve" smooth="yes"/>
      <point x="102" y="713"/>
      <point x="83" y="694"/>
      <point x="83" y="670" type="curve" smooth="yes"/>
      <point x="83" y="645"/>
      <point x="102" y="625"/>
    </contour>
  </outline>
</glyph>
<glyph name="j" format="1">
  <advance width="240"/>
  <unicode hex="006A"/>
  <note>
    j
  </note>
  <outline>
    <contour>
      <point x="151" y="498" type="line"/>
      <point x="31" y="498" type="line"/>
      <point x="31" y="479" type="line" smooth="yes"/>
      <point x="31" y="468"/>
      <point x="38" y="462"/>
      <point x="51" y="461" type="curve"/>
      <point x="103" y="459" type="line"/>
      <point x="103" y="-63" type="line" smooth="yes"/>
      <point x="103" y="-118"/>
      <point x="79" y="-148"/>
      <point x="24" y="-148" type="curve" smooth="yes"/>
      <point x="18" y="-148"/>
      <point x="4" y="-146"/>
      <point x="2" y="-146" type="curve" smooth="yes"/>
      <point x="-12" y="-144"/>
      <point x="-15" y="-150"/>
      <point x="-15" y="-157" type="curve"/>
      <point x="-16" y="-174" type="line"/>
      <point x="-3" y="-182"/>
      <point x="14" y="-184"/>
      <point x="32" y="-184" type="curve" smooth="yes"/>
      <point x="106" y="-184"/>
      <point x="151" y="-138"/>
      <point x="151" y="-63" type="curve" smooth="yes"/>
    </contour>
    <contour>
      <point x="127" y="624" type="curve" smooth="yes"/>
      <point x="151" y="624"/>
      <point x="171" y="644"/>
      <point x="171" y="669" type="curve" smooth="yes"/>
      <point x="171" y="693"/>
      <point x="151" y="713"/>
      <point x="127" y="713" type="curve" smooth="yes"/>
      <point x="103" y="713"/>
      <point x="83" y="693"/>
      <point x="83" y="669" type="curve" smooth="yes"/>
      <point x="83" y="644"/>
      <point x="103" y="624"/>
    </contour>
  </outline>
</glyph>
<glyph name="k" format="1">
  <advance width="527"/>
  <unicode hex="006B"/>
  <note>
    k
  </note>
  <outline>
    <contour>
      <point x="487" y="38" type="curve"/>
      <point x="449" y="39" type="line"/>
      <point x="254" y="251" type="line"/>
      <point x="248" y="258"/>
      <point x="237" y="267"/>
      <point x="229" y="272" type="curve"/>
      <point x="235" y="278"/>
      <point x="244" y="284"/>
      <point x="249" y="289" type="curve" smooth="yes"/>
      <point x="427" y="458" type="line"/>
      <point x="463" y="460" type="line"/>
      <point x="476" y="461"/>
      <point x="482" y="467"/>
      <point x="482" y="478" type="curve" smooth="yes"/>
      <point x="482" y="498" type="line"/>
      <point x="328" y="498" type="line"/>
      <point x="328" y="478" type="line" smooth="yes"/>
      <point x="328" y="467"/>
      <point x="335" y="461"/>
      <point x="348" y="460" type="curve"/>
      <point x="373" y="459" type="line"/>
      <point x="201" y="295" type="line" smooth="yes"/>
      <point x="194" y="288"/>
      <point x="184" y="284"/>
      <point x="174" y="284" type="curve" smooth="yes"/>
      <point x="151" y="284" type="line"/>
      <point x="151" y="727" type="line"/>
      <point x="31" y="727" type="line"/>
      <point x="31" y="708" type="line" smooth="yes"/>
      <point x="31" y="697"/>
      <point x="38" y="691"/>
      <point x="51" y="690" type="curve"/>
      <point x="103" y="688" type="line"/>
      <point x="103" y="40" type="line"/>
      <point x="51" y="38" type="line"/>
      <point x="38" y="37"/>
      <point x="31" y="31"/>
      <point x="31" y="20" type="curve" smooth="yes"/>
      <point x="31" y="0" type="line"/>
      <point x="223" y="0" type="line"/>
      <point x="223" y="20" type="line" smooth="yes"/>
      <point x="223" y="31"/>
      <point x="216" y="37"/>
      <point x="203" y="38" type="curve"/>
      <point x="151" y="40" type="line"/>
      <point x="151" y="251" type="line"/>
      <point x="173" y="251" type="line" smooth="yes"/>
      <point x="192" y="251"/>
      <point x="197" y="249"/>
      <point x="211" y="235" type="curve" smooth="yes"/>
      <point x="420" y="12" type="line" smooth="yes"/>
      <point x="424" y="8"/>
      <point x="431" y="0"/>
      <point x="443" y="0" type="curve"/>
      <point x="507" y="0" type="line"/>
      <point x="507" y="20" type="line" smooth="yes"/>
      <point x="507" y="31"/>
      <point x="500" y="37"/>
    </contour>
    <contour>
      <point x="264" y="0" type="move" name="bottom"/>
    </contour>
    <contour>
      <point x="264" y="498" type="move" name="top"/>
    </contour>
  </outline>
</glyph>
<glyph name="l" format="1">
  <advance width="245"/>
  <unicode hex="006C"/>
  <note>
    l
  </note>
  <outline>
    <contour>
      <point x="203" y="38" type="curve"/>
      <point x="151" y="40" type="line"/>
      <point x="151" y="728" type="line"/>
      <point x="31" y="728" type="line"/>
      <point x="31" y="708" type="line" smooth="yes"/>
      <point x="31" y="697"/>
      <point x="38" y="691"/>
      <point x="51" y="690" type="curve"/>
      <point x="103" y="688" type="line"/>
      <point x="103" y="40" type="line"/>
      <point x="51" y="38" type="line"/>
      <point x="38" y="37"/>
      <point x="31" y="31"/>
      <point x="31" y="20" type="curve" smooth="yes"/>
      <point x="31" y="0" type="line"/>
      <point x="223" y="0" type="line"/>
      <point x="223" y="20" type="line" smooth="yes"/>
      <point x="223" y="31"/>
      <point x="216" y="37"/>
    </contour>
    <contour>
      <point x="116" y="0" type="move" name="bottom"/>
    </contour>
    <contour>
      <point x="122" y="249" type="move" name="center"/>
    </contour>
    <contour>
      <point x="122" y="708" type="move" name="top"/>
    </contour>
    <contour>
      <point x="164" y="498" type="move" name="topright"/>
    </contour>
  </outline>
</glyph>
<glyph name="m" format="1">
  <advance width="842"/>
  <unicode hex="006D"/>
  <note>
    m
  </note>
  <outline>
    <contour>
      <point x="801" y="38" type="curve"/>
      <point x="748" y="40" type="line"/>
      <point x="748" y="318" type="line" smooth="yes"/>
      <point x="748" y="427"/>
      <point x="698" y="505"/>
      <point x="589" y="505" type="curve" smooth="yes"/>
      <point x="511" y="505"/>
      <point x="451" y="460"/>
      <point x="430" y="385" type="curve"/>
      <point x="414" y="461"/>
      <point x="374" y="505"/>
      <point x="299" y="505" type="curve" smooth="yes"/>
      <point x="237" y="505"/>
      <point x="192" y="473"/>
      <point x="148" y="413" type="curve"/>
      <point x="144" y="486" type="line"/>
      <point x="143" y="494"/>
      <point x="138" y="498"/>
      <point x="129" y="498" type="curve" smooth="yes"/>
      <point x="31" y="498" type="line"/>
      <point x="31" y="479" type="line" smooth="yes"/>
      <point x="31" y="468"/>
      <point x="37" y="462"/>
      <point x="50" y="461" type="curve"/>
      <point x="103" y="459" type="line"/>
      <point x="103" y="40" type="line"/>
      <point x="50" y="38" type="line"/>
      <point x="37" y="37"/>
      <point x="31" y="31"/>
      <point x="31" y="20" type="curve" smooth="yes"/>
      <point x="31" y="0" type="line"/>
      <point x="222" y="0" type="line"/>
      <point x="222" y="20" type="line" smooth="yes"/>
      <point x="222" y="31"/>
      <point x="216" y="37"/>
      <point x="203" y="38" type="curve"/>
      <point x="150" y="40" type="line"/>
      <point x="150" y="376" type="line"/>
      <point x="181" y="426"/>
      <point x="228" y="467"/>
      <point x="287" y="467" type="curve" smooth="yes"/>
      <point x="368" y="467"/>
      <point x="400" y="406"/>
      <point x="400" y="318" type="curve" smooth="yes"/>
      <point x="400" y="0" type="line"/>
      <point x="520" y="0" type="line"/>
      <point x="520" y="20" type="line" smooth="yes"/>
      <point x="520" y="31"/>
      <point x="513" y="37"/>
      <point x="500" y="38" type="curve"/>
      <point x="448" y="40" type="line"/>
      <point x="448" y="318" type="line" smooth="yes"/>
      <point x="448" y="405"/>
      <point x="495" y="467"/>
      <point x="579" y="467" type="curve" smooth="yes"/>
      <point x="663" y="467"/>
      <point x="701" y="407"/>
      <point x="701" y="318" type="curve" smooth="yes"/>
      <point x="701" y="0" type="line"/>
      <point x="820" y="0" type="line"/>
      <point x="820" y="20" type="line" smooth="yes"/>
      <point x="820" y="31"/>
      <point x="814" y="37"/>
    </contour>
  </outline>
</glyph>
<glyph name="n" format="1">
  <advance width="589"/>
  <unicode hex="006E"/>
  <note>
    n
  </note>
  <outline>
    <contour>
      <point x="32" y="0" type="line"/>
      <point x="223" y="0" type="line"/>
      <point x="223" y="20" type="line" smooth="yes"/>
      <point x="223" y="31"/>
      <point x="217" y="37"/>
      <point x="204" y="38" type="curve"/>
      <point x="151" y="40" type="line"/>
      <point x="151" y="373" type="line"/>
      <point x="194" y="430"/>
      <point x="250" y="467"/>
      <point x="317" y="467" type="curve" smooth="yes"/>
      <point x="409" y="467"/>
      <point x="447" y="407"/>
      <point x="447" y="318" type="curve" smooth="yes"/>
      <point x="447" y="0" type="line"/>
      <point x="567" y="0" type="line"/>
      <point x="567" y="20" type="line" smooth="yes"/>
      <point x="567" y="31"/>
      <point x="560" y="37"/>
      <point x="547" y="38" type="curve"/>
      <point x="495" y="40" type="line"/>
      <point x="495" y="318" type="line" smooth="yes"/>
      <point x="495" y="431"/>
      <point x="440" y="505"/>
      <point x="329" y="505" type="curve" smooth="yes"/>
      <point x="254" y="505"/>
      <point x="194" y="467"/>
      <point x="149" y="410" type="curve"/>
      <point x="145" y="486" type="line"/>
      <point x="144" y="494"/>
      <point x="139" y="498"/>
      <point x="130" y="498" type="curve" smooth="yes"/>
      <point x="104" y="498" type="line"/>
      <point x="104" y="459" type="line"/>
      <point x="104" y="40" type="line"/>
      <point x="51" y="38" type="line"/>
      <point x="38" y="37"/>
      <point x="32" y="31"/>
      <point x="32" y="20" type="curve" smooth="yes"/>
    </contour>
    <component base="SerifSpur" xOffset="124" yOffset="498"/>
    <contour>
      <point x="295" y="0" type="move" name="bottom"/>
    </contour>
    <contour>
      <point x="317" y="498" type="move" name="top"/>
    </contour>
  </outline>
</glyph>
<glyph name="o" format="1">
  <advance width="536"/>
  <unicode hex="006F"/>
  <note>
    o
  </note>
  <outline>
    <contour>
      <point x="269" y="506" type="curve" smooth="yes"/>
      <point x="123" y="506"/>
      <point x="41" y="400"/>
      <point x="41" y="249" type="curve" smooth="yes"/>
      <point x="41" y="98"/>
      <point x="122" y="-6"/>
      <point x="269" y="-6" type="curve" smooth="yes"/>
      <point x="412" y="-6"/>
      <point x="495" y="95"/>
      <point x="495" y="249" type="curve" smooth="yes"/>
      <point x="495" y="401"/>
      <point x="413" y="506"/>
    </contour>
    <contour>
      <point x="269" y="31" type="curve" smooth="yes"/>
      <point x="145" y="31"/>
      <point x="91" y="121"/>
      <point x="91" y="249" type="curve" smooth="yes"/>
      <point x="91" y="380"/>
      <point x="147" y="468"/>
      <point x="269" y="468" type="curve" smooth="yes"/>
      <point x="391" y="468"/>
      <point x="446" y="376"/>
      <point x="446" y="249" type="curve" smooth="yes"/>
      <point x="446" y="120"/>
      <point x="390" y="31"/>
    </contour>
    <contour>
      <point x="268" y="0" type="move" name="bottom"/>
    </contour>
    <contour>
      <point x="268" y="249" type="move" name="center"/>
    </contour>
    <contour>
      <point x="480" y="10" type="move" name="ogonek"/>
    </contour>
    <contour>
      <point x="268" y="498" type="move" name="top"/>
    </contour>
    <contour>
      <point x="513" y="498" type="move" name="topright"/>
    </contour>
  </outline>
</glyph>
<glyph name="p" format="1">
  <advance width="560"/>
  <unicode hex="0070"/>
  <note>
    p
  </note>
  <outline>
    <contour>
      <point x="519" y="252" type="curve" smooth="yes"/>
      <point x="519" y="402"/>
      <point x="461" y="506"/>
      <point x="325" y="506" type="curve" smooth="yes"/>
      <point x="254" y="506"/>
      <point x="193" y="468"/>
      <point x="149" y="408" type="curve"/>
      <point x="144" y="486" type="line"/>
      <point x="144" y="496"/>
      <point x="140" y="498"/>
      <point x="129" y="498" type="curve" smooth="yes"/>
      <point x="31" y="498" type="line"/>
      <point x="31" y="479" type="line" smooth="yes"/>
      <point x="31" y="468"/>
      <point x="38" y="462"/>
      <point x="51" y="461" type="curve"/>
      <point x="103" y="459" type="line"/>
      <point x="103" y="-136" type="line"/>
      <point x="51" y="-138" type="line"/>
      <point x="38" y="-139"/>
      <point x="31" y="-145"/>
      <point x="31" y="-156" type="curve" smooth="yes"/>
      <point x="31" y="-176" type="line"/>
      <point x="223" y="-176" type="line"/>
      <point x="223" y="-156" type="line" smooth="yes"/>
      <point x="223" y="-145"/>
      <point x="216" y="-139"/>
      <point x="203" y="-138" type="curve"/>
      <point x="151" y="-136" type="line"/>
      <point x="151" y="67" type="line"/>
      <point x="189" y="16"/>
      <point x="238" y="-6"/>
      <point x="303" y="-6" type="curve" smooth="yes"/>
      <point x="439" y="-6"/>
      <point x="519" y="104"/>
    </contour>
    <contour>
      <point x="470" y="252" type="curve" smooth="yes"/>
      <point x="470" y="126"/>
      <point x="415" y="31"/>
      <point x="293" y="31" type="curve" smooth="yes"/>
      <point x="231" y="31"/>
      <point x="185" y="57"/>
      <point x="151" y="109" type="curve"/>
      <point x="151" y="370" type="line"/>
      <point x="192" y="431"/>
      <point x="243" y="467"/>
      <point x="312" y="467" type="curve" smooth="yes"/>
      <point x="425" y="467"/>
      <point x="470" y="383"/>
    </contour>
  </outline>
</glyph>
<glyph name="q" format="1">
  <advance width="552"/>
  <unicode hex="0071"/>
  <note>
    q
  </note>
  <outline>
    <contour>
      <point x="510" y="-139" type="curve"/>
      <point x="458" y="-137" type="line"/>
      <point x="458" y="452" type="line"/>
      <point x="458" y="477" type="line"/>
      <point x="370" y="496"/>
      <point x="304" y="505"/>
      <point x="259" y="505" type="curve" smooth="yes"/>
      <point x="120" y="505"/>
      <point x="41" y="391"/>
      <point x="41" y="247" type="curve" smooth="yes"/>
      <point x="41" y="100"/>
      <point x="99" y="-6"/>
      <point x="235" y="-6" type="curve" smooth="yes"/>
      <point x="307" y="-6"/>
      <point x="365" y="29"/>
      <point x="410" y="88" type="curve"/>
      <point x="410" y="-137" type="line"/>
      <point x="358" y="-139" type="line"/>
      <point x="345" y="-140"/>
      <point x="338" y="-146"/>
      <point x="338" y="-157" type="curve" smooth="yes"/>
      <point x="338" y="-176" type="line"/>
      <point x="530" y="-176" type="line"/>
      <point x="530" y="-157" type="line" smooth="yes"/>
      <point x="530" y="-146"/>
      <point x="523" y="-140"/>
    </contour>
    <contour>
      <point x="410" y="447" type="curve"/>
      <point x="410" y="128" type="line"/>
      <point x="368" y="68"/>
      <point x="318" y="32"/>
      <point x="249" y="32" type="curve" smooth="yes"/>
      <point x="136" y="32"/>
      <point x="91" y="116"/>
      <point x="91" y="247" type="curve" smooth="yes"/>
      <point x="91" y="375"/>
      <point x="147" y="468"/>
      <point x="268" y="468" type="curve" smooth="yes"/>
      <point x="294" y="468"/>
      <point x="341" y="461"/>
    </contour>
  </outline>
</glyph>
<glyph name="r" format="1">
  <advance width="408"/>
  <unicode hex="0072"/>
  <note>
    r
  </note>
  <outline>
    <contour>
      <point x="357" y="448" type="curve"/>
      <point x="368" y="444"/>
      <point x="377" y="452"/>
      <point x="380" y="462" type="curve" smooth="yes"/>
      <point x="389" y="487" type="line"/>
      <point x="367" y="499"/>
      <point x="338" y="506"/>
      <point x="312" y="506" type="curve" smooth="yes"/>
      <point x="234" y="506"/>
      <point x="182" y="460"/>
      <point x="149" y="377" type="curve"/>
      <point x="145" y="483" type="line"/>
      <point x="145" y="489"/>
      <point x="143" y="493"/>
      <point x="141" y="495" type="curve" smooth="yes"/>
      <point x="139" y="497"/>
      <point x="135" y="498"/>
      <point x="129" y="498" type="curve"/>
      <point x="104" y="498" type="line"/>
      <point x="104" y="459" type="line"/>
      <point x="104" y="40" type="line"/>
      <point x="104" y="0" type="line"/>
      <point x="151" y="0" type="line"/>
      <point x="151" y="40" type="line"/>
      <point x="151" y="323" type="line"/>
      <point x="179" y="406"/>
      <point x="225" y="459"/>
      <point x="303" y="459" type="curve" smooth="yes"/>
      <point x="329" y="459"/>
      <point x="344" y="453"/>
    </contour>
    <component base="SerifSpur" xOffset="124" yOffset="498"/>
    <component base="SerfiBottomSymmetrical" xOffset="104"/>
    <contour>
      <point x="129" y="0" type="move" name="bottom"/>
    </contour>
    <contour>
      <point x="198" y="498" type="move" name="top"/>
    </contour>
  </outline>
</glyph>
<glyph name="s" format="1">
  <advance width="414"/>
  <unicode hex="0073"/>
  <note>
    s
  </note>
  <outline>
    <contour>
      <point x="368" y="146" type="curve" smooth="yes"/>
      <point x="368" y="217"/>
      <point x="308" y="251"/>
      <point x="229" y="274" type="curve" smooth="yes"/>
      <point x="151" y="297"/>
      <point x="91" y="316"/>
      <point x="91" y="374" type="curve" smooth="yes"/>
      <point x="91" y="433"/>
      <point x="149" y="469"/>
      <point x="211" y="469" type="curve" smooth="yes"/>
      <point x="237" y="469"/>
      <point x="263" y="465"/>
      <point x="290" y="456" type="curve"/>
      <point x="296" y="384" type="line"/>
      <point x="297" y="368"/>
      <point x="304" y="360"/>
      <point x="318" y="360" type="curve" smooth="yes"/>
      <point x="342" y="360" type="line"/>
      <point x="342" y="479" type="line"/>
      <point x="290" y="497"/>
      <point x="246" y="505"/>
      <point x="210" y="505" type="curve" smooth="yes"/>
      <point x="122" y="505"/>
      <point x="46" y="453"/>
      <point x="46" y="371" type="curve" smooth="yes"/>
      <point x="46" y="297"/>
      <point x="102" y="266"/>
      <point x="184" y="243" type="curve" smooth="yes"/>
      <point x="262" y="220"/>
      <point x="323" y="199"/>
      <point x="323" y="138" type="curve" smooth="yes"/>
      <point x="323" y="69"/>
      <point x="267" y="27"/>
      <point x="195" y="27" type="curve" smooth="yes"/>
      <point x="157" y="27"/>
      <point x="125" y="32"/>
      <point x="98" y="43" type="curve"/>
      <point x="92" y="117" type="line"/>
      <point x="91" y="133"/>
      <point x="84" y="141"/>
      <point x="70" y="141" type="curve" smooth="yes"/>
      <point x="46" y="141" type="line"/>
      <point x="46" y="20" type="line"/>
      <point x="94" y="2"/>
      <point x="143" y="-8"/>
      <point x="193" y="-8" type="curve" smooth="yes"/>
      <point x="292" y="-8"/>
      <point x="368" y="50"/>
    </contour>
    <contour>
      <point x="156" y="0" type="move" name="bottom"/>
    </contour>
    <contour>
      <point x="194" y="498" type="move" name="top"/>
    </contour>
  </outline>
</glyph>
<glyph name="t" format="1">
  <advance width="339"/>
  <unicode hex="0074"/>
  <note>
    t
  </note>
  <outline>
    <contour>
      <point x="220" y="-8" type="curve" smooth="yes"/>
      <point x="259" y="-8"/>
      <point x="303" y="10"/>
      <point x="329" y="38" type="curve"/>
      <point x="318" y="56" type="line"/>
      <point x="315" y="61"/>
      <point x="308" y="66"/>
      <point x="298" y="59" type="curve" smooth="yes"/>
      <point x="283" y="48"/>
      <point x="257" y="31"/>
      <point x="230" y="31" type="curve" smooth="yes"/>
      <point x="188" y="31"/>
      <point x="161" y="59"/>
      <point x="161" y="109" type="curve" smooth="yes"/>
      <point x="161" y="446" type="line"/>
      <point x="318" y="446" type="line"/>
      <point x="318" y="482" type="line"/>
      <point x="161" y="482" type="line"/>
      <point x="161" y="672" type="line"/>
      <point x="138" y="672" type="line" smooth="yes"/>
      <point x="131" y="672"/>
      <point x="126" y="664"/>
      <point x="126" y="660" type="curve"/>
      <point x="114" y="482" type="line"/>
      <point x="29" y="476" type="line"/>
      <point x="29" y="458" type="line" smooth="yes"/>
      <point x="29" y="450"/>
      <point x="35" y="446"/>
      <point x="42" y="446" type="curve" smooth="yes"/>
      <point x="113" y="446" type="line"/>
      <point x="113" y="106" type="line" smooth="yes"/>
      <point x="113" y="33"/>
      <point x="148" y="-8"/>
    </contour>
    <contour>
      <point x="167" y="0" type="move" name="bottom"/>
    </contour>
    <contour>
      <point x="190" y="249" type="move" name="center"/>
    </contour>
    <contour>
      <point x="190" y="498" type="move" name="top"/>
    </contour>
    <contour>
      <point x="181" y="498" type="move" name="topright"/>
    </contour>
  </outline>
</glyph>
<glyph name="u" format="1">
  <advance width="567"/>
  <unicode hex="0075"/>
  <note>
    u
  </note>
  <outline>
    <contour>
      <point x="525" y="38" type="curve"/>
      <point x="473" y="40" type="line"/>
      <point x="473" y="498" type="line"/>
      <point x="425" y="497" type="line"/>
      <point x="353" y="497" type="line"/>
      <point x="353" y="478" type="line" smooth="yes"/>
      <point x="353" y="467"/>
      <point x="360" y="461"/>
      <point x="373" y="460" type="curve"/>
      <point x="425" y="458" type="line"/>
      <point x="425" y="124" type="line"/>
      <point x="383" y="68"/>
      <point x="324" y="30"/>
      <point x="259" y="30" type="curve" smooth="yes"/>
      <point x="170" y="30"/>
      <point x="129" y="88"/>
      <point x="129" y="180" type="curve" smooth="yes"/>
      <point x="129" y="498" type="line"/>
      <point x="81" y="497" type="line"/>
      <point x="9" y="497" type="line"/>
      <point x="9" y="478" type="line" smooth="yes"/>
      <point x="9" y="467"/>
      <point x="16" y="461"/>
      <point x="29" y="460" type="curve"/>
      <point x="81" y="458" type="line"/>
      <point x="81" y="180" type="line" smooth="yes"/>
      <point x="81" y="70"/>
      <point x="135" y="-8"/>
      <point x="247" y="-8" type="curve" smooth="yes"/>
      <point x="319" y="-8"/>
      <point x="381" y="28"/>
      <point x="428" y="87" type="curve"/>
      <point x="432" y="13" type="line"/>
      <point x="432" y="4"/>
      <point x="438" y="0"/>
      <point x="447" y="0" type="curve" smooth="yes"/>
      <point x="545" y="0" type="line"/>
      <point x="545" y="20" type="line" smooth="yes"/>
      <point x="545" y="31"/>
      <point x="538" y="37"/>
    </contour>
    <contour>
      <point x="288" y="0" type="move" name="bottom"/>
    </contour>
    <contour>
      <point x="548" y="10" type="move" name="ogonek"/>
    </contour>
    <contour>
      <point x="259" y="498" type="move" name="top"/>
    </contour>
    <contour>
      <point x="567" y="498" type="move" name="topright"/>
    </contour>
  </outline>
</glyph>
<glyph name="v" format="1">
  <advance width="542"/>
  <unicode hex="0076"/>
  <note>
    v
  </note>
  <outline>
    <contour>
      <point x="539" y="498" type="line"/>
      <point x="364" y="498" type="line"/>
      <point x="364" y="479" type="line" smooth="yes"/>
      <point x="364" y="468"/>
      <point x="371" y="462"/>
      <point x="384" y="461" type="curve"/>
      <point x="436" y="459" type="line"/>
      <point x="283" y="93" type="line" smooth="yes"/>
      <point x="279" y="84"/>
      <point x="273" y="61"/>
      <point x="270" y="50" type="curve"/>
      <point x="268" y="61"/>
      <point x="262" y="84"/>
      <point x="258" y="93" type="curve"/>
      <point x="105" y="459" type="line"/>
      <point x="157" y="461" type="line"/>
      <point x="170" y="462"/>
      <point x="177" y="468"/>
      <point x="177" y="479" type="curve" smooth="yes"/>
      <point x="177" y="498" type="line"/>
      <point x="3" y="498" type="line"/>
      <point x="3" y="479" type="line" smooth="yes"/>
      <point x="3" y="468"/>
      <point x="9" y="462"/>
      <point x="22" y="461" type="curve"/>
      <point x="55" y="460" type="line"/>
      <point x="249" y="0" type="line"/>
      <point x="291" y="0" type="line"/>
      <point x="484" y="460" type="line"/>
      <point x="519" y="461" type="line"/>
      <point x="532" y="462"/>
      <point x="539" y="468"/>
      <point x="539" y="479" type="curve" smooth="yes"/>
    </contour>
  </outline>
</glyph>
<glyph name="w" format="1">
  <advance width="802"/>
  <unicode hex="0077"/>
  <note>
    w
  </note>
  <outline>
    <contour>
      <point x="799" y="497" type="line"/>
      <point x="625" y="497" type="line"/>
      <point x="625" y="478" type="line" smooth="yes"/>
      <point x="625" y="467"/>
      <point x="632" y="461"/>
      <point x="645" y="460" type="curve"/>
      <point x="696" y="458" type="line"/>
      <point x="579" y="93" type="line"/>
      <point x="576" y="78"/>
      <point x="571" y="61"/>
      <point x="569" y="50" type="curve"/>
      <point x="566" y="61"/>
      <point x="562" y="78"/>
      <point x="557" y="93" type="curve" smooth="yes"/>
      <point x="425" y="489" type="line"/>
      <point x="423" y="496"/>
      <point x="418" y="500"/>
      <point x="411" y="500" type="curve" smooth="yes"/>
      <point x="391" y="500" type="line" smooth="yes"/>
      <point x="384" y="500"/>
      <point x="379" y="496"/>
      <point x="377" y="489" type="curve"/>
      <point x="244" y="93" type="line" smooth="yes"/>
      <point x="241" y="83"/>
      <point x="234" y="61"/>
      <point x="231" y="50" type="curve"/>
      <point x="229" y="61"/>
      <point x="224" y="83"/>
      <point x="222" y="93" type="curve"/>
      <point x="105" y="458" type="line"/>
      <point x="157" y="460" type="line"/>
      <point x="170" y="461"/>
      <point x="177" y="467"/>
      <point x="177" y="478" type="curve" smooth="yes"/>
      <point x="177" y="497" type="line"/>
      <point x="3" y="497" type="line"/>
      <point x="3" y="478" type="line" smooth="yes"/>
      <point x="3" y="467"/>
      <point x="9" y="461"/>
      <point x="22" y="460" type="curve"/>
      <point x="55" y="459" type="line"/>
      <point x="209" y="0" type="line"/>
      <point x="242" y="0" type="line" smooth="yes"/>
      <point x="248" y="0"/>
      <point x="252" y="4"/>
      <point x="254" y="11" type="curve"/>
      <point x="392" y="415" type="line"/>
      <point x="394" y="424"/>
      <point x="397" y="433"/>
      <point x="400" y="444" type="curve"/>
      <point x="402" y="433"/>
      <point x="405" y="424"/>
      <point x="408" y="415" type="curve"/>
      <point x="544" y="11" type="line"/>
      <point x="546" y="4"/>
      <point x="551" y="0"/>
      <point x="556" y="0" type="curve" smooth="yes"/>
      <point x="591" y="0" type="line"/>
      <point x="744" y="459" type="line"/>
      <point x="779" y="460" type="line"/>
      <point x="792" y="461"/>
      <point x="799" y="467"/>
      <point x="799" y="478" type="curve" smooth="yes"/>
    </contour>
    <contour>
      <point x="405" y="0" type="move" name="bottom"/>
    </contour>
    <contour>
      <point x="405" y="498" type="move" name="top"/>
    </contour>
  </outline>
</glyph>
<glyph name="x" format="1">
  <advance width="505"/>
  <unicode hex="0078"/>
  <note>
    x
  </note>
  <outline>
    <contour>
      <point x="466" y="38" type="curve"/>
      <point x="438" y="39" type="line"/>
      <point x="284" y="257" type="line"/>
      <point x="430" y="460" type="line"/>
      <point x="461" y="461" type="line"/>
      <point x="474" y="462"/>
      <point x="481" y="468"/>
      <point x="481" y="479" type="curve" smooth="yes"/>
      <point x="481" y="498" type="line"/>
      <point x="333" y="498" type="line"/>
      <point x="333" y="479" type="line" smooth="yes"/>
      <point x="333" y="468"/>
      <point x="340" y="462"/>
      <point x="353" y="461" type="curve"/>
      <point x="379" y="460" type="line"/>
      <point x="263" y="294" type="line" smooth="yes"/>
      <point x="259" y="288"/>
      <point x="255" y="282"/>
      <point x="254" y="276" type="curve"/>
      <point x="128" y="460" type="line"/>
      <point x="152" y="461" type="line"/>
      <point x="165" y="462"/>
      <point x="172" y="468"/>
      <point x="172" y="479" type="curve" smooth="yes"/>
      <point x="172" y="498" type="line"/>
      <point x="24" y="498" type="line"/>
      <point x="24" y="479" type="line" smooth="yes"/>
      <point x="24" y="468"/>
      <point x="31" y="462"/>
      <point x="44" y="461" type="curve"/>
      <point x="75" y="460" type="line"/>
      <point x="220" y="255" type="line"/>
      <point x="67" y="39" type="line"/>
      <point x="40" y="38" type="line"/>
      <point x="27" y="37"/>
      <point x="20" y="31"/>
      <point x="20" y="20" type="curve" smooth="yes"/>
      <point x="20" y="0" type="line"/>
      <point x="168" y="0" type="line"/>
      <point x="168" y="20" type="line" smooth="yes"/>
      <point x="168" y="31"/>
      <point x="161" y="37"/>
      <point x="148" y="38" type="curve"/>
      <point x="118" y="39" type="line"/>
      <point x="244" y="216" type="line"/>
      <point x="247" y="221"/>
      <point x="249" y="225"/>
      <point x="251" y="232" type="curve"/>
      <point x="385" y="39" type="line"/>
      <point x="357" y="38" type="line"/>
      <point x="344" y="37"/>
      <point x="338" y="31"/>
      <point x="338" y="20" type="curve" smooth="yes"/>
      <point x="338" y="0" type="line"/>
      <point x="485" y="0" type="line"/>
      <point x="485" y="20" type="line" smooth="yes"/>
      <point x="485" y="31"/>
      <point x="479" y="37"/>
    </contour>
  </outline>
</glyph>
<glyph name="y" format="1">
  <advance width="541"/>
  <unicode hex="0079"/>
  <note>
    y
  </note>
  <outline>
    <contour>
      <point x="538" y="498" type="line"/>
      <point x="364" y="498" type="line"/>
      <point x="364" y="479" type="line" smooth="yes"/>
      <point x="364" y="468"/>
      <point x="371" y="462"/>
      <point x="384" y="461" type="curve"/>
      <point x="435" y="459" type="line"/>
      <point x="282" y="98" type="line"/>
      <point x="278" y="89"/>
      <point x="272" y="72"/>
      <point x="271" y="68" type="curve"/>
      <point x="270" y="72"/>
      <point x="265" y="89"/>
      <point x="261" y="98" type="curve" smooth="yes"/>
      <point x="106" y="459" type="line"/>
      <point x="157" y="461" type="line"/>
      <point x="170" y="462"/>
      <point x="177" y="468"/>
      <point x="177" y="479" type="curve" smooth="yes"/>
      <point x="177" y="498" type="line"/>
      <point x="76" y="498" type="line"/>
      <point x="76" y="498" type="line"/>
      <point x="3" y="498" type="line"/>
      <point x="3" y="479" type="line" smooth="yes"/>
      <point x="3" y="468"/>
      <point x="10" y="462"/>
      <point x="23" y="461" type="curve"/>
      <point x="53" y="460" type="line"/>
      <point x="247" y="18" type="line"/>
      <point x="159" y="-176" type="line"/>
      <point x="193" y="-176" type="line" smooth="yes"/>
      <point x="203" y="-176"/>
      <point x="211" y="-169"/>
      <point x="215" y="-160" type="curve" smooth="yes"/>
      <point x="484" y="460" type="line"/>
      <point x="518" y="461" type="line"/>
      <point x="531" y="462"/>
      <point x="538" y="468"/>
      <point x="538" y="479" type="curve" smooth="yes"/>
    </contour>
    <contour>
      <point x="275" y="0" type="move" name="bottom"/>
    </contour>
    <contour>
      <point x="275" y="498" type="move" name="top"/>
    </contour>
  </outline>
</glyph>
<glyph name="z" format="1">
  <advance width="478"/>
  <unicode hex="007A"/>
  <note>
    z
  </note>
  <outline>
    <contour>
      <point x="430" y="125" type="line"/>
      <point x="406" y="125" type="line" smooth="yes"/>
      <point x="392" y="125"/>
      <point x="385" y="117"/>
      <point x="384" y="101" type="curve"/>
      <point x="379" y="37" type="line"/>
      <point x="106" y="37" type="line"/>
      <point x="417" y="459" type="line"/>
      <point x="422" y="465"/>
      <point x="424" y="471"/>
      <point x="424" y="478" type="curve" smooth="yes"/>
      <point x="424" y="498" type="line"/>
      <point x="65" y="498" type="line"/>
      <point x="65" y="369" type="line"/>
      <point x="89" y="369" type="line" smooth="yes"/>
      <point x="103" y="369"/>
      <point x="110" y="377"/>
      <point x="111" y="393" type="curve"/>
      <point x="116" y="461" type="line"/>
      <point x="368" y="461" type="line"/>
      <point x="56" y="37" type="line" smooth="yes"/>
      <point x="51" y="30"/>
      <point x="48" y="25"/>
      <point x="48" y="19" type="curve" smooth="yes"/>
      <point x="48" y="0" type="line"/>
      <point x="430" y="0" type="line"/>
    </contour>
    <contour>
      <point x="244" y="0" type="move" name="bottom"/>
    </contour>
    <contour>
      <point x="252" y="498" type="move" name="top"/>
    </contour>
  </outline>
</glyph>
<glyph name="braceleft" format="1">
  <advance width="340"/>
  <unicode hex="007B"/>
  <note>
    braceleft
  </note>
  <outline>
    <contour>
      <point x="145" y="222" type="curve" smooth="yes"/>
      <point x="145" y="187"/>
      <point x="139" y="156"/>
      <point x="130" y="117" type="curve" smooth="yes"/>
      <point x="123" y="86"/>
      <point x="116" y="44"/>
      <point x="116" y="10" type="curve" smooth="yes"/>
      <point x="116" y="-75"/>
      <point x="172" y="-132"/>
      <point x="256" y="-132" type="curve" smooth="yes"/>
      <point x="284" y="-132" type="line"/>
      <point x="284" y="-115" type="line" smooth="yes"/>
      <point x="284" y="-106"/>
      <point x="279" y="-100"/>
      <point x="269" y="-100" type="curve" smooth="yes"/>
      <point x="254" y="-100" type="line" smooth="yes"/>
      <point x="198" y="-100"/>
      <point x="158" y="-57"/>
      <point x="158" y="8" type="curve" smooth="yes"/>
      <point x="158" y="40"/>
      <point x="164" y="79"/>
      <point x="172" y="116" type="curve" smooth="yes"/>
      <point x="179" y="148"/>
      <point x="186" y="189"/>
      <point x="186" y="222" type="curve" smooth="yes"/>
      <point x="186" y="267"/>
      <point x="155" y="305"/>
      <point x="112" y="313" type="curve"/>
      <point x="151" y="321"/>
      <point x="186" y="358"/>
      <point x="186" y="404" type="curve" smooth="yes"/>
      <point x="186" y="435"/>
      <point x="180" y="475"/>
      <point x="172" y="510" type="curve" smooth="yes"/>
      <point x="165" y="543"/>
      <point x="158" y="583"/>
      <point x="158" y="618" type="curve" smooth="yes"/>
      <point x="158" y="681"/>
      <point x="196" y="726"/>
      <point x="254" y="726" type="curve" smooth="yes"/>
      <point x="269" y="726" type="line" smooth="yes"/>
      <point x="278" y="726"/>
      <point x="283" y="732"/>
      <point x="283" y="741" type="curve" smooth="yes"/>
      <point x="283" y="758" type="line"/>
      <point x="256" y="758" type="line" smooth="yes"/>
      <point x="169" y="758"/>
      <point x="115" y="699"/>
      <point x="115" y="616" type="curve" smooth="yes"/>
      <point x="115" y="592"/>
      <point x="123" y="539"/>
      <point x="130" y="509" type="curve" smooth="yes"/>
      <point x="138" y="475"/>
      <point x="146" y="435"/>
      <point x="146" y="404" type="curve" smooth="yes"/>
      <point x="146" y="361"/>
      <point x="111" y="328"/>
      <point x="68" y="328" type="curve"/>
      <point x="68" y="298" type="line"/>
      <point x="111" y="298"/>
      <point x="145" y="272"/>
    </contour>
  </outline>
</glyph>
<glyph name="braceright" format="1">
  <advance width="339"/>
  <unicode hex="007D"/>
  <note>
    braceright
  </note>
  <outline>
    <contour>
      <point x="194" y="222" type="curve" smooth="yes"/>
      <point x="194" y="270"/>
      <point x="226" y="298"/>
      <point x="271" y="298" type="curve"/>
      <point x="271" y="328" type="line"/>
      <point x="226" y="328"/>
      <point x="194" y="359"/>
      <point x="194" y="404" type="curve" smooth="yes"/>
      <point x="194" y="440"/>
      <point x="200" y="471"/>
      <point x="209" y="510" type="curve" smooth="yes"/>
      <point x="216" y="538"/>
      <point x="224" y="589"/>
      <point x="224" y="616" type="curve" smooth="yes"/>
      <point x="224" y="698"/>
      <point x="170" y="759"/>
      <point x="83" y="759" type="curve" smooth="yes"/>
      <point x="56" y="759" type="line"/>
      <point x="56" y="738" type="line" smooth="yes"/>
      <point x="56" y="730"/>
      <point x="62" y="726"/>
      <point x="68" y="726" type="curve" smooth="yes"/>
      <point x="85" y="726" type="line" smooth="yes"/>
      <point x="145" y="726"/>
      <point x="182" y="678"/>
      <point x="182" y="618" type="curve" smooth="yes"/>
      <point x="182" y="592"/>
      <point x="175" y="544"/>
      <point x="167" y="510" type="curve" smooth="yes"/>
      <point x="160" y="478"/>
      <point x="153" y="437"/>
      <point x="153" y="404" type="curve" smooth="yes"/>
      <point x="153" y="360"/>
      <point x="184" y="321"/>
      <point x="226" y="313" type="curve"/>
      <point x="186" y="303"/>
      <point x="152" y="270"/>
      <point x="152" y="222" type="curve" smooth="yes"/>
      <point x="152" y="197"/>
      <point x="159" y="151"/>
      <point x="167" y="117" type="curve" smooth="yes"/>
      <point x="174" y="87"/>
      <point x="182" y="36"/>
      <point x="182" y="8" type="curve" smooth="yes"/>
      <point x="182" y="-48"/>
      <point x="146" y="-100"/>
      <point x="84" y="-100" type="curve" smooth="yes"/>
      <point x="68" y="-100" type="line" smooth="yes"/>
      <point x="64" y="-100"/>
      <point x="56" y="-101"/>
      <point x="56" y="-111" type="curve" smooth="yes"/>
      <point x="56" y="-132" type="line"/>
      <point x="83" y="-132" type="line" smooth="yes"/>
      <point x="168" y="-132"/>
      <point x="224" y="-71"/>
      <point x="224" y="11" type="curve" smooth="yes"/>
      <point x="224" y="41"/>
      <point x="217" y="79"/>
      <point x="208" y="117" type="curve" smooth="yes"/>
      <point x="201" y="148"/>
      <point x="194" y="189"/>
    </contour>
  </outline>
</glyph>
<glyph name="asciitilde" format="1">
  <advance width="580"/>
  <unicode hex="007E"/>
  <note>
    asciitilde
  </note>
  <outline>
    <contour>
      <point x="390" y="284" type="curve" smooth="yes"/>
      <point x="361" y="284"/>
      <point x="329" y="298"/>
      <point x="293" y="315" type="curve" smooth="yes"/>
      <point x="259" y="331"/>
      <point x="224" y="346"/>
      <point x="188" y="346" type="curve" smooth="yes"/>
      <point x="115" y="346"/>
      <point x="70" y="292"/>
      <point x="70" y="217" type="curve"/>
      <point x="108" y="217" type="line"/>
      <point x="108" y="263"/>
      <point x="138" y="307"/>
      <point x="190" y="307" type="curve" smooth="yes"/>
      <point x="215" y="307"/>
      <point x="250" y="292"/>
      <point x="287" y="276" type="curve" smooth="yes"/>
      <point x="324" y="259"/>
      <point x="359" y="244"/>
      <point x="392" y="244" type="curve" smooth="yes"/>
      <point x="465" y="244"/>
      <point x="510" y="299"/>
      <point x="510" y="374" type="curve"/>
      <point x="471" y="374" type="line"/>
      <point x="471" y="325"/>
      <point x="444" y="284"/>
    </contour>
  </outline>
</glyph>
<glyph name="exclamdown" format="1">
  <advance width="268"/>
  <unicode hex="00A1"/>
  <note>
    exclamdown
  </note>
  <outline>
    <contour>
      <point x="113" y="99" type="line"/>
      <point x="113" y="-176" type="line"/>
      <point x="160" y="-176" type="line"/>
      <point x="160" y="99" type="line"/>
      <point x="152" y="277" type="line"/>
      <point x="120" y="277" type="line"/>
    </contour>
    <contour>
      <point x="135" y="413" type="curve" smooth="yes"/>
      <point x="161" y="413"/>
      <point x="181" y="434"/>
      <point x="181" y="460" type="curve" smooth="yes"/>
      <point x="181" y="485"/>
      <point x="161" y="506"/>
      <point x="135" y="506" type="curve" smooth="yes"/>
      <point x="109" y="506"/>
      <point x="89" y="485"/>
      <point x="89" y="460" type="curve" smooth="yes"/>
      <point x="89" y="434"/>
      <point x="109" y="413"/>
    </contour>
  </outline>
</glyph>
<glyph name="cent" format="1">
  <advance width="458"/>
  <unicode hex="00A2"/>
  <note>
    cent
  </note>
  <outline>
    <contour>
      <point x="425" y="64" type="curve"/>
      <point x="412" y="80" type="line"/>
      <point x="408" y="86"/>
      <point x="398" y="88"/>
      <point x="387" y="77" type="curve" smooth="yes"/>
      <point x="349" y="39"/>
      <point x="301" y="32"/>
      <point x="248" y="32" type="curve"/>
      <point x="269" y="467" type="line"/>
      <point x="270" y="468" type="line"/>
      <point x="294" y="468"/>
      <point x="322" y="462"/>
      <point x="353" y="451" type="curve"/>
      <point x="360" y="373" type="line"/>
      <point x="361" y="357"/>
      <point x="367" y="349"/>
      <point x="381" y="349" type="curve" smooth="yes"/>
      <point x="405" y="349" type="line"/>
      <point x="405" y="474" type="line"/>
      <point x="357" y="489"/>
      <point x="300" y="503"/>
      <point x="271" y="505" type="curve"/>
      <point x="277" y="624" type="line"/>
      <point x="259" y="624" type="line" smooth="yes"/>
      <point x="251" y="624"/>
      <point x="244" y="615"/>
      <point x="244" y="608" type="curve"/>
      <point x="239" y="505" type="line"/>
      <point x="239" y="504" type="line"/>
      <point x="115" y="496"/>
      <point x="41" y="389"/>
      <point x="41" y="249" type="curve" smooth="yes"/>
      <point x="41" y="122"/>
      <point x="99" y="18"/>
      <point x="214" y="-3" type="curve"/>
      <point x="208" y="-126" type="line"/>
      <point x="226" y="-126" type="line" smooth="yes"/>
      <point x="236" y="-126"/>
      <point x="241" y="-120"/>
      <point x="241" y="-110" type="curve"/>
      <point x="246" y="-6" type="line"/>
      <point x="323" y="-6"/>
      <point x="389" y="17"/>
    </contour>
    <contour>
      <point x="129" y="58"/>
      <point x="89" y="149"/>
      <point x="89" y="249" type="curve" smooth="yes"/>
      <point x="89" y="355"/>
      <point x="135" y="454"/>
      <point x="238" y="466" type="curve"/>
      <point x="216" y="37" type="line"/>
    </contour>
  </outline>
</glyph>
<glyph name="sterling" format="1">
  <advance width="615"/>
  <unicode hex="00A3"/>
  <note>
    sterling
  </note>
  <outline>
    <contour>
      <point x="48" y="332" type="curve" smooth="yes"/>
      <point x="48" y="316" type="line"/>
      <point x="149" y="316" type="line"/>
      <point x="149" y="153" type="line" smooth="yes"/>
      <point x="149" y="98"/>
      <point x="113" y="51"/>
      <point x="60" y="32" type="curve"/>
      <point x="60" y="0" type="line"/>
      <point x="545" y="0" type="line" smooth="yes"/>
      <point x="558" y="0"/>
      <point x="567" y="11"/>
      <point x="567" y="22" type="curve" smooth="yes"/>
      <point x="567" y="42" type="line"/>
      <point x="173" y="42" type="line"/>
      <point x="129" y="38" type="line"/>
      <point x="176" y="69"/>
      <point x="197" y="108"/>
      <point x="197" y="164" type="curve" smooth="yes"/>
      <point x="197" y="316" type="line"/>
      <point x="421" y="316" type="line" smooth="yes"/>
      <point x="430" y="316"/>
      <point x="437" y="323"/>
      <point x="437" y="330" type="curve" smooth="yes"/>
      <point x="437" y="350" type="line"/>
      <point x="197" y="350" type="line"/>
      <point x="197" y="496" type="line" smooth="yes"/>
      <point x="197" y="603"/>
      <point x="252" y="674"/>
      <point x="355" y="674" type="curve" smooth="yes"/>
      <point x="426" y="674"/>
      <point x="451" y="650"/>
      <point x="491" y="592" type="curve" smooth="yes"/>
      <point x="497" y="583"/>
      <point x="511" y="582"/>
      <point x="517" y="586" type="curve"/>
      <point x="536" y="597" type="line"/>
      <point x="503" y="671"/>
      <point x="443" y="715"/>
      <point x="355" y="715" type="curve" smooth="yes"/>
      <point x="228" y="715"/>
      <point x="149" y="633"/>
      <point x="149" y="496" type="curve" smooth="yes"/>
      <point x="149" y="349" type="line"/>
      <point x="66" y="349" type="line" smooth="yes"/>
      <point x="56" y="349"/>
      <point x="48" y="342"/>
    </contour>
  </outline>
</glyph>
<glyph name="currency" format="1">
  <advance width="545"/>
  <unicode hex="00A4"/>
  <note>
    currency
  </note>
  <outline>
    <contour>
      <point x="102" y="336" type="curve" smooth="yes"/>
      <point x="102" y="298"/>
      <point x="117" y="256"/>
      <point x="141" y="226" type="curve"/>
      <point x="64" y="150" type="line"/>
      <point x="88" y="125" type="line"/>
      <point x="166" y="202" type="line"/>
      <point x="194" y="180"/>
      <point x="232" y="164"/>
      <point x="274" y="164" type="curve" smooth="yes"/>
      <point x="313" y="164"/>
      <point x="352" y="178"/>
      <point x="382" y="202" type="curve"/>
      <point x="460" y="125" type="line"/>
      <point x="484" y="150" type="line"/>
      <point x="408" y="227" type="line"/>
      <point x="430" y="255"/>
      <point x="446" y="293"/>
      <point x="446" y="335" type="curve" smooth="yes"/>
      <point x="446" y="376"/>
      <point x="433" y="412"/>
      <point x="407" y="444" type="curve"/>
      <point x="484" y="521" type="line"/>
      <point x="459" y="546" type="line"/>
      <point x="382" y="469" type="line"/>
      <point x="354" y="491"/>
      <point x="316" y="507"/>
      <point x="274" y="507" type="curve" smooth="yes"/>
      <point x="233" y="507"/>
      <point x="197" y="494"/>
      <point x="165" y="468" type="curve"/>
      <point x="88" y="545" type="line"/>
      <point x="64" y="520" type="line"/>
      <point x="140" y="443" type="line"/>
      <point x="117" y="414"/>
      <point x="102" y="378"/>
    </contour>
    <contour>
      <point x="138" y="335" type="curve" smooth="yes"/>
      <point x="138" y="370"/>
      <point x="153" y="406"/>
      <point x="178" y="431" type="curve" smooth="yes"/>
      <point x="204" y="457"/>
      <point x="237" y="472"/>
      <point x="274" y="472" type="curve" smooth="yes"/>
      <point x="347" y="472"/>
      <point x="410" y="409"/>
      <point x="410" y="336" type="curve" smooth="yes"/>
      <point x="410" y="262"/>
      <point x="348" y="200"/>
      <point x="274" y="200" type="curve" smooth="yes"/>
      <point x="200" y="200"/>
      <point x="138" y="262"/>
    </contour>
  </outline>
</glyph>
<glyph name="yen" format="1">
  <advance width="492"/>
  <unicode hex="00A5"/>
  <note>
    yen
  </note>
  <outline>
    <contour>
      <point x="213" y="308" type="line"/>
      <point x="39" y="308" type="line"/>
      <point x="39" y="279" type="line"/>
      <point x="222" y="279" type="line"/>
      <point x="222" y="220" type="line"/>
      <point x="39" y="220" type="line"/>
      <point x="39" y="191" type="line"/>
      <point x="222" y="191" type="line"/>
      <point x="222" y="0" type="line"/>
      <point x="270" y="0" type="line"/>
      <point x="270" y="191" type="line"/>
      <point x="453" y="191" type="line"/>
      <point x="453" y="220" type="line"/>
      <point x="270" y="220" type="line"/>
      <point x="270" y="279" type="line"/>
      <point x="453" y="279" type="line"/>
      <point x="453" y="308" type="line"/>
      <point x="279" y="308" type="line"/>
      <point x="491" y="708" type="line"/>
      <point x="451" y="708" type="line" smooth="yes"/>
      <point x="442" y="708"/>
      <point x="436" y="703"/>
      <point x="432" y="695" type="curve" smooth="yes"/>
      <point x="259" y="362" type="line"/>
      <point x="253" y="349"/>
      <point x="249" y="337"/>
      <point x="246" y="326" type="curve"/>
      <point x="242" y="337"/>
      <point x="240" y="349"/>
      <point x="233" y="362" type="curve"/>
      <point x="61" y="695" type="line" smooth="yes"/>
      <point x="57" y="703"/>
      <point x="50" y="708"/>
      <point x="41" y="708" type="curve" smooth="yes"/>
      <point x="1" y="708" type="line"/>
    </contour>
  </outline>
</glyph>
<glyph name="brokenbar" format="1">
  <advance width="231"/>
  <unicode hex="00A6"/>
  <note>
    brokenbar
  </note>
  <outline>
    <contour>
      <point x="134" y="758" type="line"/>
      <point x="97" y="758" type="line"/>
      <point x="97" y="370" type="line"/>
      <point x="134" y="370" type="line"/>
    </contour>
    <contour>
      <point x="134" y="212" type="line"/>
      <point x="97" y="212" type="line"/>
      <point x="97" y="-176" type="line"/>
      <point x="134" y="-176" type="line"/>
    </contour>
  </outline>
</glyph>
<glyph name="section" format="1">
  <advance width="459"/>
  <unicode hex="00A7"/>
  <note>
    section
  </note>
  <outline>
    <contour>
      <point x="386" y="646" type="curve"/>
      <point x="396" y="662" type="line"/>
      <point x="355" y="698"/>
      <point x="306" y="716"/>
      <point x="250" y="716" type="curve" smooth="yes"/>
      <point x="163" y="716"/>
      <point x="86" y="661"/>
      <point x="86" y="580" type="curve" smooth="yes"/>
      <point x="86" y="538"/>
      <point x="105" y="504"/>
      <point x="148" y="475" type="curve"/>
      <point x="89" y="454"/>
      <point x="51" y="415"/>
      <point x="51" y="357" type="curve" smooth="yes"/>
      <point x="51" y="281"/>
      <point x="114" y="246"/>
      <point x="203" y="209" type="curve" smooth="yes"/>
      <point x="286" y="174"/>
      <point x="354" y="150"/>
      <point x="354" y="80" type="curve" smooth="yes"/>
      <point x="354" y="8"/>
      <point x="298" y="-31"/>
      <point x="226" y="-31" type="curve" smooth="yes"/>
      <point x="179" y="-31"/>
      <point x="137" y="-15"/>
      <point x="105" y="12" type="curve" smooth="yes"/>
      <point x="93" y="22"/>
      <point x="84" y="21"/>
      <point x="75" y="9" type="curve" smooth="yes"/>
      <point x="64" y="-5" type="line"/>
      <point x="110" y="-46"/>
      <point x="161" y="-66"/>
      <point x="222" y="-66" type="curve" smooth="yes"/>
      <point x="322" y="-66"/>
      <point x="396" y="-8"/>
      <point x="396" y="88" type="curve" smooth="yes"/>
      <point x="396" y="131"/>
      <point x="378" y="159"/>
      <point x="336" y="190" type="curve"/>
      <point x="389" y="213"/>
      <point x="419" y="254"/>
      <point x="419" y="311" type="curve" smooth="yes"/>
      <point x="419" y="388"/>
      <point x="354" y="427"/>
      <point x="274" y="463" type="curve" smooth="yes"/>
      <point x="193" y="498"/>
      <point x="128" y="524"/>
      <point x="128" y="582" type="curve" smooth="yes"/>
      <point x="128" y="641"/>
      <point x="189" y="679"/>
      <point x="251" y="679" type="curve" smooth="yes"/>
      <point x="293" y="679"/>
      <point x="324" y="669"/>
      <point x="360" y="645" type="curve" smooth="yes"/>
      <point x="372" y="637"/>
      <point x="381" y="637"/>
    </contour>
    <contour>
      <point x="93" y="363" type="curve" smooth="yes"/>
      <point x="93" y="411"/>
      <point x="126" y="438"/>
      <point x="175" y="459" type="curve"/>
      <point x="181" y="455"/>
      <point x="332" y="387"/>
      <point x="265" y="418" type="curve" smooth="yes"/>
      <point x="330" y="388"/>
      <point x="377" y="362"/>
      <point x="377" y="301" type="curve" smooth="yes"/>
      <point x="377" y="256"/>
      <point x="353" y="226"/>
      <point x="310" y="206" type="curve"/>
      <point x="269" y="228"/>
      <point x="259" y="231"/>
      <point x="214" y="251" type="curve" smooth="yes"/>
      <point x="147" y="280"/>
      <point x="93" y="311"/>
    </contour>
  </outline>
</glyph>
<glyph name="dieresis" format="1">
  <advance width="327"/>
  <unicode hex="00A8"/>
  <note>
    dieresis
  </note>
  <outline>
    <contour>
      <point x="249" y="602" type="curve" smooth="yes"/>
      <point x="272" y="602"/>
      <point x="290" y="620"/>
      <point x="290" y="643" type="curve" smooth="yes"/>
      <point x="290" y="666"/>
      <point x="272" y="684"/>
      <point x="249" y="684" type="curve" smooth="yes"/>
      <point x="226" y="684"/>
      <point x="208" y="666"/>
      <point x="208" y="643" type="curve" smooth="yes"/>
      <point x="208" y="620"/>
      <point x="226" y="602"/>
    </contour>
    <contour>
      <point x="78" y="602" type="curve" smooth="yes"/>
      <point x="101" y="602"/>
      <point x="119" y="620"/>
      <point x="119" y="643" type="curve" smooth="yes"/>
      <point x="119" y="666"/>
      <point x="101" y="684"/>
      <point x="78" y="684" type="curve" smooth="yes"/>
      <point x="55" y="684"/>
      <point x="37" y="666"/>
      <point x="37" y="643" type="curve" smooth="yes"/>
      <point x="37" y="620"/>
      <point x="55" y="602"/>
    </contour>
  </outline>
</glyph>
<glyph name="copyright" format="1">
  <advance width="817"/>
  <unicode hex="00A9"/>
  <note>
    copyright
  </note>
  <outline>
    <contour>
      <point x="545" y="207" type="curve" smooth="yes"/>
      <point x="507" y="177"/>
      <point x="465" y="166"/>
      <point x="414" y="166" type="curve" smooth="yes"/>
      <point x="302" y="166"/>
      <point x="238" y="244"/>
      <point x="238" y="354" type="curve" smooth="yes"/>
      <point x="238" y="469"/>
      <point x="311" y="544"/>
      <point x="422" y="544" type="curve" smooth="yes"/>
      <point x="471" y="544"/>
      <point x="501" y="533"/>
      <point x="539" y="508" type="curve"/>
      <point x="548" y="501"/>
      <point x="558" y="499"/>
      <point x="562" y="508" type="curve"/>
      <point x="574" y="524" type="line"/>
      <point x="533" y="561"/>
      <point x="484" y="580"/>
      <point x="420" y="580" type="curve" smooth="yes"/>
      <point x="291" y="580"/>
      <point x="194" y="489"/>
      <point x="194" y="354" type="curve" smooth="yes"/>
      <point x="194" y="226"/>
      <point x="278" y="129"/>
      <point x="412" y="129" type="curve" smooth="yes"/>
      <point x="478" y="129"/>
      <point x="531" y="145"/>
      <point x="580" y="194" type="curve"/>
      <point x="564" y="209" type="line" smooth="yes"/>
      <point x="559" y="214"/>
      <point x="552" y="212"/>
    </contour>
    <contour>
      <point x="48" y="354" type="curve" smooth="yes"/>
      <point x="48" y="154"/>
      <point x="208" y="-7"/>
      <point x="408" y="-7" type="curve" smooth="yes"/>
      <point x="607" y="-7"/>
      <point x="769" y="155"/>
      <point x="769" y="354" type="curve" smooth="yes"/>
      <point x="769" y="553"/>
      <point x="608" y="715"/>
      <point x="408" y="715" type="curve" smooth="yes"/>
      <point x="212" y="715"/>
      <point x="48" y="557"/>
    </contour>
    <contour>
      <point x="77" y="354" type="curve" smooth="yes"/>
      <point x="77" y="533"/>
      <point x="221" y="688"/>
      <point x="408" y="688" type="curve" smooth="yes"/>
      <point x="593" y="688"/>
      <point x="740" y="539"/>
      <point x="740" y="354" type="curve" smooth="yes"/>
      <point x="740" y="172"/>
      <point x="596" y="20"/>
      <point x="408" y="20" type="curve" smooth="yes"/>
      <point x="224" y="20"/>
      <point x="77" y="171"/>
    </contour>
  </outline>
</glyph>
<glyph name="ordfeminine" format="1">
  <advance width="274"/>
  <unicode hex="00AA"/>
  <note>
    ordfeminine
  </note>
  <outline>
    <contour>
      <point x="243" y="419" type="curve"/>
      <point x="259" y="420" type="line"/>
      <point x="259" y="608" type="line" smooth="yes"/>
      <point x="259" y="670"/>
      <point x="227" y="715"/>
      <point x="157" y="715" type="curve" smooth="yes"/>
      <point x="111" y="715"/>
      <point x="80" y="701"/>
      <point x="47" y="668" type="curve"/>
      <point x="53" y="657" type="line"/>
      <point x="58" y="648"/>
      <point x="69" y="651"/>
      <point x="76" y="656" type="curve" smooth="yes"/>
      <point x="92" y="668"/>
      <point x="126" y="685"/>
      <point x="153" y="685" type="curve" smooth="yes"/>
      <point x="202" y="685"/>
      <point x="224" y="658"/>
      <point x="224" y="607" type="curve" smooth="yes"/>
      <point x="224" y="582" type="line"/>
      <point x="145" y="581"/>
      <point x="30" y="564"/>
      <point x="30" y="490" type="curve" smooth="yes"/>
      <point x="30" y="446"/>
      <point x="61" y="415"/>
      <point x="113" y="415" type="curve" smooth="yes"/>
      <point x="158" y="415"/>
      <point x="193" y="431"/>
      <point x="225" y="463" type="curve"/>
      <point x="230" y="431" type="line"/>
      <point x="231" y="423"/>
      <point x="234" y="419"/>
    </contour>
    <contour>
      <point x="123" y="441" type="curve" smooth="yes"/>
      <point x="92" y="441"/>
      <point x="64" y="456"/>
      <point x="64" y="492" type="curve" smooth="yes"/>
      <point x="64" y="544"/>
      <point x="149" y="554"/>
      <point x="224" y="557" type="curve"/>
      <point x="224" y="488" type="line"/>
      <point x="198" y="462"/>
      <point x="162" y="441"/>
    </contour>
  </outline>
</glyph>
<glyph name="logicalnot" format="1">
  <advance width="572"/>
  <unicode hex="00AC"/>
  <note>
    logicalnot
  </note>
  <outline>
    <contour>
      <point x="501" y="354" type="line"/>
      <point x="87" y="354" type="line"/>
      <point x="87" y="317" type="line"/>
      <point x="461" y="317" type="line"/>
      <point x="461" y="170" type="line"/>
      <point x="501" y="170" type="line"/>
    </contour>
  </outline>
</glyph>
<glyph name="registered" format="1">
  <advance width="817"/>
  <unicode hex="00AE"/>
  <note>
    registered
  </note>
  <outline>
    <contour>
      <point x="48" y="354" type="curve" smooth="yes"/>
      <point x="48" y="154"/>
      <point x="208" y="-7"/>
      <point x="408" y="-7" type="curve" smooth="yes"/>
      <point x="608" y="-7"/>
      <point x="769" y="155"/>
      <point x="769" y="354" type="curve" smooth="yes"/>
      <point x="769" y="552"/>
      <point x="606" y="715"/>
      <point x="408" y="715" type="curve" smooth="yes"/>
      <point x="213" y="715"/>
      <point x="48" y="558"/>
    </contour>
    <contour>
      <point x="77" y="354" type="curve" smooth="yes"/>
      <point x="77" y="538"/>
      <point x="224" y="688"/>
      <point x="408" y="688" type="curve" smooth="yes"/>
      <point x="594" y="688"/>
      <point x="740" y="538"/>
      <point x="740" y="354" type="curve" smooth="yes"/>
      <point x="740" y="172"/>
      <point x="596" y="20"/>
      <point x="408" y="20" type="curve" smooth="yes"/>
      <point x="224" y="20"/>
      <point x="77" y="171"/>
    </contour>
    <contour>
      <point x="317" y="133" type="line"/>
      <point x="317" y="328" type="line"/>
      <point x="372" y="328" type="line" smooth="yes"/>
      <point x="383" y="328"/>
      <point x="393" y="328"/>
      <point x="402" y="316" type="curve" smooth="yes"/>
      <point x="537" y="141" type="line"/>
      <point x="541" y="135"/>
      <point x="545" y="133"/>
      <point x="552" y="133" type="curve" smooth="yes"/>
      <point x="592" y="133" type="line"/>
      <point x="450" y="317" type="line"/>
      <point x="444" y="324"/>
      <point x="438" y="332"/>
      <point x="430" y="337" type="curve"/>
      <point x="500" y="346"/>
      <point x="553" y="385"/>
      <point x="553" y="459" type="curve" smooth="yes"/>
      <point x="553" y="542"/>
      <point x="495" y="576"/>
      <point x="398" y="576" type="curve" smooth="yes"/>
      <point x="274" y="576" type="line"/>
      <point x="274" y="133" type="line"/>
    </contour>
    <contour>
      <point x="391" y="360" type="curve" smooth="yes"/>
      <point x="317" y="360" type="line"/>
      <point x="317" y="542" type="line"/>
      <point x="398" y="542" type="line" smooth="yes"/>
      <point x="468" y="542"/>
      <point x="511" y="524"/>
      <point x="511" y="454" type="curve" smooth="yes"/>
      <point x="511" y="388"/>
      <point x="462" y="360"/>
    </contour>
  </outline>
</glyph>
<glyph name="macron" format="1">
  <advance width="373"/>
  <unicode hex="00AF"/>
  <note>
    macron
  </note>
  <outline>
    <contour>
      <point x="323" y="658" type="line"/>
      <point x="50" y="658" type="line"/>
      <point x="50" y="626" type="line"/>
      <point x="323" y="626" type="line"/>
    </contour>
  </outline>
</glyph>
<glyph name="degree" format="1">
  <advance width="358"/>
  <unicode hex="00B0"/>
  <note>
    degree
  </note>
  <outline>
    <contour>
      <point x="29" y="567" type="curve" smooth="yes"/>
      <point x="29" y="482"/>
      <point x="97" y="418"/>
      <point x="179" y="418" type="curve" smooth="yes"/>
      <point x="259" y="418"/>
      <point x="329" y="480"/>
      <point x="329" y="567" type="curve" smooth="yes"/>
      <point x="329" y="653"/>
      <point x="261" y="716"/>
      <point x="179" y="716" type="curve" smooth="yes"/>
      <point x="98" y="716"/>
      <point x="29" y="655"/>
    </contour>
    <contour>
      <point x="64" y="567" type="curve" smooth="yes"/>
      <point x="64" y="629"/>
      <point x="110" y="682"/>
      <point x="179" y="682" type="curve" smooth="yes"/>
      <point x="243" y="682"/>
      <point x="294" y="631"/>
      <point x="294" y="567" type="curve" smooth="yes"/>
      <point x="294" y="508"/>
      <point x="245" y="452"/>
      <point x="179" y="452" type="curve" smooth="yes"/>
      <point x="120" y="452"/>
      <point x="64" y="501"/>
    </contour>
  </outline>
</glyph>
<glyph name="plusminus" format="1">
  <advance width="656"/>
  <unicode hex="00B1"/>
  <note>
    plusminus
  </note>
  <outline>
    <contour>
      <point x="347" y="374" type="line"/>
      <point x="347" y="576" type="line"/>
      <point x="309" y="576" type="line"/>
      <point x="309" y="374" type="line"/>
      <point x="93" y="374" type="line"/>
      <point x="93" y="337" type="line"/>
      <point x="309" y="337" type="line"/>
      <point x="309" y="136" type="line"/>
      <point x="347" y="136" type="line"/>
      <point x="347" y="337" type="line"/>
      <point x="563" y="337" type="line"/>
      <point x="563" y="374" type="line"/>
    </contour>
    <contour>
      <point x="563" y="76" type="line"/>
      <point x="93" y="76" type="line"/>
      <point x="93" y="40" type="line"/>
      <point x="563" y="40" type="line"/>
    </contour>
  </outline>
</glyph>
<glyph name="twosuperior" format="1">
  <advance width="371"/>
  <unicode hex="00B2"/>
  <note>
    twosuperior
  </note>
  <outline>
    <contour>
      <point x="301" y="528" type="line"/>
      <point x="290" y="528" type="line" smooth="yes"/>
      <point x="278" y="528"/>
      <point x="273" y="521"/>
      <point x="272" y="507" type="curve"/>
      <point x="269" y="483" type="line"/>
      <point x="152" y="483" type="line" smooth="yes"/>
      <point x="143" y="483"/>
      <point x="124" y="482"/>
      <point x="113" y="478" type="curve"/>
      <point x="216" y="583" type="line" smooth="yes"/>
      <point x="256" y="623"/>
      <point x="293" y="658"/>
      <point x="293" y="714" type="curve" smooth="yes"/>
      <point x="293" y="776"/>
      <point x="246" y="812"/>
      <point x="187" y="812" type="curve" smooth="yes"/>
      <point x="127" y="812"/>
      <point x="81" y="779"/>
      <point x="71" y="713" type="curve"/>
      <point x="95" y="709" type="line" smooth="yes"/>
      <point x="102" y="708"/>
      <point x="106" y="713"/>
      <point x="108" y="719" type="curve"/>
      <point x="124" y="760"/>
      <point x="148" y="781"/>
      <point x="185" y="781" type="curve" smooth="yes"/>
      <point x="225" y="781"/>
      <point x="256" y="758"/>
      <point x="256" y="712" type="curve" smooth="yes"/>
      <point x="256" y="668"/>
      <point x="227" y="634"/>
      <point x="189" y="596" type="curve" smooth="yes"/>
      <point x="71" y="477" type="line"/>
      <point x="67" y="474"/>
      <point x="64" y="466"/>
      <point x="64" y="462" type="curve" smooth="yes"/>
      <point x="64" y="450" type="line"/>
      <point x="267" y="450" type="line"/>
      <point x="301" y="450" type="line"/>
      <point x="301" y="471" type="line"/>
    </contour>
  </outline>
</glyph>
<glyph name="threesuperior" format="1">
  <advance width="384"/>
  <unicode hex="00B3"/>
  <note>
    threesuperior
  </note>
  <outline>
    <contour>
      <point x="197" y="812" type="curve" smooth="yes"/>
      <point x="138" y="812"/>
      <point x="93" y="777"/>
      <point x="83" y="712" type="curve"/>
      <point x="96" y="710" type="line"/>
      <point x="109" y="708"/>
      <point x="116" y="709"/>
      <point x="119" y="719" type="curve" smooth="yes"/>
      <point x="131" y="760"/>
      <point x="155" y="781"/>
      <point x="196" y="781" type="curve" smooth="yes"/>
      <point x="235" y="781"/>
      <point x="267" y="759"/>
      <point x="267" y="714" type="curve" smooth="yes"/>
      <point x="267" y="669"/>
      <point x="232" y="646"/>
      <point x="177" y="644" type="curve"/>
      <point x="177" y="620" type="line"/>
      <point x="233" y="620"/>
      <point x="273" y="602"/>
      <point x="273" y="549" type="curve" smooth="yes"/>
      <point x="273" y="505"/>
      <point x="235" y="476"/>
      <point x="191" y="476" type="curve" smooth="yes"/>
      <point x="153" y="476"/>
      <point x="121" y="500"/>
      <point x="108" y="538" type="curve"/>
      <point x="104" y="548"/>
      <point x="95" y="547"/>
      <point x="87" y="544" type="curve"/>
      <point x="73" y="538" type="line"/>
      <point x="93" y="475"/>
      <point x="121" y="446"/>
      <point x="193" y="446" type="curve" smooth="yes"/>
      <point x="252" y="446"/>
      <point x="310" y="485"/>
      <point x="310" y="551" type="curve" smooth="yes"/>
      <point x="310" y="598"/>
      <point x="283" y="622"/>
      <point x="235" y="634" type="curve"/>
      <point x="272" y="645"/>
      <point x="301" y="675"/>
      <point x="301" y="720" type="curve" smooth="yes"/>
      <point x="301" y="778"/>
      <point x="254" y="812"/>
    </contour>
  </outline>
</glyph>
<glyph name="acute" format="1">
  <advance width="255"/>
  <unicode hex="00B4"/>
  <note>
    acute
  </note>
  <outline>
    <contour>
      <point x="97" y="589" type="curve"/>
      <point x="205" y="716" type="line"/>
      <point x="158" y="716" type="line" smooth="yes"/>
      <point x="148" y="716"/>
      <point x="137" y="714"/>
      <point x="128" y="700" type="curve" smooth="yes"/>
      <point x="50" y="580" type="line"/>
      <point x="78" y="580" type="line" smooth="yes"/>
      <point x="88" y="580"/>
      <point x="91" y="583"/>
    </contour>
  </outline>
</glyph>
<glyph name="mu" format="1">
  <advance width="423"/>
  <unicode hex="00B5"/>
  <note>
    mu
  </note>
  <outline>
    <contour>
      <point x="58" y="180" type="curve"/>
      <point x="57" y="498" type="line"/>
      <point x="9" y="498" type="line"/>
      <point x="9" y="-155" type="line" smooth="yes"/>
      <point x="9" y="-168"/>
      <point x="18" y="-176"/>
      <point x="31" y="-176" type="curve" smooth="yes"/>
      <point x="55" y="-176" type="line"/>
      <point x="55" y="-12" type="line" smooth="yes"/>
      <point x="55" y="7"/>
      <point x="53" y="57"/>
      <point x="51" y="72" type="curve"/>
      <point x="76" y="22"/>
      <point x="121" y="-3"/>
      <point x="185" y="-3" type="curve" smooth="yes"/>
      <point x="254" y="-3"/>
      <point x="310" y="30"/>
      <point x="355" y="87" type="curve"/>
      <point x="360" y="13" type="line"/>
      <point x="360" y="4"/>
      <point x="366" y="0"/>
      <point x="375" y="0" type="curve" smooth="yes"/>
      <point x="401" y="0" type="line"/>
      <point x="401" y="498" type="line"/>
      <point x="353" y="498" type="line"/>
      <point x="353" y="124" type="line"/>
      <point x="312" y="70"/>
      <point x="256" y="30"/>
      <point x="187" y="30" type="curve" smooth="yes"/>
      <point x="99" y="30"/>
      <point x="58" y="88"/>
    </contour>
  </outline>
</glyph>
<glyph name="paragraph" format="1">
  <advance width="712"/>
  <unicode hex="00B6"/>
  <note>
    paragraph
  </note>
  <outline>
    <contour>
      <point x="615" y="666" type="line"/>
      <point x="615" y="708" type="line"/>
      <point x="253" y="708" type="line" smooth="yes"/>
      <point x="131" y="708"/>
      <point x="32" y="649"/>
      <point x="32" y="532" type="curve" smooth="yes"/>
      <point x="32" y="415"/>
      <point x="131" y="350"/>
      <point x="253" y="350" type="curve"/>
      <point x="253" y="-95" type="line"/>
      <point x="296" y="-95" type="line"/>
      <point x="296" y="666" type="line"/>
      <point x="460" y="666" type="line"/>
      <point x="460" y="-95" type="line"/>
      <point x="503" y="-95" type="line"/>
      <point x="503" y="666" type="line"/>
    </contour>
  </outline>
</glyph>
<glyph name="cedilla" format="1">
  <advance width="264"/>
  <unicode hex="00B8"/>
  <note>
    cedilla
  </note>
  <outline>
    <contour>
      <point x="64" y="-137"/>
      <point x="59" y="-138"/>
      <point x="54" y="-148" type="curve"/>
      <point x="50" y="-156" type="line"/>
      <point x="72" y="-171"/>
      <point x="95" y="-178"/>
      <point x="122" y="-178" type="curve" smooth="yes"/>
      <point x="167" y="-178"/>
      <point x="214" y="-159"/>
      <point x="214" y="-113" type="curve" smooth="yes"/>
      <point x="214" y="-71"/>
      <point x="181" y="-56"/>
      <point x="124" y="-46" type="curve"/>
      <point x="138" y="2" type="line"/>
      <point x="108" y="2" type="line"/>
      <point x="87" y="-64" type="line"/>
      <point x="130" y="-71"/>
      <point x="176" y="-74"/>
      <point x="176" y="-113" type="curve" smooth="yes"/>
      <point x="176" y="-142"/>
      <point x="152" y="-154"/>
      <point x="122" y="-154" type="curve" smooth="yes"/>
      <point x="107" y="-154"/>
      <point x="86" y="-147"/>
      <point x="73" y="-141" type="curve" smooth="yes"/>
    </contour>
  </outline>
</glyph>
<glyph name="onesuperior" format="1">
  <advance width="378"/>
  <unicode hex="00B9"/>
  <note>
    onesuperior
  </note>
  <outline>
    <contour>
      <point x="183" y="474" type="line"/>
      <point x="105" y="474" type="line"/>
      <point x="105" y="450" type="line"/>
      <point x="293" y="450" type="line"/>
      <point x="293" y="474" type="line"/>
      <point x="220" y="474" type="line"/>
      <point x="220" y="809" type="line"/>
      <point x="191" y="809" type="line"/>
      <point x="85" y="717" type="line"/>
      <point x="97" y="702" type="line"/>
      <point x="102" y="695"/>
      <point x="107" y="696"/>
      <point x="113" y="700" type="curve"/>
      <point x="185" y="763" type="line"/>
      <point x="183" y="744" type="line"/>
    </contour>
  </outline>
</glyph>
<glyph name="ordmasculine" format="1">
  <advance width="345"/>
  <unicode hex="00BA"/>
  <note>
    ordmasculine
  </note>
  <outline>
    <contour>
      <point x="173" y="714" type="curve" smooth="yes"/>
      <point x="83" y="714"/>
      <point x="29" y="655"/>
      <point x="29" y="564" type="curve" smooth="yes"/>
      <point x="29" y="473"/>
      <point x="83" y="414"/>
      <point x="173" y="414" type="curve" smooth="yes"/>
      <point x="265" y="414"/>
      <point x="316" y="474"/>
      <point x="316" y="564" type="curve" smooth="yes"/>
      <point x="316" y="624"/>
      <point x="292" y="680"/>
      <point x="233" y="704" type="curve" smooth="yes"/>
      <point x="215" y="711"/>
      <point x="195" y="714"/>
    </contour>
    <contour>
      <point x="173" y="442" type="curve" smooth="yes"/>
      <point x="102" y="442"/>
      <point x="67" y="491"/>
      <point x="67" y="564" type="curve" smooth="yes"/>
      <point x="67" y="634"/>
      <point x="99" y="686"/>
      <point x="173" y="686" type="curve" smooth="yes"/>
      <point x="244" y="686"/>
      <point x="278" y="639"/>
      <point x="278" y="564" type="curve" smooth="yes"/>
      <point x="278" y="489"/>
      <point x="244" y="442"/>
    </contour>
  </outline>
</glyph>
<glyph name="onequarter" format="1">
  <advance width="799"/>
  <unicode hex="00BC"/>
  <note>
    onequarter
  </note>
  <outline>
    <contour>
      <point x="714" y="124" type="line"/>
      <point x="651" y="124" type="line"/>
      <point x="651" y="358" type="line"/>
      <point x="617" y="358" type="line"/>
      <point x="441" y="122" type="line"/>
      <point x="445" y="106" type="line"/>
      <point x="446" y="101"/>
      <point x="449" y="98"/>
      <point x="457" y="98" type="curve" smooth="yes"/>
      <point x="619" y="98" type="line"/>
      <point x="619" y="0" type="line"/>
      <point x="651" y="0" type="line"/>
      <point x="651" y="98" type="line"/>
      <point x="705" y="98" type="line" smooth="yes"/>
      <point x="711" y="98"/>
      <point x="714" y="101"/>
      <point x="714" y="106" type="curve" smooth="yes"/>
    </contour>
    <contour>
      <point x="619" y="291" type="curve" smooth="yes"/>
      <point x="619" y="124" type="line"/>
      <point x="477" y="124" type="line"/>
      <point x="621" y="317" type="line"/>
      <point x="620" y="307"/>
      <point x="619" y="299"/>
    </contour>
    <contour>
      <point x="221" y="16" type="curve"/>
      <point x="623" y="708" type="line"/>
      <point x="601" y="708" type="line" smooth="yes"/>
      <point x="589" y="708"/>
      <point x="579" y="701"/>
      <point x="574" y="690" type="curve"/>
      <point x="174" y="0" type="line"/>
      <point x="194" y="0" type="line" smooth="yes"/>
      <point x="208" y="0"/>
      <point x="213" y="4"/>
    </contour>
    <component base="onesuperior" xOffset="41" yOffset="-99"/>
  </outline>
</glyph>
<glyph name="onehalf" format="1">
  <advance width="797"/>
  <unicode hex="00BD"/>
  <note>
    onehalf
  </note>
  <outline>
    <contour>
      <point x="198" y="16" type="curve"/>
      <point x="599" y="708" type="line"/>
      <point x="578" y="708" type="line" smooth="yes"/>
      <point x="566" y="708"/>
      <point x="556" y="701"/>
      <point x="551" y="690" type="curve"/>
      <point x="151" y="0" type="line"/>
      <point x="171" y="0" type="line" smooth="yes"/>
      <point x="185" y="0"/>
      <point x="190" y="4"/>
    </contour>
    <component base="onesuperior" xOffset="41" yOffset="-99"/>
    <component base="twosuperior" xOffset="411" yOffset="-450"/>
  </outline>
</glyph>
<glyph name="threequarters" format="1">
  <advance width="803"/>
  <unicode hex="00BE"/>
  <note>
    threequarters
  </note>
  <outline>
    <contour>
      <point x="729" y="124" type="line"/>
      <point x="665" y="124" type="line"/>
      <point x="665" y="358" type="line"/>
      <point x="632" y="358" type="line"/>
      <point x="456" y="122" type="line"/>
      <point x="459" y="106" type="line" smooth="yes"/>
      <point x="460" y="101"/>
      <point x="463" y="98"/>
      <point x="471" y="98" type="curve" smooth="yes"/>
      <point x="634" y="98" type="line"/>
      <point x="634" y="0" type="line"/>
      <point x="665" y="0" type="line"/>
      <point x="665" y="98" type="line"/>
      <point x="720" y="98" type="line" smooth="yes"/>
      <point x="726" y="98"/>
      <point x="729" y="101"/>
      <point x="729" y="106" type="curve" smooth="yes"/>
    </contour>
    <contour>
      <point x="634" y="291" type="curve" smooth="yes"/>
      <point x="634" y="123" type="line"/>
      <point x="491" y="123" type="line"/>
      <point x="635" y="317" type="line"/>
      <point x="634" y="307"/>
      <point x="634" y="299"/>
    </contour>
    <contour>
      <point x="240" y="15" type="curve"/>
      <point x="641" y="707" type="line"/>
      <point x="620" y="707" type="line" smooth="yes"/>
      <point x="610" y="707"/>
      <point x="600" y="704"/>
      <point x="593" y="690" type="curve"/>
      <point x="193" y="0" type="line"/>
      <point x="213" y="0" type="line" smooth="yes"/>
      <point x="222" y="0"/>
      <point x="231" y="2"/>
    </contour>
    <component base="threesuperior" xOffset="29" yOffset="-100"/>
  </outline>
</glyph>
<glyph name="questiondown" format="1">
  <advance width="402"/>
  <unicode hex="00BF"/>
  <note>
    questiondown
  </note>
  <outline>
    <contour>
      <point x="370" y="-112" type="curve"/>
      <point x="357" y="-92" type="line"/>
      <point x="356" y="-90"/>
      <point x="355" y="-89"/>
      <point x="353" y="-88" type="curve" smooth="yes"/>
      <point x="351" y="-87"/>
      <point x="349" y="-86"/>
      <point x="346" y="-86" type="curve" smooth="yes"/>
      <point x="343" y="-86"/>
      <point x="338" y="-89"/>
      <point x="332" y="-95" type="curve" smooth="yes"/>
      <point x="304" y="-123"/>
      <point x="259" y="-142"/>
      <point x="209" y="-142" type="curve" smooth="yes"/>
      <point x="139" y="-142"/>
      <point x="80" y="-102"/>
      <point x="80" y="-28" type="curve" smooth="yes"/>
      <point x="80" y="49"/>
      <point x="116" y="64"/>
      <point x="199" y="126" type="curve" smooth="yes"/>
      <point x="224" y="145"/>
      <point x="240" y="164"/>
      <point x="240" y="190" type="curve" smooth="yes"/>
      <point x="238" y="277" type="line"/>
      <point x="205" y="277" type="line"/>
      <point x="200" y="196" type="line" smooth="yes"/>
      <point x="198" y="171"/>
      <point x="180" y="157"/>
      <point x="154" y="140" type="curve" smooth="yes"/>
      <point x="79" y="90"/>
      <point x="34" y="51"/>
      <point x="34" y="-32" type="curve" smooth="yes"/>
      <point x="34" y="-123"/>
      <point x="112" y="-182"/>
      <point x="206" y="-182" type="curve" smooth="yes"/>
      <point x="266" y="-182"/>
      <point x="327" y="-155"/>
    </contour>
    <contour>
      <point x="222" y="413" type="curve" smooth="yes"/>
      <point x="247" y="413"/>
      <point x="268" y="434"/>
      <point x="268" y="459" type="curve" smooth="yes"/>
      <point x="268" y="484"/>
      <point x="247" y="505"/>
      <point x="222" y="505" type="curve" smooth="yes"/>
      <point x="197" y="505"/>
      <point x="176" y="484"/>
      <point x="176" y="459" type="curve" smooth="yes"/>
      <point x="176" y="434"/>
      <point x="197" y="413"/>
    </contour>
  </outline>
</glyph>
<glyph name="AE" format="1">
  <advance width="933"/>
  <unicode hex="00C6"/>
  <note>
    AE
  </note>
  <outline>
    <contour>
      <point x="885" y="708" type="line"/>
      <point x="323" y="708" type="line"/>
      <point x="323" y="689" type="line" smooth="yes"/>
      <point x="323" y="678"/>
      <point x="330" y="672"/>
      <point x="343" y="671" type="curve"/>
      <point x="384" y="670" type="line"/>
      <point x="40" y="46" type="line"/>
      <point x="8" y="43" type="line" smooth="yes"/>
      <point x="-5" y="42"/>
      <point x="-11" y="35"/>
      <point x="-11" y="23" type="curve" smooth="yes"/>
      <point x="-11" y="0" type="line"/>
      <point x="162" y="0" type="line"/>
      <point x="162" y="23" type="line" smooth="yes"/>
      <point x="162" y="36"/>
      <point x="154" y="42"/>
      <point x="139" y="43" type="curve"/>
      <point x="93" y="46" type="line"/>
      <point x="188" y="219" type="line"/>
      <point x="486" y="219" type="line"/>
      <point x="509" y="39" type="line"/>
      <point x="460" y="38" type="line"/>
      <point x="447" y="37"/>
      <point x="441" y="31"/>
      <point x="441" y="20" type="curve" smooth="yes"/>
      <point x="441" y="0" type="line"/>
      <point x="885" y="0" type="line"/>
      <point x="885" y="147" type="line"/>
      <point x="861" y="147" type="line" smooth="yes"/>
      <point x="847" y="147"/>
      <point x="840" y="138"/>
      <point x="839" y="122" type="curve"/>
      <point x="835" y="43" type="line"/>
      <point x="557" y="43" type="line"/>
      <point x="519" y="338" type="line"/>
      <point x="794" y="338" type="line"/>
      <point x="794" y="379" type="line"/>
      <point x="514" y="379" type="line"/>
      <point x="478" y="666" type="line"/>
      <point x="835" y="666" type="line"/>
      <point x="839" y="586" type="line"/>
      <point x="840" y="570"/>
      <point x="847" y="562"/>
      <point x="861" y="562" type="curve" smooth="yes"/>
      <point x="885" y="562" type="line"/>
    </contour>
    <contour>
      <point x="429" y="669" type="curve"/>
      <point x="481" y="257" type="line"/>
      <point x="209" y="257" type="line"/>
      <point x="409" y="622" type="line"/>
      <point x="414" y="633"/>
      <point x="424" y="654"/>
    </contour>
  </outline>
</glyph>
<glyph name="Eth" format="1">
  <advance width="805"/>
  <unicode hex="00D0"/>
  <note>
    Eth
  </note>
  <outline>
    <contour>
      <point x="58" y="374" type="line"/>
      <point x="58" y="342" type="line"/>
      <point x="419" y="342" type="line"/>
      <point x="419" y="374" type="line"/>
    </contour>
    <component base="D" xOffset="31"/>
  </outline>
</glyph>
<glyph name="multiply" format="1">
  <advance width="565"/>
  <unicode hex="00D7"/>
  <note>
    multiply
  </note>
  <outline>
    <contour>
      <point x="309" y="335" type="line"/>
      <point x="493" y="518" type="line"/>
      <point x="466" y="545" type="line"/>
      <point x="283" y="362" type="line"/>
      <point x="99" y="546" type="line"/>
      <point x="73" y="519" type="line"/>
      <point x="257" y="335" type="line"/>
      <point x="70" y="148" type="line"/>
      <point x="96" y="122" type="line"/>
      <point x="283" y="309" type="line"/>
      <point x="469" y="123" type="line"/>
      <point x="495" y="149" type="line"/>
    </contour>
  </outline>
</glyph>
<glyph name="Oslash" format="1">
  <advance width="770"/>
  <unicode hex="00D8"/>
  <note>
    Oslash
  </note>
  <outline>
    <contour>
      <point x="722" y="354" type="curve" smooth="yes"/>
      <point x="722" y="457"/>
      <point x="691" y="559"/>
      <point x="616" y="629" type="curve"/>
      <point x="698" y="740" type="line"/>
      <point x="671" y="740" type="line" smooth="yes"/>
      <point x="659" y="740"/>
      <point x="655" y="736"/>
      <point x="646" y="725" type="curve" smooth="yes"/>
      <point x="590" y="650" type="line"/>
      <point x="529" y="696"/>
      <point x="462" y="716"/>
      <point x="384" y="716" type="curve" smooth="yes"/>
      <point x="183" y="716"/>
      <point x="48" y="568"/>
      <point x="48" y="354" type="curve" smooth="yes"/>
      <point x="48" y="244"/>
      <point x="79" y="145"/>
      <point x="161" y="72" type="curve"/>
      <point x="68" y="-52" type="line"/>
      <point x="90" y="-52" type="line" smooth="yes"/>
      <point x="101" y="-52"/>
      <point x="113" y="-50"/>
      <point x="122" y="-36" type="curve"/>
      <point x="187" y="52" type="line"/>
      <point x="241" y="14"/>
      <point x="311" y="-8"/>
      <point x="384" y="-8" type="curve" smooth="yes"/>
      <point x="589" y="-8"/>
      <point x="722" y="140"/>
    </contour>
    <contour>
      <point x="100" y="354" type="curve" smooth="yes"/>
      <point x="100" y="539"/>
      <point x="206" y="672"/>
      <point x="384" y="672" type="curve" smooth="yes"/>
      <point x="447" y="672"/>
      <point x="515" y="651"/>
      <point x="563" y="613" type="curve"/>
      <point x="190" y="110" type="line"/>
      <point x="128" y="170"/>
      <point x="100" y="261"/>
    </contour>
    <contour>
      <point x="669" y="354" type="curve" smooth="yes"/>
      <point x="669" y="167"/>
      <point x="564" y="37"/>
      <point x="384" y="37" type="curve" smooth="yes"/>
      <point x="321" y="37"/>
      <point x="263" y="53"/>
      <point x="215" y="89" type="curve"/>
      <point x="587" y="590" type="line"/>
      <point x="646" y="529"/>
      <point x="669" y="445"/>
    </contour>
  </outline>
</glyph>
<glyph name="Thorn" format="1">
  <advance width="525"/>
  <unicode hex="00DE"/>
  <note>
    Thorn
  </note>
  <outline>
    <contour>
      <point x="108" y="0" type="line"/>
      <point x="108" y="143" type="line"/>
      <point x="240" y="143" type="line" smooth="yes"/>
      <point x="382" y="143"/>
      <point x="491" y="221"/>
      <point x="491" y="356" type="curve" smooth="yes"/>
      <point x="491" y="498"/>
      <point x="396" y="566"/>
      <point x="240" y="566" type="curve" smooth="yes"/>
      <point x="108" y="566" type="line"/>
      <point x="108" y="708" type="line"/>
      <point x="58" y="708" type="line"/>
      <point x="58" y="0" type="line"/>
    </contour>
    <contour>
      <point x="240" y="184" type="curve" smooth="yes"/>
      <point x="108" y="184" type="line"/>
      <point x="108" y="524" type="line"/>
      <point x="240" y="524" type="line" smooth="yes"/>
      <point x="360" y="524"/>
      <point x="440" y="476"/>
      <point x="440" y="356" type="curve" smooth="yes"/>
      <point x="440" y="250"/>
      <point x="357" y="184"/>
    </contour>
  </outline>
</glyph>
